<svg width="40" height="24" viewBox="0 0 40 24" fill="none" xmlns="http://www.w3.org/2000/svg">
<path d="M2.49997 0H37.5C38.88 0 40 0.934873 40 2.08787V21.9132C40 23.0651 38.88 24 37.5 24H2.49997C1.11871 24.0001 0 23.0651 0 21.9133V2.08787C0 0.934873 1.11995 0 2.49997 0Z" fill="#26A6D1"/>
<path d="M8.29729 8.34741L5 15.6442H8.94732L9.43667 14.4808H10.5552L11.0446 15.6442H15.3895V14.7563L15.7766 15.6442H18.0241L18.4113 14.7375V15.6442H27.4475L28.5462 14.511L29.5751 15.6442L34.2162 15.6536L30.9085 12.0162L34.2162 8.34741H29.6471L28.5775 9.45967L27.581 8.34741H17.7509L16.9067 10.2308L16.0428 8.34741H12.1037V9.20515L11.6655 8.34741H8.29729ZM9.06107 9.38357H10.9852L13.1723 14.3316V9.38357H15.2801L16.9693 12.9313L18.5262 9.38357H20.6234V14.6195H19.3473L19.3369 10.5167L17.4764 14.6195H16.3349L14.464 10.5167V14.6195H11.8387L11.341 13.4457H8.65206L8.15538 14.6185H6.74878L9.06107 9.38357ZM21.791 9.38357H26.98L28.5671 11.0979L30.2053 9.38357H31.7924L29.381 12.0151L31.7924 14.6164H30.1333L28.5462 12.8822L26.8997 14.6164H21.791V9.38357ZM9.99709 10.2695L9.1112 12.3605H10.882L9.99709 10.2695ZM23.0724 10.4677V11.4235H25.9032V12.4888H23.0724V13.5323H26.2476L27.7229 11.9954L26.3102 10.4668L23.0724 10.4677Z" fill="white"/>
</svg>
