<svg width="38" height="36" viewBox="0 0 38 36" fill="none" xmlns="http://www.w3.org/2000/svg">
<path d="M32.3 0H5.7C2.5574 0 0 2.55032 0 5.68421V11.0482C0 13.0434 0.7258 14.8566 1.9 16.2512V34.1053C1.9 34.6078 2.10018 35.0897 2.4565 35.445C2.81282 35.8004 3.29609 36 3.8 36H19C19.5039 36 19.9872 35.8004 20.3435 35.445C20.6998 35.0897 20.9 34.6078 20.9 34.1053V24.6316H28.5V34.1053C28.5 34.6078 28.7002 35.0897 29.0565 35.445C29.4128 35.8004 29.8961 36 30.4 36H34.2C34.7039 36 35.1872 35.8004 35.5435 35.445C35.8998 35.0897 36.1 34.6078 36.1 34.1053V16.2493C37.2742 14.8566 38 13.0434 38 11.0463V5.68421C38 2.55032 35.4426 0 32.3 0ZM34.2 5.68421V11.0482C34.2 13.2082 32.5869 15.0499 30.6071 15.1541L30.4 15.1579C28.3043 15.1579 26.6 13.4583 26.6 11.3684V3.78947H32.3C33.3488 3.78947 34.2 4.64021 34.2 5.68421ZM15.2 11.3684V3.78947H22.8V11.3684C22.8 13.4583 21.0957 15.1579 19 15.1579C16.9043 15.1579 15.2 13.4583 15.2 11.3684ZM3.8 5.68421C3.8 4.64021 4.6512 3.78947 5.7 3.78947H11.4V11.3684C11.4 13.4583 9.6957 15.1579 7.6 15.1579L7.3929 15.1522C5.4131 15.0499 3.8 13.2082 3.8 11.0482V5.68421ZM15.2 26.5263H7.6V20.8421H15.2V26.5263Z" fill="#304FFE"/>
</svg>
