<svg width="55" height="55" viewBox="0 0 55 55" fill="none" xmlns="http://www.w3.org/2000/svg">
<g clip-path="url(#clip0_145_400)">
<path d="M52 27.5C52 13.9691 41.0309 3 27.5 3C13.9691 3 3 13.9689 3 27.5C3 39.7286 11.9593 49.8645 23.6719 51.7024V34.582H17.4512V27.5H23.6719V22.1023C23.6719 15.962 27.3296 12.5703 32.9258 12.5703C35.6064 12.5703 38.4102 13.0488 38.4102 13.0488V19.0781H35.3209C32.2771 19.0781 31.3281 20.9667 31.3281 22.9043V27.5H38.123L37.0368 34.582H31.3281V51.7024C43.0407 49.8645 52 39.7288 52 27.5Z" fill="#1877F2"/>
<path d="M37.0368 34.582L38.123 27.5H31.3281V22.9043C31.3281 20.9665 32.2773 19.0781 35.3209 19.0781H38.4102V13.0488C38.4102 13.0488 35.6064 12.5703 32.9258 12.5703C27.3296 12.5703 23.6719 15.962 23.6719 22.1023V27.5H17.4512V34.582H23.6719V51.7024C24.9383 51.9008 26.2182 52.0003 27.5 52C28.7818 52.0004 30.0618 51.9009 31.3281 51.7024V34.582H37.0368Z" fill="white"/>
<circle cx="27.5" cy="27.5" r="26" stroke="#96BFF4" stroke-width="3"/>
</g>
<defs>
<clipPath id="clip0_145_400">
<rect width="55" height="55" fill="white"/>
</clipPath>
</defs>
</svg>