<svg width="245" height="49" viewBox="0 0 245 49" fill="none" xmlns="http://www.w3.org/2000/svg">
<g clip-path="url(#clip0_2771_1238)">
<path d="M21.127 14.6649V20.0991L15.3378 12.828V1.65026C15.3378 0.385845 16.9648 -0.159109 17.7427 0.848138L20.4173 4.31074C20.8605 4.88631 21.1022 5.59047 21.1053 6.31299L21.127 14.6649Z" fill="#252F40"/>
<path d="M37.7262 14.6649V20.1114L43.5185 12.8402V1.65026C43.5185 0.385845 41.8915 -0.15911 41.1136 0.848138L38.3584 4.56791C37.9369 5.13736 37.7107 5.82621 37.7107 6.53342L37.7262 14.6649Z" fill="#252F40"/>
<path d="M11.8792 13.1832L12.5176 14.019L11.2407 12.3657H11.2469L11.8792 13.1832Z" fill="white"/>
<path d="M47.6189 12.3657L46.0166 14.4415L47.6127 12.3596L47.6189 12.3657Z" fill="white"/>
<path d="M56.4453 0.829749L29.4267 35.9426L2.40806 0.829749C1.63326 -0.174437 0 0.361333 0 1.63187V47.6775C0 48.4031 0.595041 49.0001 1.33884 49.0001H19.4907C19.8626 49.0001 20.1973 48.8501 20.439 48.6113C20.6808 48.3725 20.8326 48.0449 20.8326 47.6775V39.4603L15.0403 31.9595V43.275H5.79236V14.9251L28.3636 43.9883C28.9029 44.6864 29.9566 44.6864 30.4959 43.9883L53.0672 14.9251V43.275H43.8192V31.9595L38.0269 39.4603V47.6775C38.0269 48.4031 38.6281 49.0001 39.3719 49.0001H57.5238C58.2645 49.0001 58.8626 48.4061 58.8626 47.6775V1.63187C58.8564 0.361333 57.2231 -0.174437 56.4453 0.829749Z" fill="url(#paint0_linear_2771_1238)"/>
<path d="M20.8326 39.4604V47.6775C20.8326 48.0449 20.6808 48.3695 20.439 48.6113L15.0403 43.2781V31.9626L20.8326 39.4604Z" fill="#252F40"/>
<path d="M38.0144 39.4604V47.6775C38.0144 48.0449 38.1663 48.3695 38.408 48.6113L43.8068 43.2781V31.9626L38.0144 39.4604Z" fill="#252F40"/>
<path d="M65.6901 0.306152V48.6785" stroke="#252F40" stroke-width="2" stroke-miterlimit="10" stroke-linecap="round"/>
</g>
<path d="M77.092 28.61C77.4907 28.61 77.794 28.5667 78.002 28.48C78.21 28.3933 78.3573 28.2633 78.444 28.09C78.548 27.9167 78.6087 27.6913 78.626 27.414C78.6433 27.1193 78.652 26.7813 78.652 26.4V13.4C78.652 13.0013 78.6433 12.6633 78.626 12.386C78.6087 12.1087 78.548 11.8833 78.444 11.71C78.3573 11.5367 78.21 11.4067 78.002 11.32C77.794 11.2333 77.4907 11.19 77.092 11.19V10.8H84.502V11.19C84.1207 11.19 83.8173 11.2333 83.592 11.32C83.384 11.4067 83.228 11.5367 83.124 11.71C83.0373 11.8833 82.9853 12.1087 82.968 12.386C82.9507 12.6633 82.942 13.0013 82.942 13.4V19.64H88.532V13.4C88.532 13.0013 88.5233 12.6633 88.506 12.386C88.4887 12.1087 88.428 11.8833 88.324 11.71C88.2373 11.5367 88.09 11.4067 87.882 11.32C87.674 11.2333 87.3707 11.19 86.972 11.19V10.8H94.382V11.19C94.0007 11.19 93.6973 11.2333 93.472 11.32C93.264 11.4067 93.108 11.5367 93.004 11.71C92.9173 11.8833 92.8653 12.1087 92.848 12.386C92.8307 12.6633 92.822 13.0013 92.822 13.4V26.4C92.822 26.7813 92.8307 27.1193 92.848 27.414C92.8653 27.6913 92.9173 27.9167 93.004 28.09C93.108 28.2633 93.264 28.3933 93.472 28.48C93.6973 28.5667 94.0007 28.61 94.382 28.61V29H86.972V28.61C87.3707 28.61 87.674 28.5667 87.882 28.48C88.09 28.3933 88.2373 28.2633 88.324 28.09C88.428 27.9167 88.4887 27.6913 88.506 27.414C88.5233 27.1193 88.532 26.7813 88.532 26.4V20.29H82.942V26.4C82.942 26.7813 82.9507 27.1193 82.968 27.414C82.9853 27.6913 83.0373 27.9167 83.124 28.09C83.228 28.2633 83.384 28.3933 83.592 28.48C83.8173 28.5667 84.1207 28.61 84.502 28.61V29H77.092V28.61ZM94.4082 13.218C94.4082 12.6633 94.5208 12.2213 94.7462 11.892C94.9715 11.5627 95.2315 11.3113 95.5262 11.138C95.8208 10.9473 96.1242 10.826 96.4362 10.774C96.7655 10.7047 97.0168 10.67 97.1902 10.67C98.2475 10.67 99.0882 10.8953 99.7122 11.346C100.354 11.7967 100.839 12.3513 101.168 13.01L105.016 20.68L108.968 11.97C109.02 11.866 109.046 11.7707 109.046 11.684C109.046 11.4413 108.856 11.3027 108.474 11.268C108.11 11.216 107.625 11.19 107.018 11.19V10.8H111.958V11.19C111.594 11.19 111.3 11.1987 111.074 11.216C110.849 11.216 110.658 11.242 110.502 11.294C110.364 11.346 110.242 11.424 110.138 11.528C110.052 11.632 109.965 11.7793 109.878 11.97L105.328 21.98V26.4C105.328 26.7813 105.337 27.1193 105.354 27.414C105.372 27.6913 105.424 27.9167 105.51 28.09C105.614 28.2633 105.77 28.3933 105.978 28.48C106.204 28.5667 106.507 28.61 106.888 28.61V29H99.4782V28.61C99.8768 28.61 100.18 28.5667 100.388 28.48C100.596 28.3933 100.744 28.2633 100.83 28.09C100.934 27.9167 100.995 27.6913 101.012 27.414C101.03 27.1193 101.038 26.7813 101.038 26.4V22.24L96.4362 13.01C96.2802 12.698 96.0375 12.542 95.7082 12.542C95.2922 12.542 94.8588 12.7673 94.4082 13.218ZM112.171 29V28.61C112.569 28.61 112.873 28.5667 113.081 28.48C113.289 28.3933 113.436 28.2633 113.523 28.09C113.627 27.9167 113.687 27.6913 113.705 27.414C113.722 27.1193 113.731 26.7813 113.731 26.4V13.4C113.731 13.0013 113.722 12.6633 113.705 12.386C113.687 12.1087 113.627 11.8833 113.523 11.71C113.436 11.5367 113.289 11.4067 113.081 11.32C112.873 11.2333 112.569 11.19 112.171 11.19V10.8H119.191C120.595 10.8 121.782 10.9213 122.753 11.164C123.723 11.4067 124.512 11.736 125.119 12.152C125.725 12.568 126.167 13.0533 126.445 13.608C126.722 14.1453 126.861 14.726 126.861 15.35C126.861 16.0953 126.687 16.728 126.341 17.248C126.011 17.768 125.578 18.184 125.041 18.496C124.503 18.808 123.905 19.0333 123.247 19.172C122.588 19.3107 121.929 19.38 121.271 19.38C121.929 19.38 122.631 19.4667 123.377 19.64C124.139 19.796 124.841 20.0733 125.483 20.472C126.141 20.8533 126.687 21.356 127.121 21.98C127.554 22.5867 127.771 23.3493 127.771 24.268C127.771 24.9267 127.632 25.5507 127.355 26.14C127.077 26.712 126.618 27.2147 125.977 27.648C125.353 28.064 124.521 28.3933 123.481 28.636C122.458 28.8787 121.201 29 119.711 29H112.171ZM119.191 19.12C119.607 19.12 120.014 19.0247 120.413 18.834C120.811 18.6433 121.158 18.3833 121.453 18.054C121.747 17.7073 121.981 17.3 122.155 16.832C122.345 16.364 122.441 15.844 122.441 15.272C122.441 14.7 122.345 14.18 122.155 13.712C121.981 13.244 121.747 12.8453 121.453 12.516C121.158 12.1693 120.811 11.9093 120.413 11.736C120.014 11.5453 119.607 11.45 119.191 11.45H118.021V19.12H119.191ZM119.711 28.35C120.751 28.35 121.617 27.9773 122.311 27.232C123.004 26.4867 123.351 25.4293 123.351 24.06C123.351 22.6907 123.004 21.6333 122.311 20.888C121.617 20.1427 120.751 19.77 119.711 19.77H118.021V28.35H119.711ZM130.749 28.61V29H126.589V28.61C127.005 28.61 127.369 28.5233 127.681 28.35C128.011 28.1767 128.21 28.0033 128.279 27.83L135.351 10.67H136.131L142.891 26.79C142.978 26.998 143.082 27.1453 143.203 27.232C143.342 27.3013 143.481 27.336 143.619 27.336C143.879 27.336 144.148 27.2493 144.425 27.076C144.72 26.8853 144.954 26.7033 145.127 26.53C145.127 26.9113 145.032 27.2667 144.841 27.596C144.651 27.908 144.391 28.1767 144.061 28.402C143.749 28.6273 143.385 28.8093 142.969 28.948C142.553 29.0693 142.111 29.13 141.643 29.13C141.158 29.13 140.733 29.0693 140.369 28.948C140.005 28.8093 139.693 28.6273 139.433 28.402C139.173 28.1767 138.948 27.9253 138.757 27.648C138.584 27.3707 138.437 27.0847 138.315 26.79L136.989 23.67H130.775L129.059 27.83C129.025 27.934 129.007 28.012 129.007 28.064C129.007 28.3067 129.189 28.4627 129.553 28.532C129.917 28.584 130.316 28.61 130.749 28.61ZM131.035 23.02H136.729L133.869 16.182L131.035 23.02ZM151.554 29V28.61C152.074 28.61 152.473 28.5753 152.75 28.506C153.045 28.4193 153.253 28.2807 153.374 28.09C153.513 27.8993 153.591 27.6393 153.608 27.31C153.626 26.9633 153.634 26.53 153.634 26.01V13.296C153.634 13.1053 153.565 12.958 153.426 12.854C153.305 12.75 153.149 12.698 152.958 12.698C152.768 12.698 152.568 12.75 152.36 12.854C152.17 12.958 151.988 13.0967 151.814 13.27C151.814 12.8193 151.927 12.438 152.152 12.126C152.378 11.7967 152.655 11.528 152.984 11.32C153.331 11.0947 153.704 10.93 154.102 10.826C154.518 10.722 154.908 10.67 155.272 10.67C155.74 10.67 156.156 10.748 156.52 10.904C156.884 11.06 157.205 11.268 157.482 11.528C157.777 11.7707 158.028 12.048 158.236 12.36C158.444 12.672 158.626 12.9927 158.782 13.322L164.008 24.086L168.896 13.01C169.052 12.646 169.217 12.334 169.39 12.074C169.564 11.7967 169.78 11.5627 170.04 11.372C170.3 11.1813 170.612 11.0427 170.976 10.956C171.358 10.852 171.817 10.8 172.354 10.8H175.084V11.19C174.703 11.19 174.4 11.2333 174.174 11.32C173.966 11.4067 173.81 11.5367 173.706 11.71C173.62 11.8833 173.568 12.1087 173.55 12.386C173.533 12.6633 173.524 13.0013 173.524 13.4V26.4C173.524 26.7813 173.533 27.1193 173.55 27.414C173.568 27.6913 173.62 27.9167 173.706 28.09C173.81 28.2633 173.966 28.3933 174.174 28.48C174.4 28.5667 174.703 28.61 175.084 28.61V29H167.674V28.61C168.073 28.61 168.376 28.5667 168.584 28.48C168.792 28.3933 168.94 28.2633 169.026 28.09C169.13 27.9167 169.191 27.6913 169.208 27.414C169.226 27.1193 169.234 26.7813 169.234 26.4V14.05L162.578 29.13H161.798L154.414 14.05V26.01C154.414 26.53 154.423 26.9633 154.44 27.31C154.475 27.6393 154.553 27.8993 154.674 28.09C154.813 28.2807 155.021 28.4193 155.298 28.506C155.576 28.5753 155.974 28.61 156.494 28.61V29H151.554ZM178.797 28.61V29H174.637V28.61C175.053 28.61 175.417 28.5233 175.729 28.35C176.058 28.1767 176.258 28.0033 176.327 27.83L183.399 10.67H184.179L190.939 26.79C191.026 26.998 191.13 27.1453 191.251 27.232C191.39 27.3013 191.528 27.336 191.667 27.336C191.927 27.336 192.196 27.2493 192.473 27.076C192.768 26.8853 193.002 26.7033 193.175 26.53C193.175 26.9113 193.08 27.2667 192.889 27.596C192.698 27.908 192.438 28.1767 192.109 28.402C191.797 28.6273 191.433 28.8093 191.017 28.948C190.601 29.0693 190.159 29.13 189.691 29.13C189.206 29.13 188.781 29.0693 188.417 28.948C188.053 28.8093 187.741 28.6273 187.481 28.402C187.221 28.1767 186.996 27.9253 186.805 27.648C186.632 27.3707 186.484 27.0847 186.363 26.79L185.037 23.67H178.823L177.107 27.83C177.072 27.934 177.055 28.012 177.055 28.064C177.055 28.3067 177.237 28.4627 177.601 28.532C177.965 28.584 178.364 28.61 178.797 28.61ZM179.083 23.02H184.777L181.917 16.182L179.083 23.02ZM193.85 10.8H201.13C202.257 10.8 203.271 10.904 204.172 11.112C205.091 11.32 205.871 11.6147 206.512 11.996C207.154 12.3773 207.639 12.8453 207.968 13.4C208.315 13.9547 208.488 14.5873 208.488 15.298C208.488 16.442 208.055 17.3867 207.188 18.132C206.322 18.86 205.108 19.3453 203.548 19.588C203.999 19.796 204.363 20.0993 204.64 20.498C204.918 20.8793 205.256 21.3993 205.654 22.058C206.088 22.8033 206.495 23.488 206.876 24.112C207.258 24.7187 207.613 25.2473 207.942 25.698C208.289 26.1313 208.601 26.4693 208.878 26.712C209.173 26.9547 209.45 27.076 209.71 27.076C209.988 27.076 210.308 26.894 210.672 26.53C210.672 27.0673 210.551 27.518 210.308 27.882C210.083 28.246 209.788 28.5407 209.424 28.766C209.078 28.9913 208.705 29.1473 208.306 29.234C207.908 29.338 207.535 29.39 207.188 29.39C206.582 29.39 206.036 29.2513 205.55 28.974C205.065 28.6793 204.606 28.2547 204.172 27.7C203.739 27.128 203.314 26.426 202.898 25.594C202.482 24.7447 202.04 23.774 201.572 22.682C201.278 21.9887 201.018 21.4167 200.792 20.966C200.567 20.498 200.342 20.0993 200.116 19.77H199.7V26.4C199.7 26.7813 199.709 27.1193 199.726 27.414C199.744 27.6913 199.796 27.9167 199.882 28.09C199.986 28.2633 200.142 28.3933 200.35 28.48C200.576 28.5667 200.879 28.61 201.26 28.61V29H193.85V28.61C194.249 28.61 194.552 28.5667 194.76 28.48C194.968 28.3933 195.116 28.2633 195.202 28.09C195.306 27.9167 195.367 27.6913 195.384 27.414C195.402 27.1193 195.41 26.7813 195.41 26.4V13.4C195.41 13.0013 195.402 12.6633 195.384 12.386C195.367 12.1087 195.306 11.8833 195.202 11.71C195.116 11.5367 194.968 11.4067 194.76 11.32C194.552 11.2333 194.249 11.19 193.85 11.19V10.8ZM201.13 19.12C201.338 19.12 201.607 19.0507 201.936 18.912C202.283 18.756 202.612 18.5307 202.924 18.236C203.236 17.924 203.505 17.5253 203.73 17.04C203.956 16.5547 204.068 15.974 204.068 15.298C204.068 14.622 203.956 14.0413 203.73 13.556C203.505 13.0707 203.236 12.672 202.924 12.36C202.612 12.048 202.283 11.8227 201.936 11.684C201.607 11.528 201.338 11.45 201.13 11.45H199.7V19.12H201.13ZM209.813 10.8H225.023V14.96H224.243C224.243 14.544 224.234 14.128 224.217 13.712C224.2 13.2787 224.139 12.8973 224.035 12.568C223.931 12.2387 223.758 11.97 223.515 11.762C223.29 11.554 222.969 11.45 222.553 11.45H219.563V26.4C219.563 26.7813 219.572 27.1193 219.589 27.414C219.606 27.6913 219.658 27.9167 219.745 28.09C219.849 28.2633 220.005 28.3933 220.213 28.48C220.438 28.5667 220.742 28.61 221.123 28.61V29H213.713V28.61C214.112 28.61 214.415 28.5667 214.623 28.48C214.831 28.3933 214.978 28.2633 215.065 28.09C215.169 27.9167 215.23 27.6913 215.247 27.414C215.264 27.1193 215.273 26.7813 215.273 26.4V11.45H212.283C211.867 11.45 211.538 11.554 211.295 11.762C211.07 11.97 210.905 12.2387 210.801 12.568C210.697 12.8973 210.636 13.2787 210.619 13.712C210.602 14.128 210.593 14.544 210.593 14.96H209.813V10.8Z" fill="#252F40"/>
<path d="M77.7 35.65C77.4467 35.7367 77.2367 35.88 77.07 36.08C76.91 36.2733 76.8033 36.4967 76.75 36.75C76.8233 36.7033 76.89 36.6667 76.95 36.64C77.0167 36.6133 77.0933 36.6 77.18 36.6C77.3933 36.6 77.5733 36.6733 77.72 36.82C77.8733 36.9667 77.95 37.14 77.95 37.34C77.95 37.44 77.93 37.5367 77.89 37.63C77.85 37.7233 77.7933 37.8067 77.72 37.88C77.6533 37.9467 77.57 38 77.47 38.04C77.3767 38.08 77.2767 38.1 77.17 38.1C76.9567 38.1 76.7733 38.0167 76.62 37.85C76.4733 37.6833 76.4 37.4333 76.4 37.1C76.4 36.92 76.4267 36.7433 76.48 36.57C76.5333 36.3967 76.61 36.2367 76.71 36.09C76.81 35.9367 76.9333 35.8 77.08 35.68C77.2333 35.56 77.4067 35.4667 77.6 35.4L77.7 35.65ZM79.7 35.65C79.4467 35.7367 79.2367 35.88 79.07 36.08C78.91 36.2733 78.8033 36.4967 78.75 36.75C78.8233 36.7033 78.89 36.6667 78.95 36.64C79.0167 36.6133 79.0933 36.6 79.18 36.6C79.3933 36.6 79.5733 36.6733 79.72 36.82C79.8733 36.9667 79.95 37.14 79.95 37.34C79.95 37.44 79.93 37.5367 79.89 37.63C79.85 37.7233 79.7933 37.8067 79.72 37.88C79.6533 37.9467 79.57 38 79.47 38.04C79.3767 38.08 79.2767 38.1 79.17 38.1C78.9567 38.1 78.7733 38.0167 78.62 37.85C78.4733 37.6833 78.4 37.4333 78.4 37.1C78.4 36.92 78.4267 36.7433 78.48 36.57C78.5333 36.3967 78.61 36.2367 78.71 36.09C78.81 35.9367 78.9333 35.8 79.08 35.68C79.2333 35.56 79.4067 35.4667 79.6 35.4L79.7 35.65ZM80.7852 42.85C80.9386 42.85 81.0552 42.8333 81.1352 42.8C81.2152 42.7667 81.2719 42.7167 81.3052 42.65C81.3452 42.5833 81.3686 42.4967 81.3752 42.39C81.3819 42.2767 81.3852 42.1467 81.3852 42V37C81.3852 36.8467 81.3819 36.7167 81.3752 36.61C81.3686 36.5033 81.3452 36.4167 81.3052 36.35C81.2719 36.2833 81.2152 36.2333 81.1352 36.2C81.0552 36.1667 80.9386 36.15 80.7852 36.15V36H86.1352V37.6H85.8352C85.8352 37.44 85.8319 37.28 85.8252 37.12C85.8186 36.9533 85.7952 36.8067 85.7552 36.68C85.7152 36.5533 85.6486 36.45 85.5552 36.37C85.4686 36.29 85.3452 36.25 85.1852 36.25H83.0352V39.4H84.1852C84.2986 39.4 84.3852 39.37 84.4452 39.31C84.5052 39.2433 84.5486 39.1633 84.5752 39.07C84.6086 38.97 84.6252 38.8633 84.6252 38.75C84.6319 38.63 84.6352 38.5133 84.6352 38.4H84.9352V40.65H84.6352C84.6352 40.5367 84.6319 40.4233 84.6252 40.31C84.6252 40.19 84.6086 40.0833 84.5752 39.99C84.5486 39.89 84.5052 39.81 84.4452 39.75C84.3852 39.6833 84.2986 39.65 84.1852 39.65H83.0352V42.75H85.3852C85.5452 42.75 85.6686 42.71 85.7552 42.63C85.8486 42.55 85.9152 42.4467 85.9552 42.32C85.9952 42.1933 86.0186 42.05 86.0252 41.89C86.0319 41.7233 86.0352 41.56 86.0352 41.4H86.3352V43H80.7852V42.85ZM86.8752 38.96C86.8752 38.8333 86.9086 38.71 86.9752 38.59C87.0486 38.47 87.1419 38.3633 87.2552 38.27C87.3752 38.17 87.5119 38.0933 87.6652 38.04C87.8252 37.98 87.9919 37.95 88.1652 37.95C88.3986 37.95 88.6186 38.0033 88.8252 38.11C89.0319 38.2167 89.1752 38.3767 89.2552 38.59C89.5819 38.0967 90.0719 37.85 90.7252 37.85C90.9119 37.85 91.0952 37.87 91.2752 37.91C91.4619 37.9433 91.6319 37.9967 91.7852 38.07C91.9452 38.1367 92.0819 38.22 92.1952 38.32C92.3152 38.4133 92.4052 38.5167 92.4652 38.63C92.6386 38.3633 92.8486 38.1667 93.0952 38.04C93.3419 37.9133 93.6152 37.85 93.9152 37.85C94.1886 37.85 94.4419 37.8967 94.6752 37.99C94.9086 38.0833 95.1086 38.2067 95.2752 38.36C95.4486 38.5133 95.5819 38.69 95.6752 38.89C95.7752 39.0833 95.8252 39.2867 95.8252 39.5V42C95.8252 42.1267 95.8486 42.2233 95.8952 42.29C95.9486 42.3567 96.0119 42.39 96.0852 42.39C96.1586 42.39 96.2486 42.36 96.3552 42.3C96.4619 42.2333 96.5686 42.1467 96.6752 42.04C96.6752 42.1667 96.6386 42.29 96.5652 42.41C96.4986 42.53 96.4086 42.64 96.2952 42.74C96.1819 42.8333 96.0486 42.91 95.8952 42.97C95.7419 43.0233 95.5786 43.05 95.4052 43.05C95.2586 43.05 95.1119 43.0267 94.9652 42.98C94.8252 42.9333 94.6986 42.8667 94.5852 42.78C94.4786 42.6867 94.3919 42.5767 94.3252 42.45C94.2586 42.3167 94.2252 42.1667 94.2252 42V39.5C94.2252 39.2733 94.2019 39.08 94.1552 38.92C94.1086 38.7533 94.0486 38.6167 93.9752 38.51C93.9019 38.4033 93.8152 38.3267 93.7152 38.28C93.6219 38.2267 93.5286 38.2 93.4352 38.2C93.3286 38.2 93.2286 38.2267 93.1352 38.28C93.0486 38.3267 92.9686 38.39 92.8952 38.47C92.8286 38.55 92.7652 38.6367 92.7052 38.73C92.6519 38.8233 92.6086 38.9133 92.5752 39V42C92.5752 42.1467 92.5786 42.2767 92.5852 42.39C92.5919 42.4967 92.6119 42.5833 92.6452 42.65C92.6852 42.7167 92.7452 42.7667 92.8252 42.8C92.9119 42.8333 93.0286 42.85 93.1752 42.85V43H90.3752V42.85C90.5286 42.85 90.6452 42.8333 90.7252 42.8C90.8052 42.7667 90.8619 42.7167 90.8952 42.65C90.9352 42.5833 90.9586 42.4967 90.9652 42.39C90.9719 42.2767 90.9752 42.1467 90.9752 42V39.5C90.9752 39.2733 90.9519 39.08 90.9052 38.92C90.8586 38.7533 90.7986 38.6167 90.7252 38.51C90.6519 38.4033 90.5686 38.3267 90.4752 38.28C90.3819 38.2267 90.2886 38.2 90.1952 38.2C90.0886 38.2 89.9886 38.2267 89.8952 38.28C89.8086 38.3267 89.7286 38.39 89.6552 38.47C89.5819 38.55 89.5152 38.6367 89.4552 38.73C89.4019 38.8233 89.3586 38.9167 89.3252 39.01V42C89.3252 42.1467 89.3286 42.2767 89.3352 42.39C89.3419 42.4967 89.3619 42.5833 89.3952 42.65C89.4352 42.7167 89.4952 42.7667 89.5752 42.8C89.6619 42.8333 89.7786 42.85 89.9252 42.85V43H87.1252V42.85C87.2786 42.85 87.3952 42.8333 87.4752 42.8C87.5552 42.7667 87.6119 42.7167 87.6452 42.65C87.6852 42.5833 87.7086 42.4967 87.7152 42.39C87.7219 42.2767 87.7252 42.1467 87.7252 42V38.95C87.7252 38.8233 87.7019 38.7367 87.6552 38.69C87.6086 38.6367 87.5519 38.61 87.4852 38.61C87.3986 38.61 87.3019 38.6433 87.1952 38.71C87.0886 38.77 86.9819 38.8533 86.8752 38.96ZM97.0031 38.96C97.0031 38.8333 97.0365 38.71 97.1031 38.59C97.1698 38.47 97.2565 38.3633 97.3631 38.27C97.4765 38.17 97.6031 38.0933 97.7431 38.04C97.8831 37.98 98.0265 37.95 98.1731 37.95C98.3131 37.95 98.4431 37.9767 98.5631 38.03C98.6831 38.0833 98.7898 38.15 98.8831 38.23C98.9765 38.31 99.0565 38.3967 99.1231 38.49C99.1898 38.5833 99.2365 38.67 99.2631 38.75C99.2698 38.7567 99.2731 38.7633 99.2731 38.77C99.2731 38.7767 99.2765 38.7833 99.2831 38.79C99.4298 38.49 99.6298 38.26 99.8831 38.1C100.143 37.9333 100.443 37.85 100.783 37.85C101.056 37.85 101.316 37.9067 101.563 38.02C101.81 38.1333 102.023 38.3033 102.203 38.53C102.39 38.7567 102.536 39.0367 102.643 39.37C102.75 39.6967 102.803 40.08 102.803 40.52C102.803 40.9533 102.75 41.3333 102.643 41.66C102.536 41.9867 102.386 42.26 102.193 42.48C102.006 42.7 101.78 42.8667 101.513 42.98C101.253 43.0933 100.966 43.15 100.653 43.15C100.453 43.15 100.28 43.13 100.133 43.09C99.9865 43.05 99.8631 43.0033 99.7631 42.95C99.7098 42.9233 99.6565 42.8933 99.6031 42.86C99.5565 42.8267 99.5065 42.79 99.4531 42.75V44C99.4531 44.1533 99.4565 44.2833 99.4631 44.39C99.4698 44.4967 99.4898 44.5833 99.5231 44.65C99.5631 44.7167 99.6231 44.7667 99.7031 44.8C99.7898 44.8333 99.9065 44.85 100.053 44.85V45H97.2531V44.85C97.4065 44.85 97.5231 44.8333 97.6031 44.8C97.6831 44.7667 97.7398 44.7167 97.7731 44.65C97.8131 44.5833 97.8365 44.4967 97.8431 44.39C97.8498 44.2833 97.8531 44.1533 97.8531 44V39C97.8531 38.8733 97.8265 38.7767 97.7731 38.71C97.7265 38.6433 97.6665 38.61 97.5931 38.61C97.5198 38.61 97.4298 38.6433 97.3231 38.71C97.2165 38.77 97.1098 38.8533 97.0031 38.96ZM99.4531 42.42C99.5598 42.52 99.6765 42.6133 99.8031 42.7C99.9298 42.7867 100.08 42.83 100.253 42.83C100.366 42.83 100.473 42.8 100.573 42.74C100.68 42.68 100.77 42.5667 100.843 42.4C100.923 42.2333 100.986 42.0033 101.033 41.71C101.08 41.41 101.103 41.02 101.103 40.54C101.103 40.0533 101.08 39.66 101.033 39.36C100.986 39.0533 100.926 38.8167 100.853 38.65C100.78 38.4767 100.696 38.36 100.603 38.3C100.51 38.24 100.413 38.21 100.313 38.21C100.206 38.21 100.11 38.2367 100.023 38.29C99.9365 38.3367 99.8565 38.4 99.7831 38.48C99.7165 38.5533 99.6531 38.6367 99.5931 38.73C99.5398 38.8233 99.4931 38.9167 99.4531 39.01V42.42ZM106.541 37.85C106.954 37.85 107.324 37.91 107.651 38.03C107.984 38.15 108.264 38.3267 108.491 38.56C108.724 38.7867 108.901 39.0633 109.021 39.39C109.147 39.7167 109.211 40.0867 109.211 40.5C109.211 40.9133 109.147 41.2833 109.021 41.61C108.901 41.9367 108.724 42.2167 108.491 42.45C108.264 42.6767 107.984 42.85 107.651 42.97C107.324 43.09 106.954 43.15 106.541 43.15C106.127 43.15 105.754 43.09 105.421 42.97C105.094 42.85 104.814 42.6767 104.581 42.45C104.354 42.2167 104.177 41.9367 104.051 41.61C103.931 41.2833 103.871 40.9133 103.871 40.5C103.871 40.0867 103.931 39.7167 104.051 39.39C104.177 39.0633 104.354 38.7867 104.581 38.56C104.814 38.3267 105.094 38.15 105.421 38.03C105.754 37.91 106.127 37.85 106.541 37.85ZM106.541 42.9C106.654 42.9 106.767 42.8667 106.881 42.8C106.994 42.7333 107.097 42.61 107.191 42.43C107.284 42.25 107.361 42.0067 107.421 41.7C107.481 41.3867 107.511 40.9867 107.511 40.5C107.511 40.0133 107.481 39.6167 107.421 39.31C107.361 38.9967 107.284 38.75 107.191 38.57C107.097 38.39 106.994 38.2667 106.881 38.2C106.767 38.1333 106.654 38.1 106.541 38.1C106.427 38.1 106.314 38.1333 106.201 38.2C106.087 38.2667 105.984 38.39 105.891 38.57C105.797 38.75 105.721 38.9967 105.661 39.31C105.601 39.6167 105.571 40.0133 105.571 40.5C105.571 40.9867 105.601 41.3867 105.661 41.7C105.721 42.0067 105.797 42.25 105.891 42.43C105.984 42.61 106.087 42.7333 106.201 42.8C106.314 42.8667 106.427 42.9 106.541 42.9ZM110.934 37.95C111.221 37.95 111.468 38.02 111.674 38.16C111.881 38.3 112.044 38.53 112.164 38.85L113.014 41.15L113.704 39.66L113.454 39.02C113.401 38.8867 113.334 38.79 113.254 38.73C113.181 38.67 113.104 38.64 113.024 38.64C112.944 38.64 112.858 38.67 112.764 38.73C112.678 38.7833 112.588 38.8567 112.494 38.95C112.494 38.81 112.531 38.68 112.604 38.56C112.678 38.4333 112.778 38.3267 112.904 38.24C113.031 38.1467 113.174 38.0767 113.334 38.03C113.501 37.9767 113.678 37.95 113.864 37.95C114.151 37.95 114.398 38.02 114.604 38.16C114.811 38.3 114.974 38.53 115.094 38.85L115.964 41.15L117.214 38.49C117.241 38.43 117.254 38.3767 117.254 38.33C117.254 38.29 117.234 38.2567 117.194 38.23C117.154 38.2033 117.104 38.1867 117.044 38.18C116.991 38.1667 116.931 38.16 116.864 38.16C116.804 38.1533 116.748 38.15 116.694 38.15H116.614V38H118.214V38.15C117.988 38.15 117.831 38.1733 117.744 38.22C117.664 38.26 117.591 38.35 117.524 38.49L115.384 43.05H115.134L113.854 40L112.454 43.05H112.204L110.524 39.02C110.471 38.8867 110.404 38.79 110.324 38.73C110.251 38.67 110.174 38.64 110.094 38.64C110.014 38.64 109.928 38.67 109.834 38.73C109.748 38.7833 109.658 38.8567 109.564 38.95C109.564 38.81 109.601 38.68 109.674 38.56C109.748 38.4333 109.848 38.3267 109.974 38.24C110.101 38.1467 110.244 38.0767 110.404 38.03C110.571 37.9767 110.748 37.95 110.934 37.95ZM120.879 43.15C120.433 43.15 120.033 43.0833 119.679 42.95C119.333 42.8167 119.039 42.63 118.799 42.39C118.559 42.15 118.376 41.8633 118.249 41.53C118.129 41.1967 118.069 40.83 118.069 40.43C118.069 40.03 118.129 39.6733 118.249 39.36C118.369 39.04 118.546 38.77 118.779 38.55C119.019 38.3233 119.309 38.15 119.649 38.03C119.996 37.91 120.389 37.85 120.829 37.85C121.023 37.85 121.243 37.8767 121.489 37.93C121.736 37.9767 121.969 38.0567 122.189 38.17C122.409 38.2833 122.593 38.4333 122.739 38.62C122.893 38.8067 122.969 39.0367 122.969 39.31C122.969 39.5367 122.913 39.7333 122.799 39.9C122.693 40.06 122.549 40.1933 122.369 40.3C122.189 40.4067 121.986 40.49 121.759 40.55C121.533 40.61 121.299 40.6567 121.059 40.69C120.826 40.7167 120.596 40.7333 120.369 40.74C120.143 40.7467 119.943 40.75 119.769 40.75C119.776 41.19 119.796 41.55 119.829 41.83C119.869 42.1033 119.929 42.3167 120.009 42.47C120.089 42.6167 120.196 42.7167 120.329 42.77C120.463 42.8233 120.623 42.85 120.809 42.85C121.156 42.85 121.513 42.7833 121.879 42.65C122.253 42.5167 122.573 42.3167 122.839 42.05C122.839 42.1767 122.796 42.3067 122.709 42.44C122.629 42.5667 122.506 42.6833 122.339 42.79C122.179 42.8967 121.976 42.9833 121.729 43.05C121.489 43.1167 121.206 43.15 120.879 43.15ZM119.769 40.5C119.969 40.4867 120.163 40.4667 120.349 40.44C120.536 40.4067 120.699 40.3467 120.839 40.26C120.986 40.1733 121.103 40.05 121.189 39.89C121.276 39.73 121.319 39.5167 121.319 39.25C121.319 39.11 121.306 38.97 121.279 38.83C121.253 38.69 121.209 38.5667 121.149 38.46C121.096 38.3533 121.026 38.2667 120.939 38.2C120.853 38.1333 120.749 38.1 120.629 38.1C120.509 38.1 120.396 38.14 120.289 38.22C120.189 38.2933 120.099 38.4233 120.019 38.61C119.946 38.7967 119.886 39.0433 119.839 39.35C119.793 39.6567 119.769 40.04 119.769 40.5ZM124.272 38.61C124.186 38.61 124.089 38.6433 123.982 38.71C123.876 38.77 123.769 38.8533 123.662 38.96C123.662 38.8333 123.696 38.71 123.762 38.59C123.836 38.47 123.929 38.3633 124.042 38.27C124.162 38.17 124.299 38.0933 124.452 38.04C124.612 37.98 124.779 37.95 124.952 37.95C125.192 37.95 125.419 38.01 125.632 38.13C125.852 38.25 125.999 38.4267 126.072 38.66C126.246 38.44 126.452 38.27 126.692 38.15C126.932 38.0233 127.186 37.96 127.452 37.96C127.619 37.96 127.772 37.9867 127.912 38.04C128.059 38.0867 128.186 38.1533 128.292 38.24C128.399 38.3267 128.482 38.43 128.542 38.55C128.602 38.6633 128.632 38.7867 128.632 38.92C128.632 39.14 128.556 39.3233 128.402 39.47C128.249 39.6167 128.056 39.69 127.822 39.69C127.689 39.69 127.576 39.6667 127.482 39.62C127.396 39.5667 127.322 39.5033 127.262 39.43C127.209 39.35 127.169 39.26 127.142 39.16C127.122 39.06 127.112 38.96 127.112 38.86C127.112 38.7267 127.129 38.6 127.162 38.48C127.196 38.3533 127.232 38.2633 127.272 38.21C127.179 38.21 127.076 38.2367 126.962 38.29C126.856 38.3433 126.746 38.4133 126.632 38.5C126.526 38.5867 126.426 38.6833 126.332 38.79C126.239 38.89 126.166 38.99 126.112 39.09V42C126.112 42.1467 126.116 42.2767 126.122 42.39C126.129 42.4967 126.149 42.5833 126.182 42.65C126.222 42.7167 126.282 42.7667 126.362 42.8C126.449 42.8333 126.566 42.85 126.712 42.85V43H123.912V42.85C124.066 42.85 124.182 42.8333 124.262 42.8C124.342 42.7667 124.399 42.7167 124.432 42.65C124.472 42.5833 124.496 42.4967 124.502 42.39C124.509 42.2767 124.512 42.1467 124.512 42V38.95C124.512 38.8233 124.489 38.7367 124.442 38.69C124.396 38.6367 124.339 38.61 124.272 38.61ZM130.185 36.8C130.185 36.6867 130.208 36.58 130.255 36.48C130.301 36.3733 130.361 36.2833 130.435 36.21C130.515 36.13 130.605 36.0667 130.705 36.02C130.811 35.9733 130.921 35.95 131.035 35.95C131.148 35.95 131.255 35.9733 131.355 36.02C131.461 36.0667 131.551 36.13 131.625 36.21C131.705 36.2833 131.768 36.3733 131.815 36.48C131.861 36.58 131.885 36.6867 131.885 36.8C131.885 36.9133 131.861 37.0233 131.815 37.13C131.768 37.23 131.705 37.32 131.625 37.4C131.551 37.4733 131.461 37.5333 131.355 37.58C131.255 37.6267 131.148 37.65 131.035 37.65C130.921 37.65 130.811 37.6267 130.705 37.58C130.605 37.5333 130.515 37.4733 130.435 37.4C130.361 37.32 130.301 37.23 130.255 37.13C130.208 37.0233 130.185 36.9133 130.185 36.8ZM129.995 38.61C129.908 38.61 129.811 38.6433 129.705 38.71C129.598 38.77 129.491 38.8533 129.385 38.96C129.385 38.8333 129.418 38.71 129.485 38.59C129.558 38.47 129.651 38.3633 129.765 38.27C129.885 38.17 130.021 38.0933 130.175 38.04C130.335 37.98 130.501 37.95 130.675 37.95C130.815 37.95 130.955 37.97 131.095 38.01C131.235 38.05 131.358 38.1133 131.465 38.2C131.578 38.28 131.668 38.3833 131.735 38.51C131.801 38.6367 131.835 38.7833 131.835 38.95V42C131.835 42.1467 131.838 42.2767 131.845 42.39C131.851 42.4967 131.871 42.5833 131.905 42.65C131.945 42.7167 132.005 42.7667 132.085 42.8C132.171 42.8333 132.288 42.85 132.435 42.85V43H129.635V42.85C129.788 42.85 129.905 42.8333 129.985 42.8C130.065 42.7667 130.121 42.7167 130.155 42.65C130.195 42.5833 130.218 42.4967 130.225 42.39C130.231 42.2767 130.235 42.1467 130.235 42V38.95C130.235 38.8233 130.211 38.7367 130.165 38.69C130.118 38.6367 130.061 38.61 129.995 38.61ZM133.393 38.61C133.307 38.61 133.21 38.6433 133.103 38.71C132.997 38.77 132.89 38.8533 132.783 38.96C132.783 38.8333 132.817 38.71 132.883 38.59C132.957 38.47 133.05 38.3633 133.163 38.27C133.283 38.17 133.42 38.0933 133.573 38.04C133.733 37.98 133.9 37.95 134.073 37.95C134.307 37.95 134.527 38.0033 134.733 38.11C134.94 38.2167 135.083 38.3767 135.163 38.59C135.33 38.3367 135.533 38.15 135.773 38.03C136.013 37.91 136.283 37.85 136.583 37.85C136.857 37.85 137.11 37.8967 137.343 37.99C137.577 38.0833 137.777 38.2067 137.943 38.36C138.117 38.5133 138.25 38.69 138.343 38.89C138.437 39.0833 138.483 39.2867 138.483 39.5V42C138.483 42.1267 138.507 42.2233 138.553 42.29C138.607 42.3567 138.67 42.39 138.743 42.39C138.817 42.39 138.907 42.36 139.013 42.3C139.12 42.2333 139.227 42.1467 139.333 42.04C139.333 42.1667 139.297 42.29 139.223 42.41C139.157 42.53 139.067 42.64 138.953 42.74C138.84 42.8333 138.707 42.91 138.553 42.97C138.4 43.0233 138.237 43.05 138.063 43.05C137.917 43.05 137.77 43.0267 137.623 42.98C137.483 42.9333 137.357 42.8667 137.243 42.78C137.137 42.6867 137.05 42.5767 136.983 42.45C136.917 42.3167 136.883 42.1667 136.883 42V39.5C136.883 39.2733 136.86 39.08 136.813 38.92C136.767 38.7533 136.707 38.6167 136.633 38.51C136.56 38.4033 136.477 38.3267 136.383 38.28C136.29 38.2267 136.197 38.2 136.103 38.2C135.997 38.2 135.897 38.2267 135.803 38.28C135.717 38.3267 135.637 38.39 135.563 38.47C135.49 38.55 135.423 38.6367 135.363 38.73C135.31 38.8233 135.267 38.9167 135.233 39.01V42C135.233 42.1467 135.237 42.2767 135.243 42.39C135.25 42.4967 135.27 42.5833 135.303 42.65C135.343 42.7167 135.403 42.7667 135.483 42.8C135.57 42.8333 135.687 42.85 135.833 42.85V43H133.033V42.85C133.187 42.85 133.303 42.8333 133.383 42.8C133.463 42.7667 133.52 42.7167 133.553 42.65C133.593 42.5833 133.617 42.4967 133.623 42.39C133.63 42.2767 133.633 42.1467 133.633 42V38.95C133.633 38.8233 133.61 38.7367 133.563 38.69C133.517 38.6367 133.46 38.61 133.393 38.61ZM139.73 44C139.73 43.8 139.79 43.63 139.91 43.49C140.037 43.35 140.207 43.28 140.42 43.28C140.633 43.28 140.807 43.3533 140.94 43.5C141.08 43.6467 141.15 43.8367 141.15 44.07C141.15 44.19 141.127 44.2967 141.08 44.39C141.033 44.49 140.953 44.6033 140.84 44.73C140.993 44.79 141.153 44.83 141.32 44.85C141.493 44.8767 141.697 44.89 141.93 44.89C142.41 44.89 142.817 44.85 143.15 44.77C143.49 44.6967 143.767 44.6 143.98 44.48C144.193 44.3667 144.35 44.24 144.45 44.1C144.55 43.9667 144.6 43.84 144.6 43.72C144.6 43.5533 144.5 43.4167 144.3 43.31C144.107 43.2033 143.78 43.15 143.32 43.15H141.4C141.14 43.15 140.91 43.1167 140.71 43.05C140.517 42.99 140.357 42.9067 140.23 42.8C140.103 42.6933 140.007 42.5733 139.94 42.44C139.88 42.3 139.85 42.1567 139.85 42.01C139.85 41.8633 139.877 41.7333 139.93 41.62C139.983 41.5 140.053 41.3967 140.14 41.31C140.233 41.2167 140.337 41.1367 140.45 41.07C140.563 41.0033 140.68 40.9467 140.8 40.9C140.547 40.7467 140.367 40.5633 140.26 40.35C140.153 40.1367 140.1 39.9033 140.1 39.65C140.1 39.15 140.28 38.7433 140.64 38.43C141.007 38.11 141.557 37.95 142.29 37.95C142.63 37.95 142.933 37.9833 143.2 38.05C143.473 38.1167 143.687 38.2 143.84 38.3C143.873 38.18 143.92 38.0567 143.98 37.93C144.047 37.8033 144.127 37.69 144.22 37.59C144.313 37.49 144.42 37.41 144.54 37.35C144.667 37.2833 144.803 37.25 144.95 37.25C145.103 37.25 145.247 37.2933 145.38 37.38C145.52 37.4667 145.59 37.6167 145.59 37.83C145.59 37.9433 145.563 38.0433 145.51 38.13C145.457 38.21 145.37 38.25 145.25 38.25C145.137 38.25 145.043 38.2133 144.97 38.14C144.903 38.06 144.87 37.9533 144.87 37.82C144.87 37.74 144.88 37.6767 144.9 37.63C144.92 37.5767 144.94 37.5333 144.96 37.5C144.88 37.5067 144.797 37.5233 144.71 37.55C144.63 37.5767 144.55 37.6267 144.47 37.7C144.397 37.7667 144.323 37.86 144.25 37.98C144.177 38.1 144.11 38.2567 144.05 38.45C144.223 38.6033 144.347 38.7767 144.42 38.97C144.5 39.1633 144.54 39.3667 144.54 39.58C144.54 40.0667 144.353 40.4667 143.98 40.78C143.607 41.0933 143.033 41.25 142.26 41.25C142.033 41.25 141.82 41.2333 141.62 41.2C141.427 41.1667 141.243 41.1133 141.07 41.04C140.977 41.0733 140.873 41.12 140.76 41.18C140.653 41.24 140.6 41.3167 140.6 41.41C140.6 41.4433 140.61 41.48 140.63 41.52C140.657 41.56 140.7 41.5967 140.76 41.63C140.82 41.6633 140.9 41.6933 141 41.72C141.107 41.74 141.24 41.75 141.4 41.75H143.32C143.82 41.75 144.223 41.88 144.53 42.14C144.843 42.4 145 42.7667 145 43.24C145 43.52 144.94 43.7767 144.82 44.01C144.7 44.2433 144.52 44.4433 144.28 44.61C144.04 44.7833 143.74 44.9167 143.38 45.01C143.027 45.1033 142.61 45.15 142.13 45.15C141.917 45.15 141.67 45.1367 141.39 45.11C141.117 45.0833 140.857 45.0267 140.61 44.94C140.363 44.86 140.153 44.7433 139.98 44.59C139.813 44.4433 139.73 44.2467 139.73 44ZM141.6 39.6C141.6 39.8867 141.617 40.1233 141.65 40.31C141.69 40.49 141.743 40.6333 141.81 40.74C141.877 40.84 141.953 40.91 142.04 40.95C142.127 40.9833 142.22 41 142.32 41C142.42 41 142.513 40.9833 142.6 40.95C142.687 40.91 142.763 40.84 142.83 40.74C142.897 40.6333 142.947 40.49 142.98 40.31C143.02 40.1233 143.04 39.8867 143.04 39.6C143.04 39.3133 143.02 39.08 142.98 38.9C142.947 38.7133 142.897 38.57 142.83 38.47C142.763 38.3633 142.687 38.2933 142.6 38.26C142.513 38.22 142.42 38.2 142.32 38.2C142.22 38.2 142.127 38.22 142.04 38.26C141.953 38.2933 141.877 38.3633 141.81 38.47C141.743 38.57 141.69 38.7133 141.65 38.9C141.617 39.08 141.6 39.3133 141.6 39.6ZM148.776 36.93C148.776 36.7167 148.819 36.5467 148.906 36.42C148.992 36.2933 149.092 36.1967 149.206 36.13C149.319 36.0567 149.436 36.01 149.556 35.99C149.682 35.9633 149.779 35.95 149.846 35.95C150.252 35.95 150.576 36.0367 150.816 36.21C151.062 36.3833 151.249 36.5967 151.376 36.85L152.856 39.8L154.376 36.45C154.396 36.41 154.406 36.3733 154.406 36.34C154.406 36.2467 154.332 36.1933 154.186 36.18C154.046 36.16 153.859 36.15 153.626 36.15V36H155.526V36.15C155.386 36.15 155.272 36.1533 155.186 36.16C155.099 36.16 155.026 36.17 154.966 36.19C154.912 36.21 154.866 36.24 154.826 36.28C154.792 36.32 154.759 36.3767 154.726 36.45L152.976 40.3V42C152.976 42.1467 152.979 42.2767 152.986 42.39C152.992 42.4967 153.012 42.5833 153.046 42.65C153.086 42.7167 153.146 42.7667 153.226 42.8C153.312 42.8333 153.429 42.85 153.576 42.85V43H150.726V42.85C150.879 42.85 150.996 42.8333 151.076 42.8C151.156 42.7667 151.212 42.7167 151.246 42.65C151.286 42.5833 151.309 42.4967 151.316 42.39C151.322 42.2767 151.326 42.1467 151.326 42V40.4L149.556 36.85C149.496 36.73 149.402 36.67 149.276 36.67C149.116 36.67 148.949 36.7567 148.776 36.93ZM157.146 37.85C157.56 37.85 157.93 37.91 158.256 38.03C158.59 38.15 158.87 38.3267 159.096 38.56C159.33 38.7867 159.506 39.0633 159.626 39.39C159.753 39.7167 159.816 40.0867 159.816 40.5C159.816 40.9133 159.753 41.2833 159.626 41.61C159.506 41.9367 159.33 42.2167 159.096 42.45C158.87 42.6767 158.59 42.85 158.256 42.97C157.93 43.09 157.56 43.15 157.146 43.15C156.733 43.15 156.36 43.09 156.026 42.97C155.7 42.85 155.42 42.6767 155.186 42.45C154.96 42.2167 154.783 41.9367 154.656 41.61C154.536 41.2833 154.476 40.9133 154.476 40.5C154.476 40.0867 154.536 39.7167 154.656 39.39C154.783 39.0633 154.96 38.7867 155.186 38.56C155.42 38.3267 155.7 38.15 156.026 38.03C156.36 37.91 156.733 37.85 157.146 37.85ZM157.146 42.9C157.26 42.9 157.373 42.8667 157.486 42.8C157.6 42.7333 157.703 42.61 157.796 42.43C157.89 42.25 157.966 42.0067 158.026 41.7C158.086 41.3867 158.116 40.9867 158.116 40.5C158.116 40.0133 158.086 39.6167 158.026 39.31C157.966 38.9967 157.89 38.75 157.796 38.57C157.703 38.39 157.6 38.2667 157.486 38.2C157.373 38.1333 157.26 38.1 157.146 38.1C157.033 38.1 156.92 38.1333 156.806 38.2C156.693 38.2667 156.59 38.39 156.496 38.57C156.403 38.75 156.326 38.9967 156.266 39.31C156.206 39.6167 156.176 40.0133 156.176 40.5C156.176 40.9867 156.206 41.3867 156.266 41.7C156.326 42.0067 156.403 42.25 156.496 42.43C156.59 42.61 156.693 42.7333 156.806 42.8C156.92 42.8667 157.033 42.9 157.146 42.9ZM160.999 38.61C160.926 38.61 160.836 38.6433 160.729 38.71C160.623 38.77 160.516 38.8533 160.409 38.96C160.409 38.8333 160.443 38.71 160.509 38.59C160.583 38.47 160.676 38.3633 160.789 38.27C160.903 38.17 161.036 38.0933 161.189 38.04C161.349 37.98 161.513 37.95 161.679 37.95C161.826 37.95 161.969 37.9733 162.109 38.02C162.256 38.0667 162.383 38.1367 162.489 38.23C162.603 38.3167 162.693 38.4267 162.759 38.56C162.826 38.6867 162.859 38.8333 162.859 39V41.5C162.859 41.7267 162.883 41.9233 162.929 42.09C162.976 42.25 163.036 42.3833 163.109 42.49C163.183 42.5967 163.266 42.6767 163.359 42.73C163.453 42.7767 163.546 42.8 163.639 42.8C163.746 42.8 163.843 42.7767 163.929 42.73C164.023 42.6767 164.106 42.61 164.179 42.53C164.253 42.45 164.316 42.3633 164.369 42.27C164.429 42.17 164.476 42.0767 164.509 41.99V39C164.509 38.8733 164.483 38.7767 164.429 38.71C164.383 38.6433 164.323 38.61 164.249 38.61C164.176 38.61 164.086 38.6433 163.979 38.71C163.873 38.77 163.766 38.8533 163.659 38.96C163.659 38.8333 163.693 38.71 163.759 38.59C163.833 38.47 163.926 38.3633 164.039 38.27C164.153 38.17 164.286 38.0933 164.439 38.04C164.599 37.98 164.763 37.95 164.929 37.95C165.076 37.95 165.219 37.9733 165.359 38.02C165.506 38.0667 165.633 38.1367 165.739 38.23C165.853 38.3167 165.943 38.4267 166.009 38.56C166.076 38.6867 166.109 38.8333 166.109 39V42.05C166.109 42.1767 166.133 42.2667 166.179 42.32C166.226 42.3667 166.283 42.39 166.349 42.39C166.436 42.39 166.533 42.36 166.639 42.3C166.746 42.2333 166.853 42.1467 166.959 42.04C166.959 42.1667 166.923 42.29 166.849 42.41C166.783 42.53 166.689 42.64 166.569 42.74C166.456 42.8333 166.319 42.91 166.159 42.97C166.006 43.0233 165.843 43.05 165.669 43.05C165.436 43.05 165.216 42.9967 165.009 42.89C164.803 42.7833 164.659 42.6233 164.579 42.41C164.413 42.6633 164.209 42.85 163.969 42.97C163.729 43.09 163.459 43.15 163.159 43.15C162.886 43.15 162.633 43.1033 162.399 43.01C162.166 42.9167 161.963 42.7933 161.789 42.64C161.623 42.4867 161.493 42.31 161.399 42.11C161.306 41.91 161.259 41.7067 161.259 41.5V39C161.259 38.8733 161.233 38.7767 161.179 38.71C161.133 38.6433 161.073 38.61 160.999 38.61ZM167.827 38.61C167.74 38.61 167.644 38.6433 167.537 38.71C167.43 38.77 167.324 38.8533 167.217 38.96C167.217 38.8333 167.25 38.71 167.317 38.59C167.39 38.47 167.484 38.3633 167.597 38.27C167.717 38.17 167.854 38.0933 168.007 38.04C168.167 37.98 168.334 37.95 168.507 37.95C168.747 37.95 168.974 38.01 169.187 38.13C169.407 38.25 169.554 38.4267 169.627 38.66C169.8 38.44 170.007 38.27 170.247 38.15C170.487 38.0233 170.74 37.96 171.007 37.96C171.174 37.96 171.327 37.9867 171.467 38.04C171.614 38.0867 171.74 38.1533 171.847 38.24C171.954 38.3267 172.037 38.43 172.097 38.55C172.157 38.6633 172.187 38.7867 172.187 38.92C172.187 39.14 172.11 39.3233 171.957 39.47C171.804 39.6167 171.61 39.69 171.377 39.69C171.244 39.69 171.13 39.6667 171.037 39.62C170.95 39.5667 170.877 39.5033 170.817 39.43C170.764 39.35 170.724 39.26 170.697 39.16C170.677 39.06 170.667 38.96 170.667 38.86C170.667 38.7267 170.684 38.6 170.717 38.48C170.75 38.3533 170.787 38.2633 170.827 38.21C170.734 38.21 170.63 38.2367 170.517 38.29C170.41 38.3433 170.3 38.4133 170.187 38.5C170.08 38.5867 169.98 38.6833 169.887 38.79C169.794 38.89 169.72 38.99 169.667 39.09V42C169.667 42.1467 169.67 42.2767 169.677 42.39C169.684 42.4967 169.704 42.5833 169.737 42.65C169.777 42.7167 169.837 42.7667 169.917 42.8C170.004 42.8333 170.12 42.85 170.267 42.85V43H167.467V42.85C167.62 42.85 167.737 42.8333 167.817 42.8C167.897 42.7667 167.954 42.7167 167.987 42.65C168.027 42.5833 168.05 42.4967 168.057 42.39C168.064 42.2767 168.067 42.1467 168.067 42V38.95C168.067 38.8233 168.044 38.7367 167.997 38.69C167.95 38.6367 167.894 38.61 167.827 38.61ZM175.922 43V42.85C176.075 42.85 176.192 42.8333 176.272 42.8C176.352 42.7667 176.409 42.7167 176.442 42.65C176.482 42.5833 176.505 42.4967 176.512 42.39C176.519 42.2767 176.522 42.1467 176.522 42V37C176.522 36.8467 176.519 36.7167 176.512 36.61C176.505 36.5033 176.482 36.4167 176.442 36.35C176.409 36.2833 176.352 36.2333 176.272 36.2C176.192 36.1667 176.075 36.15 175.922 36.15V36H178.622C179.162 36 179.619 36.0467 179.992 36.14C180.365 36.2333 180.669 36.36 180.902 36.52C181.135 36.68 181.305 36.8667 181.412 37.08C181.519 37.2867 181.572 37.51 181.572 37.75C181.572 38.0367 181.505 38.28 181.372 38.48C181.245 38.68 181.079 38.84 180.872 38.96C180.665 39.08 180.435 39.1667 180.182 39.22C179.929 39.2733 179.675 39.3 179.422 39.3C179.675 39.3 179.945 39.3333 180.232 39.4C180.525 39.46 180.795 39.5667 181.042 39.72C181.295 39.8667 181.505 40.06 181.672 40.3C181.839 40.5333 181.922 40.8267 181.922 41.18C181.922 41.4333 181.869 41.6733 181.762 41.9C181.655 42.12 181.479 42.3133 181.232 42.48C180.992 42.64 180.672 42.7667 180.272 42.86C179.879 42.9533 179.395 43 178.822 43H175.922ZM178.622 39.2C178.782 39.2 178.939 39.1633 179.092 39.09C179.245 39.0167 179.379 38.9167 179.492 38.79C179.605 38.6567 179.695 38.5 179.762 38.32C179.835 38.14 179.872 37.94 179.872 37.72C179.872 37.5 179.835 37.3 179.762 37.12C179.695 36.94 179.605 36.7867 179.492 36.66C179.379 36.5267 179.245 36.4267 179.092 36.36C178.939 36.2867 178.782 36.25 178.622 36.25H178.172V39.2H178.622ZM178.822 42.75C179.222 42.75 179.555 42.6067 179.822 42.32C180.089 42.0333 180.222 41.6267 180.222 41.1C180.222 40.5733 180.089 40.1667 179.822 39.88C179.555 39.5933 179.222 39.45 178.822 39.45H178.172V42.75H178.822ZM182.904 38.61C182.83 38.61 182.74 38.6433 182.634 38.71C182.527 38.77 182.42 38.8533 182.314 38.96C182.314 38.8333 182.347 38.71 182.414 38.59C182.487 38.47 182.58 38.3633 182.694 38.27C182.807 38.17 182.94 38.0933 183.094 38.04C183.254 37.98 183.417 37.95 183.584 37.95C183.73 37.95 183.874 37.9733 184.014 38.02C184.16 38.0667 184.287 38.1367 184.394 38.23C184.507 38.3167 184.597 38.4267 184.664 38.56C184.73 38.6867 184.764 38.8333 184.764 39V41.5C184.764 41.7267 184.787 41.9233 184.834 42.09C184.88 42.25 184.94 42.3833 185.014 42.49C185.087 42.5967 185.17 42.6767 185.264 42.73C185.357 42.7767 185.45 42.8 185.544 42.8C185.65 42.8 185.747 42.7767 185.834 42.73C185.927 42.6767 186.01 42.61 186.084 42.53C186.157 42.45 186.22 42.3633 186.274 42.27C186.334 42.17 186.38 42.0767 186.414 41.99V39C186.414 38.8733 186.387 38.7767 186.334 38.71C186.287 38.6433 186.227 38.61 186.154 38.61C186.08 38.61 185.99 38.6433 185.884 38.71C185.777 38.77 185.67 38.8533 185.564 38.96C185.564 38.8333 185.597 38.71 185.664 38.59C185.737 38.47 185.83 38.3633 185.944 38.27C186.057 38.17 186.19 38.0933 186.344 38.04C186.504 37.98 186.667 37.95 186.834 37.95C186.98 37.95 187.124 37.9733 187.264 38.02C187.41 38.0667 187.537 38.1367 187.644 38.23C187.757 38.3167 187.847 38.4267 187.914 38.56C187.98 38.6867 188.014 38.8333 188.014 39V42.05C188.014 42.1767 188.037 42.2667 188.084 42.32C188.13 42.3667 188.187 42.39 188.254 42.39C188.34 42.39 188.437 42.36 188.544 42.3C188.65 42.2333 188.757 42.1467 188.864 42.04C188.864 42.1667 188.827 42.29 188.754 42.41C188.687 42.53 188.594 42.64 188.474 42.74C188.36 42.8333 188.224 42.91 188.064 42.97C187.91 43.0233 187.747 43.05 187.574 43.05C187.34 43.05 187.12 42.9967 186.914 42.89C186.707 42.7833 186.564 42.6233 186.484 42.41C186.317 42.6633 186.114 42.85 185.874 42.97C185.634 43.09 185.364 43.15 185.064 43.15C184.79 43.15 184.537 43.1033 184.304 43.01C184.07 42.9167 183.867 42.7933 183.694 42.64C183.527 42.4867 183.397 42.31 183.304 42.11C183.21 41.91 183.164 41.7067 183.164 41.5V39C183.164 38.8733 183.137 38.7767 183.084 38.71C183.037 38.6433 182.977 38.61 182.904 38.61ZM191.164 41.57C191.164 41.7633 191.107 41.9633 190.994 42.17C190.98 42.1967 190.967 42.2267 190.954 42.26C190.94 42.2867 190.934 42.32 190.934 42.36C190.934 42.4467 190.964 42.52 191.024 42.58C191.084 42.64 191.16 42.69 191.254 42.73C191.347 42.7633 191.447 42.79 191.554 42.81C191.66 42.8233 191.76 42.83 191.854 42.83C192.087 42.83 192.287 42.78 192.454 42.68C192.62 42.58 192.704 42.4033 192.704 42.15C192.704 42.0367 192.684 41.9367 192.644 41.85C192.61 41.7633 192.55 41.68 192.464 41.6C192.377 41.52 192.267 41.44 192.134 41.36C192 41.28 191.837 41.19 191.644 41.09C191.29 40.91 190.994 40.7433 190.754 40.59C190.52 40.4367 190.334 40.29 190.194 40.15C190.054 40.01 189.954 39.8733 189.894 39.74C189.834 39.6 189.804 39.4533 189.804 39.3C189.804 39.0867 189.854 38.8933 189.954 38.72C190.054 38.54 190.197 38.3867 190.384 38.26C190.57 38.1267 190.794 38.0267 191.054 37.96C191.32 37.8867 191.617 37.85 191.944 37.85C192.237 37.85 192.517 37.88 192.784 37.94C193.057 38 193.294 38.09 193.494 38.21C193.7 38.33 193.864 38.48 193.984 38.66C194.104 38.8333 194.164 39.0333 194.164 39.26C194.164 39.5 194.097 39.6967 193.964 39.85C193.83 39.9967 193.654 40.07 193.434 40.07C193.22 40.07 193.04 40.0033 192.894 39.87C192.747 39.7367 192.674 39.5533 192.674 39.32C192.674 39.18 192.694 39.0567 192.734 38.95C192.78 38.8433 192.82 38.7633 192.854 38.71C192.907 38.6033 192.934 38.5367 192.934 38.51C192.934 38.4433 192.867 38.36 192.734 38.26C192.6 38.16 192.43 38.11 192.224 38.11C192.01 38.11 191.827 38.1767 191.674 38.31C191.527 38.4367 191.454 38.6 191.454 38.8C191.454 38.9333 191.487 39.0567 191.554 39.17C191.62 39.2767 191.7 39.3733 191.794 39.46C191.887 39.54 191.984 39.61 192.084 39.67C192.19 39.73 192.28 39.78 192.354 39.82C192.754 40.0267 193.08 40.2167 193.334 40.39C193.587 40.5567 193.787 40.71 193.934 40.85C194.08 40.99 194.18 41.1233 194.234 41.25C194.294 41.3767 194.324 41.5067 194.324 41.64C194.324 41.86 194.26 42.0633 194.134 42.25C194.007 42.4367 193.834 42.5967 193.614 42.73C193.394 42.8633 193.137 42.9667 192.844 43.04C192.55 43.1133 192.237 43.15 191.904 43.15C191.644 43.15 191.377 43.1233 191.104 43.07C190.837 43.0167 190.59 42.9333 190.364 42.82C190.144 42.7 189.964 42.5467 189.824 42.36C189.684 42.1667 189.614 41.9333 189.614 41.66C189.614 41.3933 189.684 41.18 189.824 41.02C189.964 40.8533 190.16 40.77 190.414 40.77C190.667 40.77 190.854 40.8467 190.974 41C191.1 41.1533 191.164 41.3433 191.164 41.57ZM195.858 36.8C195.858 36.6867 195.882 36.58 195.928 36.48C195.975 36.3733 196.035 36.2833 196.108 36.21C196.188 36.13 196.278 36.0667 196.378 36.02C196.485 35.9733 196.595 35.95 196.708 35.95C196.822 35.95 196.928 35.9733 197.028 36.02C197.135 36.0667 197.225 36.13 197.298 36.21C197.378 36.2833 197.442 36.3733 197.488 36.48C197.535 36.58 197.558 36.6867 197.558 36.8C197.558 36.9133 197.535 37.0233 197.488 37.13C197.442 37.23 197.378 37.32 197.298 37.4C197.225 37.4733 197.135 37.5333 197.028 37.58C196.928 37.6267 196.822 37.65 196.708 37.65C196.595 37.65 196.485 37.6267 196.378 37.58C196.278 37.5333 196.188 37.4733 196.108 37.4C196.035 37.32 195.975 37.23 195.928 37.13C195.882 37.0233 195.858 36.9133 195.858 36.8ZM195.668 38.61C195.582 38.61 195.485 38.6433 195.378 38.71C195.272 38.77 195.165 38.8533 195.058 38.96C195.058 38.8333 195.092 38.71 195.158 38.59C195.232 38.47 195.325 38.3633 195.438 38.27C195.558 38.17 195.695 38.0933 195.848 38.04C196.008 37.98 196.175 37.95 196.348 37.95C196.488 37.95 196.628 37.97 196.768 38.01C196.908 38.05 197.032 38.1133 197.138 38.2C197.252 38.28 197.342 38.3833 197.408 38.51C197.475 38.6367 197.508 38.7833 197.508 38.95V42C197.508 42.1467 197.512 42.2767 197.518 42.39C197.525 42.4967 197.545 42.5833 197.578 42.65C197.618 42.7167 197.678 42.7667 197.758 42.8C197.845 42.8333 197.962 42.85 198.108 42.85V43H195.308V42.85C195.462 42.85 195.578 42.8333 195.658 42.8C195.738 42.7667 195.795 42.7167 195.828 42.65C195.868 42.5833 195.892 42.4967 195.898 42.39C195.905 42.2767 195.908 42.1467 195.908 42V38.95C195.908 38.8233 195.885 38.7367 195.838 38.69C195.792 38.6367 195.735 38.61 195.668 38.61ZM199.067 38.61C198.981 38.61 198.884 38.6433 198.777 38.71C198.671 38.77 198.564 38.8533 198.457 38.96C198.457 38.8333 198.491 38.71 198.557 38.59C198.631 38.47 198.724 38.3633 198.837 38.27C198.957 38.17 199.094 38.0933 199.247 38.04C199.407 37.98 199.574 37.95 199.747 37.95C199.981 37.95 200.201 38.0033 200.407 38.11C200.614 38.2167 200.757 38.3767 200.837 38.59C201.004 38.3367 201.207 38.15 201.447 38.03C201.687 37.91 201.957 37.85 202.257 37.85C202.531 37.85 202.784 37.8967 203.017 37.99C203.251 38.0833 203.451 38.2067 203.617 38.36C203.791 38.5133 203.924 38.69 204.017 38.89C204.111 39.0833 204.157 39.2867 204.157 39.5V42C204.157 42.1267 204.181 42.2233 204.227 42.29C204.281 42.3567 204.344 42.39 204.417 42.39C204.491 42.39 204.581 42.36 204.687 42.3C204.794 42.2333 204.901 42.1467 205.007 42.04C205.007 42.1667 204.971 42.29 204.897 42.41C204.831 42.53 204.741 42.64 204.627 42.74C204.514 42.8333 204.381 42.91 204.227 42.97C204.074 43.0233 203.911 43.05 203.737 43.05C203.591 43.05 203.444 43.0267 203.297 42.98C203.157 42.9333 203.031 42.8667 202.917 42.78C202.811 42.6867 202.724 42.5767 202.657 42.45C202.591 42.3167 202.557 42.1667 202.557 42V39.5C202.557 39.2733 202.534 39.08 202.487 38.92C202.441 38.7533 202.381 38.6167 202.307 38.51C202.234 38.4033 202.151 38.3267 202.057 38.28C201.964 38.2267 201.871 38.2 201.777 38.2C201.671 38.2 201.571 38.2267 201.477 38.28C201.391 38.3267 201.311 38.39 201.237 38.47C201.164 38.55 201.097 38.6367 201.037 38.73C200.984 38.8233 200.941 38.9167 200.907 39.01V42C200.907 42.1467 200.911 42.2767 200.917 42.39C200.924 42.4967 200.944 42.5833 200.977 42.65C201.017 42.7167 201.077 42.7667 201.157 42.8C201.244 42.8333 201.361 42.85 201.507 42.85V43H198.707V42.85C198.861 42.85 198.977 42.8333 199.057 42.8C199.137 42.7667 199.194 42.7167 199.227 42.65C199.267 42.5833 199.291 42.4967 199.297 42.39C199.304 42.2767 199.307 42.1467 199.307 42V38.95C199.307 38.8233 199.284 38.7367 199.237 38.69C199.191 38.6367 199.134 38.61 199.067 38.61ZM208.409 43.15C207.962 43.15 207.562 43.0833 207.209 42.95C206.862 42.8167 206.569 42.63 206.329 42.39C206.089 42.15 205.905 41.8633 205.779 41.53C205.659 41.1967 205.599 40.83 205.599 40.43C205.599 40.03 205.659 39.6733 205.779 39.36C205.899 39.04 206.075 38.77 206.309 38.55C206.549 38.3233 206.839 38.15 207.179 38.03C207.525 37.91 207.919 37.85 208.359 37.85C208.552 37.85 208.772 37.8767 209.019 37.93C209.265 37.9767 209.499 38.0567 209.719 38.17C209.939 38.2833 210.122 38.4333 210.269 38.62C210.422 38.8067 210.499 39.0367 210.499 39.31C210.499 39.5367 210.442 39.7333 210.329 39.9C210.222 40.06 210.079 40.1933 209.899 40.3C209.719 40.4067 209.515 40.49 209.289 40.55C209.062 40.61 208.829 40.6567 208.589 40.69C208.355 40.7167 208.125 40.7333 207.899 40.74C207.672 40.7467 207.472 40.75 207.299 40.75C207.305 41.19 207.325 41.55 207.359 41.83C207.399 42.1033 207.459 42.3167 207.539 42.47C207.619 42.6167 207.725 42.7167 207.859 42.77C207.992 42.8233 208.152 42.85 208.339 42.85C208.685 42.85 209.042 42.7833 209.409 42.65C209.782 42.5167 210.102 42.3167 210.369 42.05C210.369 42.1767 210.325 42.3067 210.239 42.44C210.159 42.5667 210.035 42.6833 209.869 42.79C209.709 42.8967 209.505 42.9833 209.259 43.05C209.019 43.1167 208.735 43.15 208.409 43.15ZM207.299 40.5C207.499 40.4867 207.692 40.4667 207.879 40.44C208.065 40.4067 208.229 40.3467 208.369 40.26C208.515 40.1733 208.632 40.05 208.719 39.89C208.805 39.73 208.849 39.5167 208.849 39.25C208.849 39.11 208.835 38.97 208.809 38.83C208.782 38.69 208.739 38.5667 208.679 38.46C208.625 38.3533 208.555 38.2667 208.469 38.2C208.382 38.1333 208.279 38.1 208.159 38.1C208.039 38.1 207.925 38.14 207.819 38.22C207.719 38.2933 207.629 38.4233 207.549 38.61C207.475 38.7967 207.415 39.0433 207.369 39.35C207.322 39.6567 207.299 40.04 207.299 40.5ZM212.912 41.57C212.912 41.7633 212.855 41.9633 212.742 42.17C212.728 42.1967 212.715 42.2267 212.702 42.26C212.688 42.2867 212.682 42.32 212.682 42.36C212.682 42.4467 212.712 42.52 212.772 42.58C212.832 42.64 212.908 42.69 213.002 42.73C213.095 42.7633 213.195 42.79 213.302 42.81C213.408 42.8233 213.508 42.83 213.602 42.83C213.835 42.83 214.035 42.78 214.202 42.68C214.368 42.58 214.452 42.4033 214.452 42.15C214.452 42.0367 214.432 41.9367 214.392 41.85C214.358 41.7633 214.298 41.68 214.212 41.6C214.125 41.52 214.015 41.44 213.882 41.36C213.748 41.28 213.585 41.19 213.392 41.09C213.038 40.91 212.742 40.7433 212.502 40.59C212.268 40.4367 212.082 40.29 211.942 40.15C211.802 40.01 211.702 39.8733 211.642 39.74C211.582 39.6 211.552 39.4533 211.552 39.3C211.552 39.0867 211.602 38.8933 211.702 38.72C211.802 38.54 211.945 38.3867 212.132 38.26C212.318 38.1267 212.542 38.0267 212.802 37.96C213.068 37.8867 213.365 37.85 213.692 37.85C213.985 37.85 214.265 37.88 214.532 37.94C214.805 38 215.042 38.09 215.242 38.21C215.448 38.33 215.612 38.48 215.732 38.66C215.852 38.8333 215.912 39.0333 215.912 39.26C215.912 39.5 215.845 39.6967 215.712 39.85C215.578 39.9967 215.402 40.07 215.182 40.07C214.968 40.07 214.788 40.0033 214.642 39.87C214.495 39.7367 214.422 39.5533 214.422 39.32C214.422 39.18 214.442 39.0567 214.482 38.95C214.528 38.8433 214.568 38.7633 214.602 38.71C214.655 38.6033 214.682 38.5367 214.682 38.51C214.682 38.4433 214.615 38.36 214.482 38.26C214.348 38.16 214.178 38.11 213.972 38.11C213.758 38.11 213.575 38.1767 213.422 38.31C213.275 38.4367 213.202 38.6 213.202 38.8C213.202 38.9333 213.235 39.0567 213.302 39.17C213.368 39.2767 213.448 39.3733 213.542 39.46C213.635 39.54 213.732 39.61 213.832 39.67C213.938 39.73 214.028 39.78 214.102 39.82C214.502 40.0267 214.828 40.2167 215.082 40.39C215.335 40.5567 215.535 40.71 215.682 40.85C215.828 40.99 215.928 41.1233 215.982 41.25C216.042 41.3767 216.072 41.5067 216.072 41.64C216.072 41.86 216.008 42.0633 215.882 42.25C215.755 42.4367 215.582 42.5967 215.362 42.73C215.142 42.8633 214.885 42.9667 214.592 43.04C214.298 43.1133 213.985 43.15 213.652 43.15C213.392 43.15 213.125 43.1233 212.852 43.07C212.585 43.0167 212.338 42.9333 212.112 42.82C211.892 42.7 211.712 42.5467 211.572 42.36C211.432 42.1667 211.362 41.9333 211.362 41.66C211.362 41.3933 211.432 41.18 211.572 41.02C211.712 40.8533 211.908 40.77 212.162 40.77C212.415 40.77 212.602 40.8467 212.722 41C212.848 41.1533 212.912 41.3433 212.912 41.57ZM218.507 41.57C218.507 41.7633 218.451 41.9633 218.337 42.17C218.324 42.1967 218.311 42.2267 218.297 42.26C218.284 42.2867 218.277 42.32 218.277 42.36C218.277 42.4467 218.307 42.52 218.367 42.58C218.427 42.64 218.504 42.69 218.597 42.73C218.691 42.7633 218.791 42.79 218.897 42.81C219.004 42.8233 219.104 42.83 219.197 42.83C219.431 42.83 219.631 42.78 219.797 42.68C219.964 42.58 220.047 42.4033 220.047 42.15C220.047 42.0367 220.027 41.9367 219.987 41.85C219.954 41.7633 219.894 41.68 219.807 41.6C219.721 41.52 219.611 41.44 219.477 41.36C219.344 41.28 219.181 41.19 218.987 41.09C218.634 40.91 218.337 40.7433 218.097 40.59C217.864 40.4367 217.677 40.29 217.537 40.15C217.397 40.01 217.297 39.8733 217.237 39.74C217.177 39.6 217.147 39.4533 217.147 39.3C217.147 39.0867 217.197 38.8933 217.297 38.72C217.397 38.54 217.541 38.3867 217.727 38.26C217.914 38.1267 218.137 38.0267 218.397 37.96C218.664 37.8867 218.961 37.85 219.287 37.85C219.581 37.85 219.861 37.88 220.127 37.94C220.401 38 220.637 38.09 220.837 38.21C221.044 38.33 221.207 38.48 221.327 38.66C221.447 38.8333 221.507 39.0333 221.507 39.26C221.507 39.5 221.441 39.6967 221.307 39.85C221.174 39.9967 220.997 40.07 220.777 40.07C220.564 40.07 220.384 40.0033 220.237 39.87C220.091 39.7367 220.017 39.5533 220.017 39.32C220.017 39.18 220.037 39.0567 220.077 38.95C220.124 38.8433 220.164 38.7633 220.197 38.71C220.251 38.6033 220.277 38.5367 220.277 38.51C220.277 38.4433 220.211 38.36 220.077 38.26C219.944 38.16 219.774 38.11 219.567 38.11C219.354 38.11 219.171 38.1767 219.017 38.31C218.871 38.4367 218.797 38.6 218.797 38.8C218.797 38.9333 218.831 39.0567 218.897 39.17C218.964 39.2767 219.044 39.3733 219.137 39.46C219.231 39.54 219.327 39.61 219.427 39.67C219.534 39.73 219.624 39.78 219.697 39.82C220.097 40.0267 220.424 40.2167 220.677 40.39C220.931 40.5567 221.131 40.71 221.277 40.85C221.424 40.99 221.524 41.1233 221.577 41.25C221.637 41.3767 221.667 41.5067 221.667 41.64C221.667 41.86 221.604 42.0633 221.477 42.25C221.351 42.4367 221.177 42.5967 220.957 42.73C220.737 42.8633 220.481 42.9667 220.187 43.04C219.894 43.1133 219.581 43.15 219.247 43.15C218.987 43.15 218.721 43.1233 218.447 43.07C218.181 43.0167 217.934 42.9333 217.707 42.82C217.487 42.7 217.307 42.5467 217.167 42.36C217.027 42.1667 216.957 41.9333 216.957 41.66C216.957 41.3933 217.027 41.18 217.167 41.02C217.307 40.8533 217.504 40.77 217.757 40.77C218.011 40.77 218.197 40.8467 218.317 41C218.444 41.1533 218.507 41.3433 218.507 41.57ZM224.773 37.85C225.026 37.7633 225.233 37.6233 225.393 37.43C225.56 37.23 225.67 37.0033 225.723 36.75C225.65 36.7967 225.58 36.8333 225.513 36.86C225.453 36.8867 225.38 36.9 225.293 36.9C225.08 36.9 224.896 36.8267 224.743 36.68C224.596 36.5333 224.523 36.36 224.523 36.16C224.523 36.06 224.543 35.9633 224.583 35.87C224.623 35.7767 224.676 35.6967 224.743 35.63C224.816 35.5567 224.9 35.5 224.993 35.46C225.093 35.42 225.196 35.4 225.303 35.4C225.516 35.4 225.696 35.4833 225.843 35.65C225.996 35.8167 226.073 36.0667 226.073 36.4C226.073 36.58 226.046 36.7567 225.993 36.93C225.94 37.1033 225.863 37.2667 225.763 37.42C225.663 37.5667 225.536 37.7 225.383 37.82C225.236 37.94 225.066 38.0333 224.873 38.1L224.773 37.85ZM222.773 37.85C223.026 37.7633 223.233 37.6233 223.393 37.43C223.56 37.23 223.67 37.0033 223.723 36.75C223.65 36.7967 223.58 36.8333 223.513 36.86C223.453 36.8867 223.38 36.9 223.293 36.9C223.08 36.9 222.896 36.8267 222.743 36.68C222.596 36.5333 222.523 36.36 222.523 36.16C222.523 36.06 222.543 35.9633 222.583 35.87C222.623 35.7767 222.676 35.6967 222.743 35.63C222.816 35.5567 222.9 35.5 222.993 35.46C223.093 35.42 223.196 35.4 223.303 35.4C223.516 35.4 223.696 35.4833 223.843 35.65C223.996 35.8167 224.073 36.0667 224.073 36.4C224.073 36.58 224.046 36.7567 223.993 36.93C223.94 37.1033 223.863 37.2667 223.763 37.42C223.663 37.5667 223.536 37.7 223.383 37.82C223.236 37.94 223.066 38.0333 222.873 38.1L222.773 37.85Z" fill="#252F40"/>
<defs>
<linearGradient id="paint0_linear_2771_1238" x1="0" y1="24.6527" x2="58.8549" y2="24.6527" gradientUnits="userSpaceOnUse">
<stop stop-color="#21D4FD"/>
<stop offset="1" stop-color="#2152FF"/>
</linearGradient>
<clipPath id="clip0_2771_1238">
<rect width="66" height="49" fill="white"/>
</clipPath>
</defs>
</svg>
