<svg width="20" height="20" viewBox="0 0 20 20" fill="none" xmlns="http://www.w3.org/2000/svg">
<circle cx="10" cy="9.70874" r="9.70874" fill="#151875"/>
<path d="M14.2444 7.40728C14.2392 7.01511 14.1658 6.62684 14.0275 6.25983C13.9075 5.95027 13.7243 5.66913 13.4896 5.43437C13.2548 5.19962 12.9737 5.01642 12.6641 4.89647C12.3018 4.76047 11.9191 4.68694 11.5322 4.67899C11.0341 4.65673 10.8762 4.65051 9.6117 4.65051C8.34723 4.65051 8.18516 4.65051 7.69066 4.67899C7.30395 4.68699 6.92139 4.76053 6.55927 4.89647C6.24966 5.01633 5.96847 5.19951 5.73371 5.43427C5.49895 5.66903 5.31577 5.95022 5.19591 6.25983C5.05964 6.62184 4.98626 7.00449 4.97895 7.39122C4.95668 7.88987 4.94995 8.04779 4.94995 9.31226C4.94995 10.5767 4.94995 10.7383 4.97895 11.2333C4.98671 11.6206 5.05972 12.0027 5.19591 12.3657C5.31597 12.6752 5.49928 12.9563 5.73413 13.191C5.96897 13.4256 6.25018 13.6087 6.55979 13.7286C6.92092 13.87 7.30354 13.9488 7.69118 13.9616C8.18982 13.9838 8.34775 13.9906 9.61222 13.9906C10.8767 13.9906 11.0388 13.9906 11.5333 13.9616C11.9201 13.954 12.3029 13.8806 12.6652 13.7446C12.9746 13.6245 13.2557 13.4413 13.4905 13.2065C13.7252 12.9718 13.9084 12.6907 14.0285 12.3813C14.1647 12.0188 14.2377 11.6367 14.2455 11.2488C14.2677 10.7507 14.2745 10.5928 14.2745 9.32779C14.2734 8.06333 14.2734 7.90281 14.2444 7.40728ZM9.60859 11.7035C8.28613 11.7035 7.21481 10.6321 7.21481 9.30967C7.21481 7.98721 8.28613 6.91588 9.60859 6.91588C10.2435 6.91588 10.8523 7.16809 11.3013 7.61701C11.7502 8.06593 12.0024 8.6748 12.0024 9.30967C12.0024 9.94454 11.7502 10.5534 11.3013 11.0023C10.8523 11.4513 10.2435 11.7035 9.60859 11.7035ZM12.0977 7.38553C11.7885 7.38553 11.5395 7.13595 11.5395 6.82734C11.5395 6.75407 11.5539 6.68152 11.5819 6.61383C11.61 6.54614 11.6511 6.48463 11.7029 6.43283C11.7547 6.38102 11.8162 6.33992 11.8839 6.31188C11.9516 6.28384 12.0241 6.26941 12.0974 6.26941C12.1707 6.26941 12.2432 6.28384 12.3109 6.31188C12.3786 6.33992 12.4401 6.38102 12.4919 6.43283C12.5437 6.48463 12.5848 6.54614 12.6129 6.61383C12.6409 6.68152 12.6553 6.75407 12.6553 6.82734C12.6553 7.13595 12.4057 7.38553 12.0977 7.38553Z" fill="white"/>
<path d="M9.60866 10.8644C10.4674 10.8644 11.1636 10.1682 11.1636 9.30941C11.1636 8.45063 10.4674 7.75446 9.60866 7.75446C8.74989 7.75446 8.05371 8.45063 8.05371 9.30941C8.05371 10.1682 8.74989 10.8644 9.60866 10.8644Z" fill="white"/>
</svg>
