<svg width="512" height="464" viewBox="0 0 512 464" fill="none" xmlns="http://www.w3.org/2000/svg">
<rect x="11.5225" y="250.865" width="495.785" height="117.55" transform="rotate(-2 11.5225 250.865)" fill="#FC9F66"/>
<rect y="16.2193" width="464.743" height="112.14" transform="rotate(-2 0 16.2193)" fill="white"/>
<path d="M63.112 86.8721H83.656V103H41.8V35.0321H63.112V86.8721ZM111.675 52.0241V60.3761H132.795V76.4081H111.675V86.0081H135.675V103H90.3625V35.0321H135.675V52.0241H111.675ZM197.082 35.0321V51.9281H179.034V103H157.722V51.9281H139.866V35.0321H197.082ZM208.431 35.0321H229.551L218.223 63.3521H204.207L208.431 35.0321ZM265.736 103.672C257.608 103.672 250.888 101.784 245.576 98.0081C240.328 94.1681 237.48 88.5681 237.032 81.2081H259.688C260.008 85.1121 261.736 87.0641 264.872 87.0641C266.024 87.0641 266.984 86.8081 267.752 86.2961C268.584 85.7201 269 84.8561 269 83.7041C269 82.1041 268.136 80.8241 266.408 79.8641C264.68 78.8401 261.992 77.6881 258.344 76.4081C253.992 74.8721 250.376 73.3681 247.496 71.8961C244.68 70.4241 242.248 68.2801 240.2 65.4641C238.152 62.6481 237.16 59.0321 237.224 54.6161C237.224 50.2001 238.344 46.4561 240.584 43.3841C242.888 40.2481 245.992 37.8801 249.896 36.2801C253.864 34.6801 258.312 33.8801 263.24 33.8801C271.56 33.8801 278.152 35.8001 283.016 39.6401C287.944 43.4801 290.536 48.8881 290.792 55.8641H267.848C267.784 53.9441 267.304 52.5681 266.408 51.7361C265.512 50.9041 264.424 50.4881 263.144 50.4881C262.248 50.4881 261.512 50.8081 260.936 51.4481C260.36 52.0241 260.072 52.8561 260.072 53.9441C260.072 55.4801 260.904 56.7601 262.568 57.7841C264.296 58.7441 267.016 59.9281 270.728 61.3361C275.016 62.9361 278.536 64.4721 281.288 65.9441C284.104 67.4161 286.536 69.4641 288.584 72.0881C290.632 74.7121 291.656 78.0081 291.656 81.9761C291.656 86.1361 290.632 89.8801 288.584 93.2081C286.536 96.4721 283.56 99.0321 279.656 100.888C275.752 102.744 271.112 103.672 265.736 103.672ZM63.112 172.024V180.376H84.232V196.408H63.112V206.008H87.112V223H41.8V155.032H87.112V172.024H63.112ZM138.44 223L125.96 205.336L115.592 223H91.3038L113.672 187.96L90.3438 155.032H115.592L127.592 172.024L137.576 155.032H161.864L139.88 189.4L163.688 223H138.44ZM224.04 178.36C224.04 182.648 223.048 186.552 221.064 190.072C219.08 193.528 216.136 196.28 212.232 198.328C208.392 200.376 203.72 201.4 198.216 201.4H189.768V223H168.456V155.032H198.216C206.536 155.032 212.904 157.144 217.32 161.368C221.8 165.592 224.04 171.256 224.04 178.36ZM195.816 184.6C200.232 184.6 202.44 182.52 202.44 178.36C202.44 174.2 200.232 172.12 195.816 172.12H189.768V184.6H195.816ZM252.112 206.872H272.656V223H230.8V155.032H252.112V206.872ZM312.483 223.672C306.083 223.672 300.195 222.168 294.819 219.16C289.507 216.152 285.283 211.992 282.147 206.68C279.011 201.368 277.443 195.384 277.443 188.728C277.443 182.072 279.011 176.088 282.147 170.776C285.283 165.464 289.507 161.336 294.819 158.392C300.195 155.384 306.083 153.88 312.483 153.88C318.883 153.88 324.739 155.384 330.051 158.392C335.363 161.336 339.555 165.464 342.627 170.776C345.763 176.088 347.331 182.072 347.331 188.728C347.331 195.384 345.763 201.368 342.627 206.68C339.555 211.992 335.331 216.152 329.955 219.16C324.643 222.168 318.819 223.672 312.483 223.672ZM312.483 203.8C316.707 203.8 319.971 202.456 322.275 199.768C324.579 197.016 325.731 193.336 325.731 188.728C325.731 184.056 324.579 180.376 322.275 177.688C319.971 174.936 316.707 173.56 312.483 173.56C308.195 173.56 304.899 174.936 302.595 177.688C300.291 180.376 299.139 184.056 299.139 188.728C299.139 193.336 300.291 197.016 302.595 199.768C304.899 202.456 308.195 203.8 312.483 203.8ZM389.195 223L376.427 198.616H376.331V223H355.019V155.032H386.699C392.203 155.032 396.907 156.024 400.811 158.008C404.715 159.928 407.627 162.584 409.547 165.976C411.531 169.304 412.523 173.08 412.523 177.304C412.523 181.848 411.243 185.88 408.683 189.4C406.187 192.92 402.571 195.448 397.835 196.984L412.619 223H389.195ZM376.331 184.408H384.779C386.827 184.408 388.363 183.96 389.387 183.064C390.411 182.104 390.923 180.632 390.923 178.648C390.923 176.856 390.379 175.448 389.291 174.424C388.267 173.4 386.763 172.888 384.779 172.888H376.331V184.408ZM440.643 172.024V180.376H461.763V196.408H440.643V206.008H464.643V223H419.331V155.032H464.643V172.024H440.643ZM39.88 428.92C39.88 422.2 41.224 416.216 43.912 410.968C46.664 405.72 50.568 401.656 55.624 398.776C60.68 395.832 66.632 394.36 73.48 394.36C79.368 394.36 84.616 395.48 89.224 397.72C93.896 399.896 97.672 403 100.552 407.032C103.496 411.064 105.448 415.768 106.408 421.144H83.944C82.92 418.904 81.448 417.176 79.528 415.96C77.672 414.68 75.528 414.04 73.096 414.04C69.512 414.04 66.664 415.384 64.552 418.072C62.504 420.76 61.48 424.376 61.48 428.92C61.48 433.464 62.504 437.08 64.552 439.768C66.664 442.456 69.512 443.8 73.096 443.8C75.528 443.8 77.672 443.192 79.528 441.976C81.448 440.696 82.92 438.936 83.944 436.696H106.408C105.448 442.072 103.496 446.776 100.552 450.808C97.672 454.84 93.896 457.976 89.224 460.216C84.616 462.392 79.368 463.48 73.48 463.48C66.632 463.48 60.68 462.04 55.624 459.16C50.568 456.216 46.664 452.12 43.912 446.872C41.224 441.624 39.88 435.64 39.88 428.92ZM135.393 446.872H155.937V463H114.081V395.032H135.393V446.872ZM195.764 463.672C189.364 463.672 183.476 462.168 178.1 459.16C172.788 456.152 168.564 451.992 165.428 446.68C162.292 441.368 160.724 435.384 160.724 428.728C160.724 422.072 162.292 416.088 165.428 410.776C168.564 405.464 172.788 401.336 178.1 398.392C183.476 395.384 189.364 393.88 195.764 393.88C202.164 393.88 208.02 395.384 213.332 398.392C218.644 401.336 222.836 405.464 225.908 410.776C229.044 416.088 230.612 422.072 230.612 428.728C230.612 435.384 229.044 441.368 225.908 446.68C222.836 451.992 218.612 456.152 213.236 459.16C207.924 462.168 202.1 463.672 195.764 463.672ZM195.764 443.8C199.988 443.8 203.252 442.456 205.556 439.768C207.86 437.016 209.012 433.336 209.012 428.728C209.012 424.056 207.86 420.376 205.556 417.688C203.252 414.936 199.988 413.56 195.764 413.56C191.476 413.56 188.18 414.936 185.876 417.688C183.572 420.376 182.42 424.056 182.42 428.728C182.42 433.336 183.572 437.016 185.876 439.768C188.18 442.456 191.476 443.8 195.764 443.8ZM291.676 395.032V411.928H273.628V463H252.316V411.928H234.46V395.032H291.676ZM360.336 395.032V463H339.024V436.504H318.768V463H297.456V395.032H318.768V419.512H339.024V395.032H360.336ZM391.237 412.024V420.376H412.357V436.408H391.237V446.008H415.237V463H369.925V395.032H415.237V412.024H391.237ZM449.861 463.672C441.733 463.672 435.013 461.784 429.701 458.008C424.453 454.168 421.605 448.568 421.157 441.208H443.813C444.133 445.112 445.861 447.064 448.997 447.064C450.149 447.064 451.109 446.808 451.877 446.296C452.709 445.72 453.125 444.856 453.125 443.704C453.125 442.104 452.261 440.824 450.533 439.864C448.805 438.84 446.117 437.688 442.469 436.408C438.117 434.872 434.501 433.368 431.621 431.896C428.805 430.424 426.373 428.28 424.325 425.464C422.277 422.648 421.285 419.032 421.349 414.616C421.349 410.2 422.469 406.456 424.709 403.384C427.013 400.248 430.117 397.88 434.021 396.28C437.989 394.68 442.437 393.88 447.365 393.88C455.685 393.88 462.277 395.8 467.141 399.64C472.069 403.48 474.661 408.888 474.917 415.864H451.973C451.909 413.944 451.429 412.568 450.533 411.736C449.637 410.904 448.549 410.488 447.269 410.488C446.373 410.488 445.637 410.808 445.061 411.448C444.485 412.024 444.197 412.856 444.197 413.944C444.197 415.48 445.029 416.76 446.693 417.784C448.421 418.744 451.141 419.928 454.853 421.336C459.141 422.936 462.661 424.472 465.413 425.944C468.229 427.416 470.661 429.464 472.709 432.088C474.757 434.712 475.781 438.008 475.781 441.976C475.781 446.136 474.757 449.88 472.709 453.208C470.661 456.472 467.685 459.032 463.781 460.888C459.877 462.744 455.237 463.672 449.861 463.672ZM493.829 463.768C490.117 463.768 487.141 462.776 484.901 460.792C482.661 458.808 481.541 456.312 481.541 453.304C481.541 450.232 482.661 447.704 484.901 445.72C487.141 443.672 490.117 442.648 493.829 442.648C497.477 442.648 500.421 443.672 502.661 445.72C504.901 447.704 506.021 450.232 506.021 453.304C506.021 456.312 504.901 458.808 502.661 460.792C500.421 462.776 497.477 463.768 493.829 463.768Z" fill="#23254B"/>
<path d="M62.632 275.032V313.336C62.632 316.472 63.304 318.968 64.648 320.824C66.056 322.616 68.296 323.512 71.368 323.512C74.44 323.512 76.712 322.616 78.184 320.824C79.656 318.968 80.392 316.472 80.392 313.336V275.032H101.608V313.336C101.608 319.8 100.264 325.336 97.576 329.944C94.888 334.488 91.208 337.912 86.536 340.216C81.864 342.52 76.648 343.672 70.888 343.672C65.128 343.672 60.008 342.52 55.528 340.216C51.112 337.912 47.656 334.488 45.16 329.944C42.664 325.4 41.416 319.864 41.416 313.336V275.032H62.632ZM175.984 343H154.672L132.112 308.824V343H110.8V275.032H132.112L154.672 309.784V275.032H175.984V343ZM206.925 275.032V343H185.613V275.032H206.925ZM261.286 354.04L254.758 343.288C253.286 343.544 251.59 343.672 249.67 343.672C243.27 343.672 237.382 342.168 232.006 339.16C226.694 336.152 222.47 331.992 219.334 326.68C216.198 321.368 214.63 315.384 214.63 308.728C214.63 302.072 216.198 296.088 219.334 290.776C222.47 285.464 226.694 281.336 232.006 278.392C237.382 275.384 243.27 273.88 249.67 273.88C256.07 273.88 261.926 275.384 267.238 278.392C272.55 281.336 276.742 285.464 279.814 290.776C282.95 296.088 284.518 302.072 284.518 308.728C284.518 314.168 283.462 319.192 281.35 323.8C279.238 328.344 276.326 332.216 272.614 335.416L286.438 354.04H261.286ZM236.326 308.728C236.326 313.336 237.478 317.016 239.782 319.768C242.086 322.456 245.382 323.8 249.67 323.8C253.894 323.8 257.158 322.456 259.462 319.768C261.766 317.016 262.918 313.336 262.918 308.728C262.918 304.056 261.766 300.376 259.462 297.688C257.158 294.936 253.894 293.56 249.67 293.56C245.382 293.56 242.086 294.936 239.782 297.688C237.478 300.376 236.326 304.056 236.326 308.728ZM313.038 275.032V313.336C313.038 316.472 313.71 318.968 315.054 320.824C316.462 322.616 318.702 323.512 321.774 323.512C324.846 323.512 327.118 322.616 328.59 320.824C330.062 318.968 330.798 316.472 330.798 313.336V275.032H352.014V313.336C352.014 319.8 350.67 325.336 347.982 329.944C345.294 334.488 341.614 337.912 336.942 340.216C332.27 342.52 327.054 343.672 321.294 343.672C315.534 343.672 310.414 342.52 305.934 340.216C301.518 337.912 298.062 334.488 295.566 329.944C293.07 325.4 291.822 319.864 291.822 313.336V275.032H313.038ZM382.518 292.024V300.376H403.638V316.408H382.518V326.008H406.518V343H361.206V275.032H406.518V292.024H382.518Z" fill="white"/>
</svg>
