<svg width="77" height="60" viewBox="0 0 77 60" fill="none" xmlns="http://www.w3.org/2000/svg">
<path d="M27.4019 17.4963V24.118L19.8933 15.258V1.63786C19.8933 0.0971493 22.0036 -0.566885 23.0125 0.660459L26.4814 4.87969C27.0563 5.58103 27.3698 6.43905 27.3738 7.31945L27.4019 17.4963Z" fill="#23254B"/>
<path d="M48.9311 17.4963V24.1329L56.4438 15.2729V1.63786C56.4438 0.0971493 54.3335 -0.566885 53.3245 0.660459L49.7511 5.19305C49.2044 5.88693 48.911 6.7263 48.911 7.58805L48.9311 17.4963Z" fill="#23254B"/>
<path d="M15.4074 15.6904L16.2354 16.7088L14.5794 14.6943H14.5874L15.4074 15.6904Z" fill="#FC9F66"/>
<path d="M61.7617 14.695L59.6835 17.2243L61.7537 14.6875L61.7617 14.695Z" fill="#FC9F66"/>
<path d="M73.2097 0.637712L38.1665 43.4231L3.12326 0.637712C2.11835 -0.585901 0 0.0669411 0 1.61511V57.7223C0 58.6064 0.77177 59.3339 1.73648 59.3339H25.2795C25.7619 59.3339 26.196 59.1511 26.5095 58.8601C26.823 58.5691 27.02 58.1699 27.02 57.7223V47.7095L19.5073 38.5697V52.3578H7.5127V17.8131L36.7877 53.227C37.4871 54.0775 38.8538 54.0775 39.5532 53.227L68.8282 17.8131V52.3578H56.8336V38.5697L49.3209 47.7095V57.7223C49.3209 58.6064 50.1008 59.3339 51.0655 59.3339H74.6085C75.5692 59.3339 76.345 58.6101 76.345 57.7223V1.61511C76.3369 0.0669411 74.2186 -0.585901 73.2097 0.637712Z" fill="#FC9F66"/>
</svg>
