<svg width="20" height="16" viewBox="0 0 20 16" fill="none" xmlns="http://www.w3.org/2000/svg">
<g clip-path="url(#clip0_2832_25975)">
<path d="M19.6059 15.3119V15.3518H19.6432C19.6502 15.3519 19.6571 15.3502 19.6632 15.3467C19.6657 15.345 19.6676 15.3427 19.6689 15.34C19.6703 15.3374 19.6709 15.3344 19.6707 15.3314C19.6709 15.3285 19.6702 15.3256 19.6689 15.323C19.6676 15.3204 19.6657 15.3182 19.6632 15.3166C19.6572 15.313 19.6503 15.3112 19.6432 15.3115H19.6059V15.3119ZM19.6436 15.2837C19.6596 15.2827 19.6755 15.2873 19.6884 15.2966C19.6936 15.3009 19.6978 15.3063 19.7005 15.3124C19.7032 15.3186 19.7045 15.3252 19.7041 15.3319C19.7044 15.3377 19.7034 15.3435 19.7012 15.3488C19.699 15.3542 19.6957 15.359 19.6915 15.363C19.6815 15.3717 19.669 15.3769 19.6557 15.3778L19.7057 15.4347H19.6672L19.6212 15.3782H19.6063V15.4347H19.5741V15.2838H19.6441L19.6436 15.2837ZM19.6336 15.4868C19.6505 15.4869 19.6673 15.4835 19.6827 15.4768C19.6977 15.4704 19.7112 15.4612 19.7227 15.4498C19.7343 15.4383 19.7435 15.4248 19.7498 15.4099C19.763 15.3782 19.763 15.3427 19.7498 15.3111C19.7434 15.2962 19.7342 15.2827 19.7227 15.2712C19.7112 15.2597 19.6977 15.2506 19.6827 15.2442C19.6672 15.2378 19.6505 15.2346 19.6336 15.2348C19.6165 15.2346 19.5995 15.2378 19.5836 15.2442C19.5684 15.2504 19.5545 15.2596 19.5427 15.2712C19.5251 15.2893 19.5131 15.3122 19.5083 15.337C19.5036 15.3619 19.5063 15.3875 19.516 15.4109C19.5221 15.4258 19.5312 15.4394 19.5427 15.4508C19.5545 15.4623 19.5684 15.4715 19.5836 15.4778C19.5994 15.4845 19.6165 15.4879 19.6336 15.4878M19.6336 15.1985C19.6776 15.1984 19.7198 15.2156 19.7511 15.2464C19.7663 15.2611 19.7783 15.2787 19.7865 15.2981C19.7951 15.3181 19.7995 15.3395 19.7995 15.3612C19.7995 15.3829 19.7951 15.4044 19.7865 15.4243C19.7781 15.4436 19.7661 15.4612 19.7511 15.4761C19.7358 15.4908 19.718 15.5026 19.6984 15.511C19.678 15.5197 19.6559 15.5241 19.6336 15.524C19.6111 15.5241 19.5888 15.5197 19.568 15.511C19.5483 15.5028 19.5303 15.4909 19.5149 15.4761C19.5 15.4607 19.4882 15.4425 19.48 15.4226C19.4715 15.4027 19.4671 15.3812 19.4671 15.3595C19.4671 15.3378 19.4715 15.3164 19.48 15.2964C19.4883 15.277 19.5003 15.2594 19.5154 15.2447C19.5306 15.2296 19.5487 15.2177 19.5685 15.2097C19.5893 15.201 19.6116 15.1966 19.6341 15.1968M4.32164 14.6156C4.32164 14.3278 4.51064 14.0914 4.81954 14.0914C5.11474 14.0914 5.31394 14.3176 5.31394 14.6156C5.31394 14.9136 5.11474 15.1398 4.81954 15.1398C4.51064 15.1398 4.32164 14.9034 4.32164 14.6156ZM5.65044 14.6156V13.7966H5.29354V13.9961C5.18034 13.8486 5.00864 13.7562 4.77514 13.7562C4.31514 13.7562 3.95414 14.1161 3.95414 14.616C3.95414 15.1159 4.31494 15.4758 4.77514 15.4758C5.00854 15.4758 5.18034 15.3832 5.29354 15.2359V15.4347H5.65004V14.6156H5.65044ZM17.7096 14.6156C17.7096 14.3278 17.8986 14.0914 18.2076 14.0914C18.5031 14.0914 18.702 14.3176 18.702 14.6156C18.702 14.9136 18.5031 15.1398 18.2076 15.1398C17.8987 15.1398 17.7096 14.9034 17.7096 14.6156ZM19.0388 14.6156V13.1392H18.6816V13.9961C18.5684 13.8486 18.3967 13.7562 18.1632 13.7562C17.7032 13.7562 17.3422 14.1161 17.3422 14.616C17.3422 15.1159 17.703 15.4758 18.1632 15.4758C18.3967 15.4758 18.5684 15.3832 18.6816 15.2359V15.4347H19.0388V14.6156ZM10.08 14.0745C10.31 14.0745 10.4577 14.2183 10.4954 14.4716H9.64384C9.68194 14.2352 9.82584 14.0745 10.0801 14.0745M10.0872 13.7553C9.60624 13.7553 9.26974 14.1044 9.26974 14.6151C9.26974 15.1357 9.61974 15.4749 10.1111 15.4749C10.3583 15.4749 10.5847 15.4133 10.7839 15.2455L10.609 14.9816C10.4714 15.0913 10.2962 15.1529 10.1315 15.1529C9.90154 15.1529 9.69214 15.0466 9.64064 14.7519H10.8593C10.8628 14.7076 10.8664 14.6629 10.8664 14.615C10.8628 14.1045 10.5464 13.7552 10.087 13.7552M14.396 14.615C14.396 14.3272 14.585 14.0908 14.8939 14.0908C15.1891 14.0908 15.3883 14.317 15.3883 14.615C15.3883 14.913 15.1891 15.1392 14.8939 15.1392C14.585 15.1392 14.3959 14.9028 14.3959 14.615M15.7247 14.615V13.7966H15.368V13.9961C15.2544 13.8486 15.0831 13.7562 14.8496 13.7562C14.3896 13.7562 14.0286 14.1161 14.0286 14.616C14.0286 15.1159 14.3894 15.4758 14.8496 15.4758C15.0831 15.4758 15.2544 15.3832 15.368 15.2359V15.4347H15.7248V14.6156L15.7247 14.615ZM12.3805 14.615C12.3805 15.1117 12.7271 15.4748 13.2561 15.4748C13.5033 15.4748 13.668 15.4199 13.8461 15.2796L13.6747 14.9918C13.5407 15.0878 13.4 15.1392 13.2447 15.1392C12.9598 15.1357 12.7503 14.9302 12.7503 14.615C12.7503 14.2997 12.9598 14.0943 13.2447 14.0908C13.3996 14.0908 13.5403 14.1421 13.6747 14.2382L13.8461 13.9504C13.6677 13.81 13.503 13.7552 13.2561 13.7552C12.7271 13.7552 12.3805 14.1182 12.3805 14.615ZM16.9815 13.7552C16.7756 13.7552 16.6415 13.8512 16.5488 13.9951V13.7966H16.1951V15.4338H16.5524V14.516C16.5524 14.2451 16.6691 14.0945 16.9024 14.0945C16.9788 14.0934 17.0547 14.1074 17.1256 14.1357L17.2356 13.8002C17.1566 13.7691 17.0536 13.7555 16.9813 13.7555M7.41494 13.9268C7.24324 13.8138 7.00664 13.7555 6.74564 13.7555C6.32984 13.7555 6.06214 13.9543 6.06214 14.2796C6.06214 14.5466 6.26144 14.7113 6.62844 14.7626L6.79704 14.7866C6.99274 14.814 7.08514 14.8654 7.08514 14.9579C7.08514 15.0844 6.95514 15.1567 6.71104 15.1567C6.46384 15.1567 6.28544 15.0779 6.16514 14.9854L5.99744 15.263C6.19314 15.4069 6.44034 15.4755 6.70804 15.4755C7.18204 15.4755 7.45674 15.2528 7.45674 14.9411C7.45674 14.6533 7.24054 14.5028 6.88334 14.4514L6.71514 14.427C6.56064 14.4071 6.43684 14.3761 6.43684 14.2663C6.43684 14.1466 6.55354 14.0746 6.74934 14.0746C6.95884 14.0746 7.16164 14.1534 7.26104 14.215L7.41554 13.9272L7.41494 13.9268ZM12.02 13.7558C11.8141 13.7558 11.68 13.8518 11.5877 13.9957V13.7966H11.234V15.4338H11.5909V14.516C11.5909 14.2451 11.7076 14.0945 11.9409 14.0945C12.0173 14.0934 12.0932 14.1074 12.1641 14.1357L12.2741 13.8002C12.1951 13.7691 12.0921 13.7555 12.0198 13.7555M8.97444 13.7966H8.39084V13.2999H8.03004V13.7966H7.69714V14.122H8.03004V14.8689C8.03004 15.2487 8.17784 15.475 8.60004 15.475C8.75494 15.475 8.93334 15.4271 9.04654 15.3484L8.94344 15.0435C8.83694 15.1051 8.72024 15.1361 8.62744 15.1361C8.44904 15.1361 8.39084 15.0264 8.39084 14.8621V14.1223H8.97444V13.7966ZM3.63854 15.4342V14.4067C3.63854 14.0197 3.39134 13.7594 2.99284 13.7559C2.78334 13.7524 2.56724 13.8174 2.41594 14.0472C2.30274 13.8656 2.12434 13.7559 1.87354 13.7559C1.69824 13.7559 1.52694 13.8072 1.39284 13.999V13.7966H1.03564V15.4338H1.39564V14.526C1.39564 14.2418 1.55364 14.0908 1.79764 14.0908C2.03464 14.0908 2.15454 14.2449 2.15454 14.5224V15.4336H2.51534V14.5258C2.51534 14.2416 2.68004 14.0906 2.91694 14.0906C3.16064 14.0906 3.27694 14.2447 3.27694 14.5222V15.4334L3.63854 15.4342Z" fill="#231F20"/>
<path d="M19.8095 9.98796V9.74854H19.747L19.6747 9.91284L19.6028 9.74854H19.5401V9.98796H19.5845V9.80759L19.6521 9.96322H19.6981L19.7657 9.80719V9.98796H19.8097H19.8095ZM19.413 9.98796V9.78954H19.493V9.74913H19.2886V9.78954H19.3686V9.98796H19.4126H19.413Z" fill="#F79410"/>
<path d="M12.7055 11.0149H7.29688V1.31836H12.7056L12.7055 11.0149Z" fill="#FF5F00"/>
<path d="M7.64 6.16652C7.64 4.19959 8.5632 2.44743 10.0008 1.31827C8.91261 0.462289 7.56669 -0.00228008 6.1809 -0.000237433C2.7672 -0.000237433 0 2.76067 0 6.16652C0 9.57237 2.7672 12.3333 6.1809 12.3333C7.56672 12.3353 8.91268 11.8708 10.0009 11.0148C8.5634 9.88581 7.64 8.13355 7.64 6.16652Z" fill="#EB001B"/>
<path d="M20.0024 6.16676C20.0024 9.57261 17.2352 12.3335 13.8215 12.3335C12.4355 12.3355 11.0894 11.871 10.001 11.015C11.439 9.88585 12.3622 8.1338 12.3622 6.16676C12.3622 4.19973 11.439 2.44768 10.001 1.31851C11.0894 0.462559 12.4354 -0.00200013 13.8214 6.47327e-06C17.2351 6.47327e-06 20.0023 2.76092 20.0023 6.16676" fill="#F79E1B"/>
</g>
<defs>
<clipPath id="clip0_2832_25975">
<rect width="20" height="15.5224" fill="white"/>
</clipPath>
</defs>
</svg>
