<svg width="62" height="70" viewBox="0 0 62 70" fill="none" xmlns="http://www.w3.org/2000/svg">
<path d="M42.0746 67.4142V8.34504C42.0746 6.91687 40.9169 5.75928 39.4887 5.75928H3.3758C1.94764 5.75928 0.790039 6.91701 0.790039 8.34504V67.4142C0.790039 68.8424 1.94777 70 3.3758 70H39.4888C40.9169 70 42.0746 68.8423 42.0746 67.4142Z" fill="#FB2E86"/>
<path d="M47.9667 5.75903H39.3125C40.7407 5.75903 41.8984 6.91677 41.8984 8.34479V67.414C41.8984 68.8422 40.7407 69.9998 39.3125 69.9998H47.9667C49.3948 69.9998 50.5526 68.842 50.5526 67.414V8.34493C50.5526 6.91677 49.3948 5.75903 47.9667 5.75903Z" fill="#FB2E86"/>
<path d="M5.0166 64.8492V10.9098C5.0166 10.3993 5.43045 9.9856 5.94082 9.9856H45.4022C45.9127 9.9856 46.3264 10.3994 46.3264 10.9098V64.8492C46.3264 65.3597 45.9126 65.7734 45.4022 65.7734H5.94082C5.43031 65.7734 5.0166 65.3597 5.0166 64.8492Z" fill="#F5F5F5"/>
<path d="M45.4022 9.9856H36.748C37.2586 9.9856 37.6723 10.3994 37.6723 10.9098V64.8492C37.6723 65.3597 37.2584 65.7734 36.748 65.7734H45.4022C45.9127 65.7734 46.3264 65.3596 46.3264 64.8492V10.9098C46.3264 10.3994 45.9127 9.9856 45.4022 9.9856Z" fill="#EAEAEA"/>
<path d="M31.1645 3.21809V1.85678C31.1645 0.831387 30.3333 0 29.3077 0H22.0347C21.0092 0 20.1779 0.831387 20.1779 1.85678V3.21809C20.1779 3.6374 19.8379 3.97742 19.4186 3.97742H16.3916C15.3847 3.97742 14.5684 4.79377 14.5684 5.8007V9.98566H36.7741V5.8007C36.7741 4.79377 35.9577 3.97742 34.9508 3.97742H31.9238C31.5045 3.97742 31.1645 3.6374 31.1645 3.21809Z" fill="#C2D0DA"/>
<path d="M10.3926 24.9909V16.851C10.3926 15.9492 11.1238 15.218 12.0255 15.218H20.1655C21.0673 15.218 21.7985 15.9492 21.7985 16.851V24.9909C21.7985 25.8927 21.0673 26.6239 20.1655 26.6239H12.0255C11.1236 26.6239 10.3926 25.8927 10.3926 24.9909Z" fill="#FB2E86"/>
<path d="M10.3926 41.9494V33.8095C10.3926 32.9077 11.1238 32.1765 12.0255 32.1765H20.1655C21.0673 32.1765 21.7985 32.9077 21.7985 33.8095V41.9494C21.7985 42.8512 21.0673 43.5824 20.1655 43.5824H12.0255C11.1236 43.5824 10.3926 42.8512 10.3926 41.9494Z" fill="#FB2E86"/>
<path d="M10.3926 58.9079V50.768C10.3926 49.8662 11.1238 49.135 12.0255 49.135H20.1655C21.0673 49.135 21.7985 49.8662 21.7985 50.768V58.9079C21.7985 59.8097 21.0673 60.5409 20.1655 60.5409H12.0255C11.1236 60.5409 10.3926 59.8099 10.3926 58.9079Z" fill="#FB2E86"/>
<path d="M15.407 23.836C15.4058 23.836 15.4047 23.836 15.4035 23.836C14.9371 23.8349 14.4948 23.6091 14.2202 23.2322L12.9867 21.5382C12.6432 21.0665 12.7471 20.4058 13.2188 20.0623C13.6905 19.719 14.3513 19.8229 14.6946 20.2945L15.4097 21.2768L17.5009 18.4358C17.8468 17.9659 18.5079 17.8655 18.9777 18.2113C19.4476 18.5571 19.5481 19.2184 19.2022 19.6883L16.5892 23.2382C16.3137 23.6126 15.8719 23.836 15.407 23.836Z" fill="#F6F9F9"/>
<path d="M15.4069 41.1636C15.4055 41.1636 15.4043 41.1636 15.403 41.1636C14.9367 41.1624 14.4944 40.9367 14.2199 40.5595L12.9867 38.8658C12.6432 38.3941 12.7471 37.7334 13.2188 37.3899C13.6905 37.0466 14.3513 37.1505 14.6946 37.6221L15.4097 38.6044L17.5009 35.7634C17.8468 35.2936 18.5079 35.1931 18.9777 35.5389C19.4476 35.8847 19.5481 36.546 19.2022 37.0159L16.5892 40.5658C16.3137 40.9405 15.8719 41.1636 15.4069 41.1636Z" fill="#F6F9F9"/>
<path d="M15.4068 57.7532C15.4056 57.7532 15.4044 57.7532 15.4033 57.7531C14.9371 57.752 14.4946 57.5263 14.2201 57.1495L12.9866 55.4553C12.6432 54.9836 12.7472 54.323 13.2189 53.9795C13.6909 53.6361 14.3514 53.7403 14.6947 54.2118L15.4097 55.194L17.5009 52.353C17.8468 51.8832 18.508 51.7827 18.9778 52.1285C19.4477 52.4743 19.5482 53.1356 19.2023 53.6055L16.5893 57.1554C16.3135 57.5298 15.8718 57.7532 15.4068 57.7532Z" fill="#F6F9F9"/>
<path d="M40.1179 19.7703H27.0592C26.4758 19.7703 26.0029 19.2974 26.0029 18.714C26.0029 18.1306 26.4758 17.6577 27.0592 17.6577H40.1179C40.7013 17.6577 41.1742 18.1306 41.1742 18.714C41.1742 19.2974 40.7013 19.7703 40.1179 19.7703Z" fill="#DDEAFB"/>
<path d="M33.5875 24.1846H27.0582C26.4749 24.1846 26.002 23.7117 26.002 23.1283C26.002 22.5449 26.4749 22.072 27.0582 22.072H33.5875C34.1709 22.072 34.6438 22.5449 34.6438 23.1283C34.6438 23.7117 34.1709 24.1846 33.5875 24.1846Z" fill="#DDEAFB"/>
<path d="M35.82 36.7288H27.0582C26.4749 36.7288 26.002 36.2559 26.002 35.6725C26.002 35.0891 26.4749 34.6162 27.0582 34.6162H35.82C36.4034 34.6162 36.8763 35.0891 36.8763 35.6725C36.8763 36.2559 36.4034 36.7288 35.82 36.7288Z" fill="#DDEAFB"/>
<path d="M33.5875 41.1431H27.0582C26.4749 41.1431 26.002 40.6702 26.002 40.0868C26.002 39.5034 26.4749 39.0305 27.0582 39.0305H33.5875C34.1709 39.0305 34.6438 39.5034 34.6438 40.0868C34.6438 40.6702 34.1709 41.1431 33.5875 41.1431Z" fill="#DDEAFB"/>
<path d="M57.0996 27.5784L56.0625 26.2121L52.1817 23.7545L50.69 23.5195L30.8186 54.9201C30.3391 55.6773 29.9873 56.5081 29.7773 57.3793C32.1951 57.4092 34.3896 58.7988 35.4504 60.9717C36.1482 60.4094 36.7488 59.7362 37.2282 58.979L57.0996 27.5784Z" fill="#FC8086"/>
<path d="M59.9052 17.909L58.2283 16.8471C56.9212 16.0192 55.1903 16.4082 54.3629 17.7156L52.8252 20.1455L53.3157 21.1344L57.982 24.0893L59.235 24.2044L60.7736 21.773C61.6005 20.4663 61.2118 18.7364 59.9052 17.909Z" fill="#8C9BA6"/>
<path d="M50.6924 23.5107L52.8286 20.1368L59.2394 24.1957L57.1032 27.5697L50.6924 23.5107Z" fill="#C9E2E7"/>
<path d="M35.4508 60.9718L29.7927 65.5314C28.9945 66.1746 27.8349 65.4403 28.0751 64.4438L29.7778 57.3794C32.1955 57.4092 34.3901 58.7989 35.4508 60.9718Z" fill="#7C8B96"/>
<path d="M33.9665 59.0145L54.7968 26.1202L53.012 24.99L32.1816 57.8843C32.8352 58.1596 33.4381 58.5415 33.9665 59.0145Z" fill="#FB636F"/>
</svg>
