<svg width="64" height="20" viewBox="0 0 64 20" fill="none" xmlns="http://www.w3.org/2000/svg">
<path d="M63.5954 5.89916C63.0162 4.24308 61.4377 3.05386 59.5836 3.05386H59.5448C58.3396 3.05386 57.2534 3.55549 56.4802 4.36078C55.7056 3.55549 54.6194 3.05386 53.4155 3.05386H53.3767C52.3172 3.05386 51.3488 3.44177 50.605 4.08389V3.75748C50.5796 3.4324 50.312 3.17694 49.9816 3.17694H47.1376C46.7899 3.17694 46.5089 3.45785 46.5089 3.80697V19.2508C46.5089 19.5999 46.7899 19.8808 47.1376 19.8808H49.9816C50.2986 19.8808 50.5595 19.6441 50.601 19.3377L50.5996 8.25083C50.5993 8.21375 50.6011 8.17668 50.6049 8.1398C50.6504 7.64484 51.0129 7.2382 51.5855 7.18735H52.1098C52.3493 7.20873 52.5513 7.29303 52.7105 7.42009C52.9579 7.61674 53.0957 7.91907 53.0957 8.25083L53.1064 19.2829C53.1064 19.632 53.3887 19.9142 53.7351 19.9142H56.5791C56.9149 19.9142 57.1877 19.6467 57.2038 19.3136L57.2025 8.23611C57.2011 7.87224 57.3697 7.54318 57.6653 7.34786C57.8111 7.2542 57.9864 7.19137 58.1884 7.17263H58.7127C59.3281 7.22614 59.7 7.693 59.6986 8.23611L59.7093 19.2534C59.7093 19.6026 59.9916 19.8835 60.338 19.8835H63.182C63.5285 19.8835 63.8107 19.6026 63.8107 19.2534V7.40405C63.8107 6.59607 63.7198 6.2523 63.5954 5.89916M44.3424 3.21717H42.7157V0.573868C42.7157 0.256826 42.4589 0 42.1418 0C42.1044 0 42.0683 0.00530868 42.0335 0.0120204C40.2303 0.506979 40.5914 3.00449 37.2994 3.21717H36.9796C36.9315 3.21717 36.886 3.22385 36.8419 3.23321H36.8392L36.8419 3.23454C36.5609 3.29745 36.3496 3.54624 36.3496 3.84591V6.68985C36.3496 7.03631 36.6318 7.31855 36.9796 7.31855H38.6959L38.6933 19.378C38.6933 19.7217 38.9715 20 39.3153 20H42.1271C42.4696 20 42.7479 19.7217 42.7479 19.378L42.7491 7.31855H44.3424C44.6888 7.31855 44.9711 7.03631 44.9711 6.68985V3.84591C44.9711 3.49944 44.6888 3.21721 44.3424 3.21721" fill="#00BAF2"/>
<path d="M34.1104 3.21724H31.2664C30.92 3.21724 30.639 3.49951 30.639 3.84593V9.72651C30.6323 10.0903 30.338 10.382 29.9728 10.382H28.7823C28.4131 10.382 28.1148 10.085 28.1148 9.71578L28.1041 3.84597C28.1041 3.49951 27.8218 3.21727 27.4754 3.21727H24.6314C24.2836 3.21727 24.0027 3.49951 24.0027 3.84597V10.291C24.0027 12.739 25.7484 14.4847 28.1977 14.4847C28.1977 14.4847 30.0357 14.4847 30.0919 14.4954C30.4237 14.5329 30.6818 14.8111 30.6818 15.1535C30.6818 15.492 30.429 15.7689 30.1013 15.8104C30.0852 15.813 30.0705 15.817 30.0531 15.8197L25.8942 15.8345C25.5464 15.8345 25.2655 16.1167 25.2655 16.4632V19.3058C25.2655 19.6536 25.5464 19.9345 25.8942 19.9345H30.5441C32.9947 19.9345 34.7391 18.1901 34.7391 15.7408V3.84597C34.7391 3.49951 34.4582 3.21727 34.1104 3.21727M6.58284 8.42828V10.1834C6.58284 10.5512 6.28453 10.8509 5.91668 10.8509L4.1121 10.8522V7.33537H5.91668C6.28453 7.33537 6.58284 7.63231 6.58284 8.00153V8.42828ZM6.83299 3.21655H0.616679C0.275558 3.21655 0 3.49348 0 3.83323V6.61968C0 6.62503 0.00132717 6.63038 0.00132717 6.63572C0.00132717 6.64911 0 6.66249 0 6.67451V19.2864C0 19.6288 0.256826 19.9084 0.575233 19.9164H3.47264C3.8191 19.9164 4.10133 19.6355 4.10133 19.2878L4.11207 14.9656H6.83295C9.1097 14.9656 10.6962 13.3858 10.6962 11.0996V7.08791C10.6962 4.80176 9.1097 3.21659 6.83295 3.21659L6.83299 3.21655ZM18.3828 15.105V15.5491C18.3828 15.5852 18.3775 15.62 18.3722 15.6535C18.3655 15.6848 18.3565 15.7157 18.3454 15.7458C18.2571 15.9946 18.0083 16.1752 17.7126 16.1752H16.5288C16.1596 16.1752 15.8586 15.8943 15.8586 15.5491V15.0127C15.8586 15.006 15.8573 14.9993 15.8573 14.9926L15.8586 13.5653V13.1185L15.8599 13.1145C15.8613 12.7707 16.1596 12.4925 16.5288 12.4925H17.7126C18.0832 12.4925 18.3829 12.7721 18.3829 13.1185L18.3828 15.105ZM17.9308 3.2329H13.9845C13.6354 3.2329 13.3532 3.49776 13.3532 3.8228V4.9291C13.3532 4.93577 13.3545 4.94381 13.3545 4.95048C13.3545 4.95852 13.3531 4.96652 13.3531 4.97456V6.49019C13.3531 6.834 13.6528 7.11491 14.022 7.11491H17.7796C18.0765 7.16174 18.312 7.37845 18.3454 7.71687V8.0834C18.312 8.40579 18.0792 8.64119 17.7956 8.66796H15.9349C13.4602 8.66796 11.6971 10.312 11.6971 12.6209V15.9277C11.6971 18.2232 13.2127 19.8565 15.67 19.8565H20.8269C21.7525 19.8565 22.503 19.1556 22.503 18.2928V7.50149C22.503 4.88496 21.1546 3.2329 17.9307 3.2329H17.9308Z" fill="#1F336B"/>
</svg>
