<svg width="122" height="72" viewBox="0 0 122 72" fill="none" xmlns="http://www.w3.org/2000/svg">
<path d="M109 30.4539V3C109 1.89543 108.105 1 107 1H3C1.89543 1 1 1.89543 1 3V68.1525C1 69.2571 1.89543 70.1525 3 70.1525H107C108.105 70.1525 109 69.2571 109 68.1525V47.9554" stroke="#ABABAB" stroke-width="2"/>
<line x1="1" y1="9.39111" x2="108.143" y2="9.39111" stroke="#ABABAB" stroke-width="2"/>
<path d="M121.707 40.1251C122.098 39.7346 122.098 39.1014 121.707 38.7109L115.343 32.3469C114.953 31.9564 114.32 31.9564 113.929 32.3469C113.539 32.7374 113.539 33.3706 113.929 33.7611L119.586 39.418L113.929 45.0748C113.539 45.4653 113.539 46.0985 113.929 46.489C114.32 46.8796 114.953 46.8796 115.343 46.489L121.707 40.1251ZM90.1431 40.418L121 40.418L121 38.418L90.1431 38.418L90.1431 40.418Z" fill="#ABABAB"/>
<path d="M5.28564 5.26855H8.28564" stroke="#ABABAB" stroke-width="2"/>
<path d="M10.2856 5.26855H13.2856" stroke="#ABABAB" stroke-width="2"/>
<path d="M15.2856 5.26855H18.2856" stroke="#ABABAB" stroke-width="2"/>
</svg>
