<svg width="32" height="8" viewBox="0 0 32 8" fill="none" xmlns="http://www.w3.org/2000/svg">
<path d="M29.2694 0.470703L31.0591 3.99749L27.2944 7.52953L29.2694 0.470703Z" fill="#018C45"/>
<path d="M28.0817 0.470703L29.6476 3.99749L26.3535 7.52953L28.0817 0.470703Z" fill="#F47920"/>
<path d="M3.69956 2.65482H4.522C4.81286 2.65482 5.02348 2.61421 5.15386 2.52792C5.28425 2.44162 5.38455 2.29442 5.43971 2.08122C5.49989 1.86294 5.48484 1.71574 5.39959 1.62944C5.31434 1.54315 5.10873 1.50254 4.78778 1.50254H4.01048L3.69956 2.65482ZM0.941406 6.17259L2.63642 0H5.34443C6.19193 0 6.7536 0.137056 7.04446 0.416244C7.3303 0.695432 7.38546 1.14721 7.21496 1.78173C7.10965 2.15736 6.95419 2.47208 6.73354 2.72081C6.5179 2.96954 6.23205 3.16751 5.88603 3.30965C6.18191 3.38071 6.37247 3.52284 6.45772 3.74112C6.54297 3.95432 6.53294 4.26904 6.42763 4.6802L6.22202 5.54315V5.56853C6.16185 5.81218 6.1819 5.93909 6.27719 5.94924L6.21701 6.17767H4.3866C4.39161 6.03046 4.40665 5.90355 4.41668 5.79188C4.43173 5.6802 4.44677 5.59391 4.46182 5.53299L4.63232 4.91878C4.71757 4.59898 4.72259 4.37563 4.64235 4.24366C4.56211 4.11168 4.38158 4.04569 4.09574 4.04569H3.32847L2.7317 6.17259H0.941406ZM12.2298 1.61929L10.9811 6.17259H9.46662L9.65217 5.50761C9.38638 5.77157 9.11057 5.97462 8.83475 6.10152C8.56395 6.2335 8.27309 6.29949 7.9722 6.29949C7.72146 6.29949 7.50582 6.25381 7.33532 6.16244C7.1598 6.07107 7.02941 5.93401 6.93914 5.75127C6.85891 5.59391 6.82882 5.39594 6.83885 5.15736C6.85389 4.92386 6.93413 4.53299 7.08457 3.98477L7.73149 1.61929H9.3914L8.74448 3.96954C8.6492 4.31472 8.62914 4.55838 8.67428 4.68528C8.72442 4.81726 8.8498 4.88833 9.0554 4.88833C9.26603 4.88833 9.44155 4.81218 9.58698 4.65482C9.73241 4.49746 9.84775 4.26904 9.933 3.95939L10.5749 1.61421H12.2298V1.61929ZM14.3711 2.77665H14.9579C15.334 2.77665 15.5998 2.73096 15.7552 2.63959C15.9057 2.54822 16.011 2.38071 16.0762 2.14721C16.1414 1.90863 16.1263 1.74619 16.026 1.65482C15.9307 1.56345 15.69 1.51777 15.2989 1.51777H14.7171L14.3711 2.77665ZM11.628 6.17259L13.318 0H15.6449C16.1564 0 16.5576 0.0304573 16.8384 0.0964472C17.1193 0.162437 17.3449 0.26396 17.5054 0.411168C17.711 0.604061 17.8364 0.84264 17.8915 1.13198C17.9417 1.41624 17.9116 1.75127 17.8063 2.14721C17.6157 2.83756 17.2847 3.36548 16.8133 3.73604C16.3369 4.10152 15.7502 4.28426 15.0531 4.28426H13.9649L13.4434 6.17259H11.628ZM20.1582 4.13706C19.9827 4.20812 19.752 4.27919 19.4712 4.35025C19.0249 4.47208 18.7741 4.63452 18.719 4.83249C18.6789 4.95939 18.6989 5.06091 18.7591 5.13706C18.8193 5.20812 18.9246 5.24366 19.075 5.24366C19.3509 5.24366 19.5715 5.17259 19.737 5.03553C19.9025 4.8934 20.0279 4.67513 20.1131 4.37056C20.1282 4.30457 20.1432 4.25888 20.1482 4.22335L20.1582 4.13706ZM19.7571 6.17259L19.7721 5.74112C19.5063 5.94416 19.2355 6.09645 18.9597 6.19289C18.6889 6.28934 18.398 6.3401 18.0921 6.3401C17.6207 6.3401 17.2948 6.2132 17.1042 5.95939C16.9187 5.71066 16.8886 5.35025 17.0139 4.88833C17.1343 4.43655 17.3549 4.10152 17.6659 3.88833C17.9768 3.67513 18.4983 3.51777 19.2305 3.42132C19.3208 3.40609 19.4461 3.39594 19.6016 3.37563C20.1432 3.31472 20.4441 3.16751 20.5093 2.92893C20.5444 2.79695 20.5243 2.70051 20.4441 2.64467C20.3689 2.58376 20.2234 2.5533 20.0178 2.5533C19.8473 2.5533 19.7069 2.58883 19.5916 2.66497C19.4762 2.74112 19.391 2.85279 19.3358 3.01015H17.721C17.8665 2.49746 18.1674 2.11168 18.6137 1.85279C19.06 1.58883 19.6467 1.46193 20.3789 1.46193C20.7199 1.46193 21.0308 1.49239 21.3016 1.56345C21.5724 1.62944 21.773 1.72589 21.8984 1.84264C22.0589 1.98985 22.1491 2.15228 22.1792 2.33503C22.2093 2.51777 22.1742 2.78173 22.0839 3.12183L21.3869 5.6599C21.3668 5.74112 21.3618 5.81726 21.3718 5.88325C21.3869 5.94924 21.4119 6.00508 21.4621 6.04061L21.427 6.16751H19.7571V6.17259ZM21.437 7.96954L21.8031 6.61929H22.2795C22.44 6.61929 22.5603 6.58883 22.6506 6.52792C22.7409 6.46701 22.8011 6.36548 22.8362 6.22843C22.8562 6.16751 22.8662 6.1066 22.8713 6.03553C22.8763 5.95939 22.8763 5.87817 22.8713 5.7868L22.6155 1.61421H24.2955L24.2704 4.37564L25.7347 1.61421H27.2943L24.7017 6.14721C24.4058 6.65482 24.1952 7 24.0598 7.19289C23.9244 7.38071 23.799 7.52792 23.6736 7.62437C23.5132 7.76142 23.3376 7.85787 23.1421 7.91371C22.9465 7.96954 22.6556 8 22.2595 8C22.1441 8 22.0137 8 21.8733 7.98985C21.7379 7.98985 21.5875 7.9797 21.437 7.96954Z" fill="#29387E"/>
</svg>
