<svg width="58" height="58" viewBox="0 0 58 58" fill="none" xmlns="http://www.w3.org/2000/svg">
<path d="M47.2 24.8V47.2ZM10.8 47.2V57H47.2V47.2M10.8 47.2H1V9.4L20.6 1H37.4L57 9.4V47.2H47.2M10.8 47.2V24.8Z" fill="#635D5D"/>
<path d="M47.2 24.8V47.2M10.8 47.2V57H47.2V47.2M10.8 47.2H1V9.4L20.6 1H37.4L57 9.4V47.2H47.2M10.8 47.2V24.8" stroke="white" stroke-opacity="0.5" stroke-width="2" stroke-linecap="round" stroke-linejoin="round"/>
<path d="M37.4 1L29 20.6L37.4 1ZM29 20.6L20.6 1L29 20.6ZM29 20.6V47.2V57" fill="#635D5D"/>
<path d="M37.4 1L29 20.6M29 20.6L20.6 1M29 20.6V47.2V57" stroke="white" stroke-opacity="0.5" stroke-width="2" stroke-linecap="round" stroke-linejoin="round"/>
<path d="M37.4 1L29 20.6L37.4 1Z" fill="#635D5D"/>
<path d="M37.4 1L29 20.6" stroke="white" stroke-opacity="0.5" stroke-width="2" stroke-linecap="round" stroke-linejoin="round"/>
<path d="M29 20.6L20.6 1L29 20.6Z" fill="#635D5D"/>
<path d="M29 20.6L20.6 1" stroke="white" stroke-opacity="0.5" stroke-width="2" stroke-linecap="round" stroke-linejoin="round"/>
<path d="M20.6 1L15 12.2L20.6 19.9L17.8 27.6L29 47.2" fill="#635D5D"/>
<path d="M20.6 1L15 12.2L20.6 19.9L17.8 27.6L29 47.2" stroke="white" stroke-opacity="0.5" stroke-width="2" stroke-linecap="round" stroke-linejoin="round"/>
<path d="M37.4 1L44.4 12.2L37.4 19.9L40.2 27.6L29 47.2" fill="#635D5D"/>
<path d="M37.4 1L44.4 12.2L37.4 19.9L40.2 27.6L29 47.2" stroke="white" stroke-opacity="0.5" stroke-width="2" stroke-linecap="round" stroke-linejoin="round"/>
</svg>
