<svg width="66" height="62" viewBox="0 0 66 62" fill="none" xmlns="http://www.w3.org/2000/svg">
<path d="M21.3479 0H44.5979C44.5979 0 42.6604 5.8125 32.9729 5.8125C23.2854 5.8125 21.3479 0 21.3479 0Z" fill="white" fill-opacity="0.5"/>
<path d="M57.306 26.7821L65.9104 15.5C58.1604 11.625 44.5979 0 44.5979 0C44.5979 0 40.7229 7.75 32.9729 7.75C25.2229 7.75 21.3479 0 21.3479 0C21.3479 0 7.7854 11.625 0.0354004 15.5L8.63596 26.784L17.4729 23.25C17.4729 23.25 17.9573 54.25 11.6604 60.0625C11.6604 60.0625 21.3479 62 32.9729 62C44.5979 62 54.2854 60.0625 54.2854 60.0625C47.9885 54.25 48.4729 23.25 48.4729 23.25L57.306 26.7821Z" fill="#635D5D"/>
<path d="M9.72312 27.125C9.43246 27.1257 9.14541 27.0607 8.88339 26.9349C8.62137 26.8091 8.39116 26.6257 8.20993 26.3984L0.459933 16.7109C0.292331 16.5133 0.166065 16.2841 0.0886051 16.0369C0.0111455 15.7896 -0.0159335 15.5293 0.0089703 15.2714C0.0338742 15.0135 0.110255 14.7632 0.233593 14.5354C0.356931 14.3075 0.524721 14.1067 0.727035 13.9448C0.929349 13.7829 1.16208 13.6633 1.41145 13.5929C1.66082 13.5226 1.92177 13.503 2.17885 13.5353C2.43594 13.5675 2.68394 13.651 2.90818 13.7809C3.13242 13.9107 3.32835 14.0841 3.48437 14.291L11.2344 23.9785C11.4619 24.2634 11.6044 24.6067 11.6455 24.9689C11.6866 25.3312 11.6247 25.6977 11.4669 26.0263C11.309 26.355 11.0617 26.6324 10.7532 26.8268C10.4447 27.0211 10.0877 27.1245 9.72312 27.125ZM56.2212 27.125C55.8566 27.1245 55.4996 27.0211 55.1911 26.8268C54.8827 26.6324 54.6353 26.355 54.4774 26.0263C54.3196 25.6977 54.2577 25.3312 54.2988 24.9689C54.3399 24.6067 54.4824 24.2634 54.7099 23.9785L62.4599 14.291C62.782 13.8933 63.2484 13.6392 63.7572 13.5841C64.266 13.5291 64.7759 13.6776 65.1756 13.9972C65.5753 14.3168 65.8323 14.7815 65.8905 15.29C65.9487 15.7984 65.8034 16.3093 65.4863 16.7109L57.7363 26.3984C57.5547 26.6257 57.3241 26.8091 57.0618 26.9349C56.7995 27.0607 56.5121 27.1257 56.2212 27.125V27.125ZM44.5981 0C44.5981 0 38.7856 5.8125 32.9731 5.8125C27.1606 5.8125 21.3481 0 21.3481 0L25.2231 13.5625L31.0356 9.20312V60.0625C31.0356 60.5764 31.2397 61.0692 31.6031 61.4325C31.9665 61.7959 32.4593 62 32.9731 62C33.487 62 33.9798 61.7959 34.3431 61.4325C34.7065 61.0692 34.9106 60.5764 34.9106 60.0625V9.20312L40.7231 13.5625L44.5981 0Z" fill="white" fill-opacity="0.5"/>
</svg>
