<svg width="60" height="63" viewBox="0 0 60 63" fill="none" xmlns="http://www.w3.org/2000/svg">
<path d="M59.5004 18.2059C58.9506 16.3868 59.5648 14.4587 59.223 12.6098C58.9407 11.0534 58.2424 9.5912 57.4103 8.25785C55.9046 5.84394 52.8537 4.75347 50.1593 4.41641C48.3367 4.18841 46.41 4.43128 44.7459 3.48951C43.5324 2.80549 42.2447 2.08181 40.9173 1.56632C37.5841 0.282531 33.7605 0.109047 30.2192 0.0049567L29.9914 0L29.7636 0.0049567C26.2272 0.109047 22.4036 0.282531 19.0704 1.56632C17.743 2.07685 16.4553 2.80053 15.2418 3.48951C13.5777 4.43128 11.651 4.18841 9.82342 4.41641C7.13403 4.74851 4.08308 5.83898 2.57742 8.25785C1.74535 9.5912 1.05195 11.0534 0.764683 12.6098C0.422937 14.4587 1.03709 16.3868 0.487324 18.2059C0.363503 18.6173 -0.156545 19.227 0.0465216 19.688C0.254541 20.1688 1.39865 20.5207 1.82954 20.7685C3.27082 21.6161 4.85573 22.2159 6.46045 22.6917C7.53521 23.0139 8.65455 23.6781 9.81847 23.5146C10.3187 23.4452 10.705 23.2419 10.7793 22.7264C11.0022 21.1502 11.5569 19.5442 12.072 18.0473C12.2107 17.6409 12.4187 16.9172 13.0031 16.9668C13.3994 17.0015 13.6223 17.854 13.5975 18.1663C13.5034 19.3509 13.226 20.5257 13.1814 21.7153C13.1319 22.9644 13.4885 23.9805 13.8848 25.1354C14.3305 26.4192 14.8753 27.6732 15.2616 28.9768C15.6727 30.3994 15.4251 31.9013 15.009 33.2941C14.0086 36.6151 12.6515 39.6535 11.3241 42.8457C10.8239 44.0402 10.388 45.2596 9.89772 46.4591C9.6752 47.0027 9.43737 47.5399 9.18451 48.07C8.49606 49.5174 7.02012 50.6029 7.20833 52.4071C7.5055 55.2423 10.1602 56.888 12.3642 58.2511C17.5994 61.4927 23.84 63.0293 29.9963 62.9996C36.1577 63.0293 42.3982 61.4977 47.6383 58.2511C49.8374 56.888 52.4971 55.2423 52.7943 52.4071C52.9825 50.6078 51.5016 49.5174 50.8181 48.07C50.5704 47.5446 50.3277 46.9994 50.1098 46.4591C49.6244 45.2596 49.1836 44.0402 48.6834 42.8457C47.3511 39.6535 45.994 36.6151 44.9985 33.2941C44.5824 31.9013 44.3299 30.3994 44.7459 28.9768C45.1273 27.6683 45.677 26.4192 46.1178 25.1354C46.519 23.9805 46.8707 22.9644 46.8261 21.7153C46.7865 20.5207 46.5041 19.3509 46.41 18.1663C46.3902 17.859 46.6082 17.0015 46.9994 16.9668C47.5888 16.9222 47.7968 17.6409 47.9355 18.0473C48.4506 19.5492 49.0053 21.1552 49.2282 22.7264C49.3025 23.2419 49.6888 23.4452 50.1891 23.5146C51.3579 23.6781 52.4674 23.0139 53.5471 22.6917C55.1518 22.2159 56.7318 21.6161 58.178 20.7685C58.6039 20.5207 59.748 20.1688 59.961 19.688C60.1443 19.227 59.6292 18.6173 59.5004 18.2059V18.2059Z" fill="#635D5D"/>
<path d="M25.1086 13.564C23.8128 14.1973 22.3226 14.0926 21.0119 13.5585L20.9272 13.5255C20.1846 13.2117 19.3972 12.6721 18.7892 12.0994C16.8455 10.2328 16.6511 6.97872 17.4186 4.43489C17.618 3.76864 18.3057 2.87115 19.0234 3.03633C19.1281 3.06386 19.2377 3.10791 19.3473 3.16848C20.065 3.58144 20.6032 4.24768 21.2561 4.75975C22.3924 5.65174 23.5686 6.04268 24.8494 6.59329C25.7465 6.97321 26.6685 7.28706 27.6004 7.50731C27.8496 7.56237 28.1287 7.65597 28.358 7.74957C28.7168 7.89824 28.7367 8.33873 28.7517 8.70214C28.7965 9.63267 27.9194 10.811 27.426 11.4937C26.803 12.3472 26.0405 13.1125 25.1086 13.564ZM41.2061 12.0939C40.603 12.6721 39.8156 13.2061 39.068 13.52L38.9883 13.553C37.6826 14.0871 36.1874 14.1917 34.8917 13.5585C33.9597 13.107 33.1972 12.3472 32.5692 11.4772C32.0758 10.8 31.1987 9.61615 31.2436 8.68562C31.2635 8.32221 31.2834 7.88172 31.6423 7.73306C31.8765 7.63395 32.1556 7.54585 32.3998 7.49079C33.3367 7.27054 34.2587 6.95669 35.1558 6.57677C36.4366 6.03166 37.6128 5.63522 38.7491 4.74323C39.402 4.23116 39.9452 3.55941 40.6579 3.15196C40.7675 3.09139 40.8771 3.04184 40.9818 3.01981C41.6995 2.85463 42.3822 3.75763 42.5816 4.41837C43.3491 6.97321 43.1547 10.2273 41.2061 12.0939Z" fill="white"/>
<path d="M30 54C31.1046 54 32 52.8807 32 51.5C32 50.1193 31.1046 49 30 49C28.8954 49 28 50.1193 28 51.5C28 52.8807 28.8954 54 30 54Z" fill="white"/>
<path d="M30 41C31.1046 41 32 40.1046 32 39C32 37.8954 31.1046 37 30 37C28.8954 37 28 37.8954 28 39C28 40.1046 28.8954 41 30 41Z" fill="white"/>
<path d="M30 29C31.1046 29 32 28.1046 32 27C32 25.8954 31.1046 25 30 25C28.8954 25 28 25.8954 28 27C28 28.1046 28.8954 29 30 29Z" fill="white"/>
<path d="M30 17C31.1046 17 32 15.8807 32 14.5C32 13.1193 31.1046 12 30 12C28.8954 12 28 13.1193 28 14.5C28 15.8807 28.8954 17 30 17Z" fill="white"/>
</svg>
