<svg width="52" height="52" viewBox="0 0 52 52" fill="none" xmlns="http://www.w3.org/2000/svg">
<circle cx="26" cy="26" r="26" fill="#E5ECFF"/>
<path d="M43 17.1962C41.7643 17.7473 40.4536 18.1091 39.1114 18.2695C40.5094 17.4259 41.5828 16.0901 42.0882 14.4985C40.7593 15.2924 39.3053 15.8519 37.7891 16.1525C36.554 14.8279 34.7946 14 32.8472 14C29.1082 14 26.0767 17.0519 26.0767 20.816C26.0767 21.3503 26.1366 21.8704 26.252 22.3694C20.6252 22.0851 15.6366 19.3716 12.2972 15.2477C11.7146 16.2544 11.3807 17.4254 11.3807 18.6744C11.3807 21.0392 12.5761 23.1254 14.3926 24.3478C13.3175 24.3139 12.266 24.0215 11.3259 23.4952C11.3255 23.5237 11.3255 23.5523 11.3255 23.5809C11.3255 26.8834 13.6593 29.6384 16.7564 30.2646C15.7594 30.5375 14.7136 30.5775 13.699 30.3814C14.5604 33.0893 17.0608 35.0599 20.0234 35.115C17.7063 36.9431 14.7869 38.0329 11.6151 38.0329C11.0685 38.0329 10.5297 38.0005 10 37.9376C12.9962 39.8716 16.5549 41 20.3782 41C32.8315 41 39.6412 30.6137 39.6412 21.6065C39.6412 21.3108 39.6348 21.0169 39.6216 20.7246C40.9471 19.76 42.0911 18.5651 43 17.1962" fill="#1877F2"/>
</svg>