<svg width="26" height="8" viewBox="0 0 26 8" fill="none" xmlns="http://www.w3.org/2000/svg">
<path d="M11.3604 7.86666H9.34829L10.6059 0.138098H12.6182L11.3604 7.86666ZM7.65555 0.138098L5.73726 5.45386L5.51027 4.30917L5.51048 4.30958L4.83342 0.833966C4.83342 0.833966 4.75155 0.138098 3.87893 0.138098H0.707622L0.67041 0.268961C0.67041 0.268961 1.6402 0.470734 2.77517 1.15234L4.52332 7.86686H6.61981L9.82109 0.138098H7.65555ZM23.4821 7.86666H25.3297L23.7188 0.137892H22.1013C21.3544 0.137892 21.1725 0.713854 21.1725 0.713854L18.1715 7.86666H20.269L20.6885 6.71866H23.2464L23.4821 7.86666ZM21.268 5.1328L22.3252 2.24059L22.92 5.1328H21.268ZM18.3288 1.99664L18.616 0.336976C18.616 0.336976 17.7299 0 16.8062 0C15.8077 0 13.4365 0.436416 13.4365 2.55854C13.4365 4.55518 16.2195 4.57999 16.2195 5.62876C16.2195 6.67752 13.7232 6.4896 12.8994 5.82825L12.6002 7.56358C12.6002 7.56358 13.4987 8 14.8714 8C16.2445 8 18.316 7.28904 18.316 5.35401C18.316 3.34455 15.5079 3.15745 15.5079 2.28379C15.5082 1.40993 17.4678 1.52218 18.3288 1.99664Z" fill="#2566AF"/>
<path d="M5.51047 4.30942L4.83342 0.833807C4.83342 0.833807 4.75155 0.137939 3.87893 0.137939H0.707622L0.67041 0.268802C0.67041 0.268802 2.19466 0.584692 3.65669 1.76825C5.05463 2.8995 5.51047 4.30942 5.51047 4.30942Z" fill="#E6A540"/>
</svg>
