<svg width="51" height="52" viewBox="0 0 51 52" fill="none" xmlns="http://www.w3.org/2000/svg">
<g clip-path="url(#clip0_145_394)">
<path d="M1.08831 25.6888C1.08712 30.0579 2.21549 34.3239 4.36108 38.084L0.883118 50.9312L13.8786 47.4839C17.4729 49.4636 21.5001 50.5009 25.5926 50.5011H25.6034C39.1134 50.5011 50.1109 39.379 50.1166 25.7084C50.1192 19.084 47.5716 12.8549 42.943 8.16847C38.3151 3.48242 32.1603 0.900362 25.6024 0.897339C12.0908 0.897339 1.09409 12.0189 1.08851 25.6888" fill="url(#paint0_linear_145_394)"/>
<path d="M0.213164 25.6807C0.21177 30.207 1.38059 34.6256 3.60267 38.5203L0 51.8281L13.4614 48.2572C17.1705 50.3031 21.3465 51.3818 25.5958 51.3835H25.6068C39.6015 51.3835 50.994 39.8612 51 25.7013C51.0024 18.8389 48.3631 12.3859 43.5691 7.53154C38.7745 2.6778 32.3995 0.00282171 25.6068 0C11.6097 0 0.218941 11.5206 0.213363 25.6807H0.213164ZM8.22973 37.8496L7.7271 37.0423C5.61418 33.6434 4.49896 29.7156 4.50055 25.6824C4.50513 13.9128 13.9728 4.33736 25.6148 4.33736C31.2526 4.33978 36.5511 6.56329 40.5362 10.5975C44.5212 14.6322 46.714 19.9954 46.7126 25.6997C46.7074 37.4692 37.2396 47.0459 25.6068 47.0459H25.5984C21.8107 47.0439 18.0958 46.0148 14.8561 44.07L14.0852 43.6074L6.09689 45.7263L8.22973 37.8494V37.8496Z" fill="url(#paint1_linear_145_394)"/>
<path d="M19.2601 14.9445C18.7847 13.8757 18.2845 13.8541 17.8325 13.8354C17.4623 13.8192 17.0392 13.8205 16.6165 13.8205C16.1933 13.8205 15.5058 13.9815 14.9247 14.6234C14.343 15.266 12.7038 16.8187 12.7038 19.9768C12.7038 23.1351 14.9775 26.1872 15.2944 26.6159C15.6118 27.0438 19.6838 33.732 26.1329 36.305C31.4927 38.4433 32.5834 38.018 33.7467 37.9108C34.9101 37.8039 37.5008 36.3584 38.0293 34.8595C38.5582 33.3608 38.5582 32.0761 38.3996 31.8076C38.241 31.5402 37.8179 31.3795 37.1834 31.0587C36.5487 30.7376 33.4293 29.1846 32.8478 28.9704C32.2661 28.7563 31.8431 28.6495 31.42 29.2923C30.9969 29.934 29.7818 31.3795 29.4115 31.8076C29.0415 32.2367 28.6712 32.2901 28.0369 31.9691C27.402 31.647 25.3586 30.97 22.9343 28.7834C21.0481 27.0819 19.7747 24.9807 19.4045 24.338C19.0344 23.6962 19.3649 23.3483 19.683 23.0285C19.9681 22.7409 20.3177 22.2789 20.6353 21.9042C20.9517 21.5294 21.0572 21.2619 21.2688 20.8338C21.4806 20.4053 21.3746 20.0304 21.2162 19.7094C21.0572 19.3883 19.8243 16.2139 19.2601 14.9447" fill="white"/>
</g>
<defs>
<linearGradient id="paint0_linear_145_394" x1="25.4999" y1="50.9312" x2="25.4999" y2="0.897339" gradientUnits="userSpaceOnUse">
<stop stop-color="#1FAF38"/>
<stop offset="1" stop-color="#60D669"/>
</linearGradient>
<linearGradient id="paint1_linear_145_394" x1="25.5" y1="51.8281" x2="25.5" y2="0" gradientUnits="userSpaceOnUse">
<stop stop-color="#C7F5DE"/>
<stop offset="1" stop-color="#5FFFAF"/>
</linearGradient>
<clipPath id="clip0_145_394">
<rect width="51" height="52" fill="white"/>
</clipPath>
</defs>
</svg>