<svg width="67" height="68" viewBox="0 0 67 68" fill="none" xmlns="http://www.w3.org/2000/svg">
<path d="M1.77974 25.2297L0.628174 11.8297C0.628174 11.8297 9.73599 8.06094 12.8766 7.53751C17.9016 6.70001 27.5329 5.44376 33.5 5.44376C39.4672 5.44376 48.9938 6.70001 54.1235 7.53751C57.3688 8.06094 66.3719 11.8297 66.3719 11.8297L65.2204 25.2297L52.5532 26.1719C52.3438 40.5141 54.5422 58.1016 55.2751 63.9641C55.2751 63.9641 45.9579 64.3828 33.5 64.4875C21.0422 64.3828 11.725 63.9641 11.725 63.9641C12.4579 58.1016 14.6563 40.5141 14.4469 26.1719L1.77974 25.2297Z" fill="#635D5D"/>
<path d="M33.5 12.9812H34.7563V64.4875H33.5V12.9812Z" fill="#635D5D"/>
<path d="M27.5328 5.86249H39.5719V13.1906H27.5328V5.86249Z" fill="#635D5D"/>
<path d="M22.8219 0H44.1782V6.90937H22.8219V0Z" fill="#635D5D"/>
<path d="M44.178 0L48.2608 6.49062L40.5139 18.5297L33.4999 13.1906L44.178 0Z" fill="white" fill-opacity="0.5"/>
<path d="M22.8218 0L18.739 6.49062L26.4859 18.5297L33.5 13.1906L22.8218 0Z" fill="white" fill-opacity="0.5"/>
<path d="M30.2547 24.0781C31.758 24.0781 32.9766 22.8595 32.9766 21.3562C32.9766 19.853 31.758 18.6344 30.2547 18.6344C28.7515 18.6344 27.5328 19.853 27.5328 21.3562C27.5328 22.8595 28.7515 24.0781 30.2547 24.0781Z" fill="#635D5D"/>
<path d="M30.2546 23.45C31.7001 23.45 32.8718 22.372 32.8718 21.0422C32.8718 19.7124 31.7001 18.6344 30.2546 18.6344C28.8092 18.6344 27.6375 19.7124 27.6375 21.0422C27.6375 22.372 28.8092 23.45 30.2546 23.45Z" fill="white"/>
<path d="M30.2547 32.9766C31.758 32.9766 32.9766 31.7579 32.9766 30.2547C32.9766 28.7514 31.758 27.5328 30.2547 27.5328C28.7515 27.5328 27.5328 28.7514 27.5328 30.2547C27.5328 31.7579 28.7515 32.9766 30.2547 32.9766Z" fill="#635D5D"/>
<path d="M30.2546 32.3484C31.7001 32.3484 32.8718 31.2704 32.8718 29.9406C32.8718 28.6108 31.7001 27.5328 30.2546 27.5328C28.8092 27.5328 27.6375 28.6108 27.6375 29.9406C27.6375 31.2704 28.8092 32.3484 30.2546 32.3484Z" fill="white"/>
<path d="M30.2547 41.875C31.758 41.875 32.9766 40.6564 32.9766 39.1531C32.9766 37.6499 31.758 36.4312 30.2547 36.4312C28.7515 36.4312 27.5328 37.6499 27.5328 39.1531C27.5328 40.6564 28.7515 41.875 30.2547 41.875Z" fill="#635D5D"/>
<path d="M30.2546 41.2469C31.7001 41.2469 32.8718 40.1689 32.8718 38.8391C32.8718 37.5093 31.7001 36.4312 30.2546 36.4312C28.8092 36.4312 27.6375 37.5093 27.6375 38.8391C27.6375 40.1689 28.8092 41.2469 30.2546 41.2469Z" fill="white"/>
<path d="M30.2547 50.7734C31.758 50.7734 32.9766 49.5548 32.9766 48.0516C32.9766 46.5483 31.758 45.3297 30.2547 45.3297C28.7515 45.3297 27.5328 46.5483 27.5328 48.0516C27.5328 49.5548 28.7515 50.7734 30.2547 50.7734Z" fill="#635D5D"/>
<path d="M30.2546 50.1453C31.7001 50.1453 32.8718 49.0673 32.8718 47.7375C32.8718 46.4077 31.7001 45.3297 30.2546 45.3297C28.8092 45.3297 27.6375 46.4077 27.6375 47.7375C27.6375 49.0673 28.8092 50.1453 30.2546 50.1453Z" fill="white"/>
<path d="M30.2547 59.6719C31.758 59.6719 32.9766 58.4532 32.9766 56.95C32.9766 55.4467 31.758 54.2281 30.2547 54.2281C28.7515 54.2281 27.5328 55.4467 27.5328 56.95C27.5328 58.4532 28.7515 59.6719 30.2547 59.6719Z" fill="#635D5D"/>
<path d="M30.2546 59.0437C31.7001 59.0437 32.8718 57.9657 32.8718 56.6359C32.8718 55.3061 31.7001 54.2281 30.2546 54.2281C28.8092 54.2281 27.6375 55.3061 27.6375 56.6359C27.6375 57.9657 28.8092 59.0437 30.2546 59.0437Z" fill="white"/>
<path d="M67 11.6203L63.5453 10.4688L62.2891 25.7531L65.9531 25.4391L67 11.6203ZM0 11.6203L3.45469 10.4688L4.71094 25.7531L1.04688 25.4391L0 11.6203ZM33.5 61.8703C44.7016 61.6609 53.6 60.1953 55.0656 59.2531C55.1703 61.2422 55.1703 62.9172 55.275 64.2781C55.275 64.2781 45.9578 66.8953 33.5 67.1047C21.0422 66.8953 11.725 64.2781 11.725 64.2781C11.8297 63.0219 11.9344 61.2422 11.9344 59.2531C13.4 60.0906 22.2984 61.6609 33.5 61.8703" fill="white" fill-opacity="0.5"/>
</svg>
