<svg width="19" height="20" viewBox="0 0 19 20" fill="none" xmlns="http://www.w3.org/2000/svg">
<path d="M13.7133 13.817C13.7133 13.3929 13.6924 12.9948 13.6505 12.6228C13.6087 12.2507 13.5287 11.8769 13.4108 11.5011C13.2928 11.1254 13.1424 10.8054 12.9597 10.5413C12.777 10.2772 12.5335 10.0614 12.229 9.89397C11.9245 9.72656 11.5781 9.64286 11.1899 9.64286C11.1442 9.67262 11.0167 9.74888 10.8074 9.87165C10.5981 9.99442 10.4363 10.0856 10.3221 10.1451C10.2079 10.2046 10.0538 10.279 9.85968 10.3683C9.66556 10.4576 9.47907 10.5208 9.30018 10.558C9.12129 10.5952 8.94431 10.6138 8.76923 10.6138C8.59415 10.6138 8.41717 10.5952 8.23828 10.558C8.05939 10.5208 7.8729 10.4576 7.67879 10.3683C7.48468 10.279 7.33053 10.2046 7.21635 10.1451C7.10216 10.0856 6.9404 9.99442 6.73107 9.87165C6.52173 9.74888 6.39423 9.67262 6.34856 9.64286C5.96034 9.64286 5.61398 9.72656 5.30949 9.89397C5.00501 10.0614 4.76142 10.2772 4.57873 10.5413C4.39603 10.8054 4.24569 11.1254 4.1277 11.5011C4.00972 11.8769 3.92979 12.2507 3.88792 12.6228C3.84605 12.9948 3.82512 13.3929 3.82512 13.817C3.82512 14.3601 3.98498 14.8121 4.30469 15.173C4.6244 15.5339 5.01643 15.7143 5.48077 15.7143H12.0577C12.522 15.7143 12.9141 15.5339 13.2338 15.173C13.5535 14.8121 13.7133 14.3601 13.7133 13.817ZM11.738 7.1875C11.738 6.38393 11.4468 5.6994 10.8645 5.13393C10.2822 4.56845 9.58373 4.28571 8.76923 4.28571C7.95473 4.28571 7.25631 4.56845 6.67398 5.13393C6.09165 5.6994 5.80048 6.38393 5.80048 7.1875C5.80048 7.98363 6.09165 8.66443 6.67398 9.22991C7.25631 9.79539 7.95473 10.0781 8.76923 10.0781C9.58373 10.0781 10.2822 9.79539 10.8645 9.22991C11.4468 8.66443 11.738 7.98363 11.738 7.1875ZM19 13.2143V15.3571C19 15.4613 18.9657 15.5469 18.8972 15.6138C18.8287 15.6808 18.7412 15.7143 18.6346 15.7143H17.5385V18.2143C17.5385 18.7054 17.3596 19.1257 17.0018 19.4754C16.644 19.8251 16.2139 20 15.7115 20H1.82692C1.32452 20 0.894431 19.8251 0.536659 19.4754C0.178886 19.1257 0 18.7054 0 18.2143V1.78571C0 1.29464 0.178886 0.874256 0.536659 0.524554C0.894431 0.174851 1.32452 0 1.82692 0H15.7115C16.2139 0 16.644 0.174851 17.0018 0.524554C17.3596 0.874256 17.5385 1.29464 17.5385 1.78571V4.28571H18.6346C18.7412 4.28571 18.8287 4.3192 18.8972 4.38616C18.9657 4.45312 19 4.53869 19 4.64286V6.78571C19 6.88988 18.9657 6.97545 18.8972 7.04241C18.8287 7.10938 18.7412 7.14286 18.6346 7.14286H17.5385V8.57143H18.6346C18.7412 8.57143 18.8287 8.60491 18.8972 8.67188C18.9657 8.73884 19 8.8244 19 8.92857V11.0714C19 11.1756 18.9657 11.2612 18.8972 11.3281C18.8287 11.3951 18.7412 11.4286 18.6346 11.4286H17.5385V12.8571H18.6346C18.7412 12.8571 18.8287 12.8906 18.8972 12.9576C18.9657 13.0246 19 13.1101 19 13.2143Z" fill="#635D5D"/>
</svg>
