<svg width="23" height="23" viewBox="0 0 23 23" fill="none" xmlns="http://www.w3.org/2000/svg">
<path d="M20.5357 16.5355V13.1358C20.5357 12.7003 20.3626 12.2827 20.0545 11.9748C19.7464 11.6668 19.3286 11.4938 18.8929 11.4938H12.3214V8.20989H13.9643C14.3999 8.20946 14.8175 8.03632 15.1255 7.72849C15.4335 7.42065 15.6067 7.00326 15.6071 6.56791V1.64198C15.6067 1.20663 15.4335 0.789241 15.1255 0.481404C14.8175 0.173568 14.3999 0.000434695 13.9643 0H9.03572C8.60014 0.000434695 8.18252 0.173568 7.87452 0.481404C7.56652 0.789241 7.39329 1.20663 7.39286 1.64198V6.56791C7.39329 7.00326 7.56652 7.42065 7.87452 7.72849C8.18252 8.03632 8.60014 8.20946 9.03572 8.20989H10.6786V11.4938H4.10715C3.67144 11.4938 3.25357 11.6668 2.94547 11.9748C2.63738 12.2827 2.46429 12.7003 2.46429 13.1358V16.5364C1.68997 16.7362 1.01514 17.2114 0.566299 17.8729C0.117461 18.5345 -0.0745721 19.3369 0.0261961 20.1298C0.126964 20.9228 0.513615 21.6517 1.11367 22.1801C1.71373 22.7085 2.486 23 3.28572 23C4.08544 23 4.85771 22.7085 5.45777 22.1801C6.05782 21.6517 6.44448 20.9228 6.54524 20.1298C6.64601 19.3369 6.45398 18.5345 6.00514 17.8729C5.5563 17.2114 4.88147 16.7362 4.10715 16.5364V13.1358H10.6786V16.5364C9.90425 16.7362 9.22942 17.2114 8.78058 17.8729C8.33174 18.5345 8.13971 19.3369 8.24048 20.1298C8.34124 20.9228 8.72789 21.6517 9.32795 22.1801C9.92801 22.7085 10.7003 23 11.5 23C12.2997 23 13.072 22.7085 13.672 22.1801C14.2721 21.6517 14.6588 20.9228 14.7595 20.1298C14.8603 19.3369 14.6683 18.5345 14.2194 17.8729C13.7706 17.2114 13.0958 16.7362 12.3214 16.5364V13.1358H18.8929V16.5355C18.1185 16.7354 17.4437 17.2106 16.9949 17.8721C16.546 18.5337 16.354 19.3361 16.4548 20.129C16.5555 20.9219 16.9422 21.6509 17.5422 22.1793C18.1423 22.7077 18.9146 22.9992 19.7143 22.9992C20.514 22.9992 21.2863 22.7077 21.8863 22.1793C22.4864 21.6509 22.873 20.9219 22.9738 20.129C23.0746 19.3361 22.8825 18.5337 22.4337 17.8721C21.9849 17.2106 21.31 16.7354 20.5357 16.5355ZM9.03572 1.64198H13.9643L13.9651 6.56791H9.03572V1.64198ZM4.92858 19.7037C4.92858 20.0285 4.83222 20.346 4.6517 20.616C4.47119 20.886 4.21461 21.0965 3.91441 21.2207C3.61422 21.345 3.2839 21.3775 2.96521 21.3142C2.64653 21.2508 2.3538 21.0944 2.12405 20.8648C1.89429 20.6352 1.73782 20.3426 1.67443 20.0241C1.61104 19.7056 1.64357 19.3754 1.76792 19.0754C1.89226 18.7754 2.10283 18.5189 2.373 18.3385C2.64316 18.1581 2.96079 18.0618 3.28572 18.0618C3.7213 18.0622 4.13891 18.2353 4.44691 18.5432C4.75491 18.851 4.92814 19.2684 4.92858 19.7037ZM13.1429 19.7037C13.1429 20.0285 13.0465 20.346 12.866 20.616C12.6855 20.886 12.4289 21.0965 12.1287 21.2207C11.8285 21.345 11.4982 21.3775 11.1795 21.3142C10.8608 21.2508 10.5681 21.0944 10.3383 20.8648C10.1086 20.6352 9.9521 20.3426 9.88871 20.0241C9.82532 19.7056 9.85785 19.3754 9.9822 19.0754C10.1065 18.7754 10.3171 18.5189 10.5873 18.3385C10.8574 18.1581 11.1751 18.0618 11.5 18.0618C11.9355 18.0624 12.353 18.2356 12.661 18.5434C12.9689 18.8512 13.1422 19.2685 13.1429 19.7037ZM19.7143 21.3457C19.3894 21.3457 19.0717 21.2494 18.8016 21.069C18.5314 20.8886 18.3208 20.6321 18.1965 20.3321C18.0721 20.0321 18.0396 19.7019 18.103 19.3834C18.1664 19.0649 18.3228 18.7723 18.5526 18.5427C18.7824 18.3131 19.0751 18.1567 19.3938 18.0933C19.7125 18.03 20.0428 18.0625 20.343 18.1868C20.6432 18.311 20.8997 18.5215 21.0803 18.7915C21.2608 19.0615 21.3571 19.379 21.3571 19.7037C21.3567 20.1391 21.1835 20.5565 20.8755 20.8643C20.5675 21.1722 20.1499 21.3453 19.7143 21.3457Z" fill="#635D5D"/>
</svg>
