<svg width="23" height="23" viewBox="0 0 23 23" fill="none" xmlns="http://www.w3.org/2000/svg">
<path d="M1 5.2C1 4.08609 1.4425 3.0178 2.23015 2.23015C3.0178 1.4425 4.08609 1 5.2 1H17.8C18.9139 1 19.9822 1.4425 20.7698 2.23015C21.5575 3.0178 22 4.08609 22 5.2V17.8C22 18.9139 21.5575 19.9822 20.7698 20.7698C19.9822 21.5575 18.9139 22 17.8 22H5.2C4.08609 22 3.0178 21.5575 2.23015 20.7698C1.4425 19.9822 1 18.9139 1 17.8V5.2Z" stroke="#635D5D" stroke-width="2" stroke-linecap="round" stroke-linejoin="round"/>
<path d="M7.82495 10.4502C9.2747 10.4502 10.45 9.27494 10.45 7.8252C10.45 6.37545 9.2747 5.2002 7.82495 5.2002C6.3752 5.2002 5.19995 6.37545 5.19995 7.8252C5.19995 9.27494 6.3752 10.4502 7.82495 10.4502Z" stroke="#635D5D" stroke-width="2" stroke-linecap="round" stroke-linejoin="round"/>
<path d="M14.1523 12.1521L5.19995 22H17.9396C19.0165 22 20.0492 21.5722 20.8107 20.8108C21.5722 20.0493 22 19.0165 22 17.9397V17.8C22 17.3107 21.8162 17.1228 21.4855 16.7605L17.254 12.1458C17.0567 11.9306 16.8168 11.759 16.5496 11.6417C16.2823 11.5245 15.9936 11.4643 15.7017 11.4648C15.4099 11.4654 15.1213 11.5269 14.8546 11.6452C14.5878 11.7635 14.3486 11.9361 14.1523 12.1521V12.1521Z" stroke="#635D5D" stroke-width="2" stroke-linecap="round" stroke-linejoin="round"/>
</svg>
