<svg width="20" height="22" viewBox="0 0 23 25" fill="none" xmlns="http://www.w3.org/2000/svg">
<path fill-rule="evenodd" clip-rule="evenodd" d="M22.6366 0.581617C22.7477 0.650301 22.8393 0.746213 22.9029 0.860259C22.9665 0.974304 22.9999 1.1027 23 1.23328V24.2333C23 24.4366 22.9192 24.6316 22.7754 24.7754C22.6317 24.9192 22.4367 24.9999 22.2333 24.9999H17.6333C17.43 24.9999 17.235 24.9192 17.0912 24.7754C16.9474 24.6316 16.8667 24.4366 16.8667 24.2333V21.9333H15.3333V24.2333C15.3333 24.4366 15.2526 24.6316 15.1088 24.7754C14.965 24.9192 14.77 24.9999 14.5667 24.9999H0.766667C0.563334 24.9999 0.368329 24.9192 0.224551 24.7754C0.0807736 24.6316 0 24.4366 0 24.2333V15.8C0.000122125 15.6391 0.0508271 15.4824 0.144938 15.3519C0.239049 15.2215 0.3718 15.124 0.5244 15.0732L9.2 12.1813V7.36662C9.2 7.22436 9.23959 7.0849 9.31433 6.96386C9.38907 6.84281 9.49601 6.74495 9.6232 6.68122L21.8899 0.547883C22.0069 0.489319 22.1369 0.461673 22.2676 0.467578C22.3983 0.473483 22.5254 0.512741 22.6366 0.581617V0.581617ZM9.2 13.7974L1.53333 16.3519V23.4666H9.2V13.7974ZM10.7333 23.4666H13.8V21.1666C13.8 20.9633 13.8808 20.7683 14.0246 20.6245C14.1683 20.4807 14.3633 20.3999 14.5667 20.3999H17.6333C17.8367 20.3999 18.0317 20.4807 18.1754 20.6245C18.3192 20.7683 18.4 20.9633 18.4 21.1666V23.4666H21.4667V2.47375L10.7333 7.84042V23.4666Z" fill="white"/>
<path d="M3.06665 17.3331H4.59998V18.8664H3.06665V17.3331ZM6.13332 17.3331H7.66665V18.8664H6.13332V17.3331ZM3.06665 20.3997H4.59998V21.9331H3.06665V20.3997ZM6.13332 20.3997H7.66665V21.9331H6.13332V20.3997ZM12.2667 14.2664H13.8V15.7997H12.2667V14.2664ZM15.3333 14.2664H16.8667V15.7997H15.3333V14.2664ZM12.2667 17.3331H13.8V18.8664H12.2667V17.3331ZM15.3333 17.3331H16.8667V18.8664H15.3333V17.3331ZM18.4 14.2664H19.9333V15.7997H18.4V14.2664ZM18.4 17.3331H19.9333V18.8664H18.4V17.3331ZM12.2667 11.1997H13.8V12.7331H12.2667V11.1997ZM15.3333 11.1997H16.8667V12.7331H15.3333V11.1997ZM18.4 11.1997H19.9333V12.7331H18.4V11.1997ZM12.2667 8.13307H13.8V9.66641H12.2667V8.13307ZM15.3333 8.13307H16.8667V9.66641H15.3333V8.13307ZM18.4 8.13307H19.9333V9.66641H18.4V8.13307ZM18.4 5.06641H19.9333V6.59974H18.4V5.06641Z" fill="white"/>
</svg>
