<svg width="22" height="22" viewBox="0 0 22 22" fill="none" xmlns="http://www.w3.org/2000/svg">
<path d="M6.10789 9.31324C5.66403 9.31324 5.32632 9.1164 5.09474 8.72272C4.86316 8.32828 4.87281 7.93884 5.12368 7.55439L9.43684 0.547838C9.66842 0.182613 9.99649 0 10.4211 0C10.8456 0 11.1737 0.182613 11.4053 0.547838L15.7184 7.55439C15.9693 7.93884 15.9789 8.32828 15.7474 8.72272C15.5158 9.1164 15.1781 9.31324 14.7342 9.31324H6.10789ZM16.7895 22C15.3421 22 14.1116 21.4956 13.0981 20.4868C12.0853 19.4773 11.5789 18.2516 11.5789 16.81C11.5789 15.3683 12.0853 14.1427 13.0981 13.1331C14.1116 12.1243 15.3421 11.6199 16.7895 11.6199C18.2368 11.6199 19.4673 12.1243 20.4808 13.1331C21.4936 14.1427 22 15.3683 22 16.81C22 18.2516 21.4936 19.4773 20.4808 20.4868C19.4673 21.4956 18.2368 22 16.7895 22ZM1.15789 21.4233C0.829825 21.4233 0.555018 21.3126 0.333474 21.0912C0.111158 20.8705 0 20.5968 0 20.27V13.3499C0 13.0232 0.111158 12.749 0.333474 12.5276C0.555018 12.3069 0.829825 12.1966 1.15789 12.1966H8.10526C8.43333 12.1966 8.70853 12.3069 8.93084 12.5276C9.15239 12.749 9.26316 13.0232 9.26316 13.3499V20.27C9.26316 20.5968 9.15239 20.8705 8.93084 21.0912C8.70853 21.3126 8.43333 21.4233 8.10526 21.4233H1.15789ZM16.7895 19.6933C17.6 19.6933 18.2851 19.4146 18.8447 18.8571C19.4044 18.2997 19.6842 17.6173 19.6842 16.81C19.6842 16.0026 19.4044 15.3202 18.8447 14.7628C18.2851 14.2053 17.6 13.9266 16.7895 13.9266C15.9789 13.9266 15.2939 14.2053 14.7342 14.7628C14.1746 15.3202 13.8947 16.0026 13.8947 16.81C13.8947 17.6173 14.1746 18.2997 14.7342 18.8571C15.2939 19.4146 15.9789 19.6933 16.7895 19.6933ZM2.31579 19.1166H6.94737V14.5033H2.31579V19.1166ZM8.16316 7.00655H12.6789L10.4211 3.37353L8.16316 7.00655Z" fill="#635D5D"/>
</svg>
