<svg width="27" height="18" viewBox="0 0 27 18" fill="none" xmlns="http://www.w3.org/2000/svg">
<path d="M18.75 9C18.75 11.9016 16.4016 14.25 13.5 14.25C10.5984 14.25 8.25 11.9016 8.25 9C8.25 6.09844 10.5984 3.75 13.5 3.75C16.4016 3.75 18.75 6.09844 18.75 9ZM12.75 7.5V10.5H12.375C11.9625 10.5 11.625 10.8375 11.625 11.25C11.625 11.6625 11.9625 12 12.375 12H14.625C15.0375 12 15.375 11.6625 15.375 11.25C15.375 10.8375 15.0375 10.5 14.625 10.5H14.25V6.75C14.25 6.3375 13.9125 6 13.5 6H12.75C12.3375 6 12 6.3375 12 6.75C12 7.1625 12.3375 7.5 12.75 7.5ZM0 3C0 1.34297 1.34297 0 3 0H24C25.6547 0 27 1.34297 27 3V15C27 16.6547 25.6547 18 24 18H3C1.34297 18 0 16.6547 0 15V3ZM2.25 5.25V12.75C3.90703 12.75 5.25 14.0953 5.25 15.75H21.75C21.75 14.0953 23.0953 12.75 24.75 12.75V5.25C23.0953 5.25 21.75 3.90469 21.75 2.25H5.25C5.25 3.90469 3.90703 5.25 2.25 5.25Z" fill="#635D5D"/>
</svg>
