<svg width="21" height="21" viewBox="0 0 21 21" fill="none" xmlns="http://www.w3.org/2000/svg">
<path d="M15.8961 7.49535C16.0276 7.3639 16.1014 7.18563 16.1014 6.99973C16.1014 6.81384 16.0276 6.63556 15.8961 6.50412C15.7647 6.37267 15.5864 6.29883 15.4005 6.29883C15.2146 6.29883 15.0363 6.37267 14.9049 6.50412L11.2004 10.21L9.59594 8.60418C9.53085 8.5391 9.45358 8.48747 9.36855 8.45225C9.28351 8.41702 9.19236 8.39889 9.10032 8.39889C9.00828 8.39889 8.91713 8.41702 8.83209 8.45225C8.74706 8.48747 8.66979 8.5391 8.6047 8.60418C8.53962 8.66927 8.48799 8.74654 8.45277 8.83157C8.41754 8.91661 8.39941 9.00775 8.39941 9.0998C8.39941 9.19184 8.41754 9.28299 8.45277 9.36802C8.48799 9.45306 8.53962 9.53033 8.6047 9.59541L10.7048 11.6955C10.7698 11.7607 10.847 11.8124 10.9321 11.8477C11.0171 11.883 11.1083 11.9011 11.2004 11.9011C11.2925 11.9011 11.3836 11.883 11.4687 11.8477C11.5537 11.8124 11.631 11.7607 11.696 11.6955L15.8961 7.49535Z" fill="#635D5D"/>
<path d="M0.700022 -0.000488281C0.514364 -0.000488281 0.336311 0.0732638 0.205032 0.204543C0.0737521 0.335823 0 0.513876 0 0.699533C0 0.885191 0.0737521 1.06324 0.205032 1.19452C0.336311 1.3258 0.514364 1.39955 0.700022 1.39955H2.25407L2.81549 3.64942L4.91275 14.8288C4.94278 14.9892 5.02791 15.1341 5.15343 15.2384C5.27895 15.3427 5.43697 15.3998 5.60017 15.4H7.00022C6.25759 15.4 5.54537 15.695 5.02026 16.2201C4.49514 16.7452 4.20013 17.4574 4.20013 18.2001C4.20013 18.9427 4.49514 19.6549 5.02026 20.18C5.54537 20.7052 6.25759 21.0002 7.00022 21.0002C7.74285 21.0002 8.45506 20.7052 8.98018 20.18C9.50529 19.6549 9.8003 18.9427 9.8003 18.2001C9.8003 17.4574 9.50529 16.7452 8.98018 16.2201C8.45506 15.695 7.74285 15.4 7.00022 15.4H16.8005C16.0579 15.4 15.3457 15.695 14.8206 16.2201C14.2954 16.7452 14.0004 17.4574 14.0004 18.2001C14.0004 18.9427 14.2954 19.6549 14.8206 20.18C15.3457 20.7052 16.0579 21.0002 16.8005 21.0002C17.5431 21.0002 18.2554 20.7052 18.7805 20.18C19.3056 19.6549 19.6006 18.9427 19.6006 18.2001C19.6006 17.4574 19.3056 16.7452 18.7805 16.2201C18.2554 15.695 17.5431 15.4 16.8005 15.4H18.2006C18.3638 15.3998 18.5218 15.3427 18.6473 15.2384C18.7728 15.1341 18.858 14.9892 18.888 14.8288L20.988 3.62842C21.007 3.52739 21.0034 3.42344 20.9776 3.32394C20.9518 3.22444 20.9044 3.13185 20.8388 3.05273C20.7732 2.97362 20.6909 2.90992 20.5979 2.86617C20.5049 2.82242 20.4034 2.79969 20.3006 2.7996H4.04612L3.47911 0.530128C3.44132 0.378621 3.35396 0.244098 3.23092 0.147951C3.10789 0.0518043 2.95623 -0.000445144 2.80009 -0.000488281H0.700022ZM6.18119 13.9999L4.34293 4.19964H19.4578L17.6195 13.9999H6.18119ZM8.40026 18.2001C8.40026 18.5714 8.25276 18.9275 7.9902 19.1901C7.72764 19.4526 7.37153 19.6001 7.00022 19.6001C6.6289 19.6001 6.2728 19.4526 6.01024 19.1901C5.74768 18.9275 5.60017 18.5714 5.60017 18.2001C5.60017 17.8288 5.74768 17.4727 6.01024 17.2101C6.2728 16.9475 6.6289 16.8 7.00022 16.8C7.37153 16.8 7.72764 16.9475 7.9902 17.2101C8.25276 17.4727 8.40026 17.8288 8.40026 18.2001ZM18.2006 18.2001C18.2006 18.5714 18.0531 18.9275 17.7905 19.1901C17.5279 19.4526 17.1718 19.6001 16.8005 19.6001C16.4292 19.6001 16.0731 19.4526 15.8105 19.1901C15.548 18.9275 15.4005 18.5714 15.4005 18.2001C15.4005 17.8288 15.548 17.4727 15.8105 17.2101C16.0731 16.9475 16.4292 16.8 16.8005 16.8C17.1718 16.8 17.5279 16.9475 17.7905 17.2101C18.0531 17.4727 18.2006 17.8288 18.2006 18.2001Z" fill="#635D5D"/>
</svg>
