<svg width="20" height="22" viewBox="0 0 20 22" fill="none" xmlns="http://www.w3.org/2000/svg">
<path d="M14.167 10.5931C14.237 10.5931 14.3054 10.5964 14.3737 10.6013L14.147 11.1244L14.067 11.3411L14.0537 11.3819C13.9678 11.6545 13.9217 11.9376 13.917 12.2228H2.50006C2.27904 12.2228 2.06708 12.3087 1.91079 12.4615C1.75451 12.6143 1.66671 12.8216 1.66671 13.0377V13.8525C1.66671 16.1961 4.05343 18.7417 8.33354 18.7417C8.84855 18.7417 9.33523 18.7042 9.79524 18.6357C9.5458 19.1588 9.45166 19.7399 9.52357 20.3127C9.12819 20.3523 8.73099 20.3719 8.33354 20.3714C3.10008 20.3714 0 17.0647 0 13.8525V13.0377C0 12.3893 0.263399 11.7676 0.732251 11.3091C1.2011 10.8507 1.837 10.5931 2.50006 10.5931H14.167ZM13.6653 17.5096L14.8987 17.9105L15.1004 17.9757C15.6737 17.552 16.1504 17.0191 16.5337 16.3769C16.8486 15.8599 17.0665 15.292 17.1771 14.7L17.2188 14.4164L16.0237 13.3082C15.8303 13.1246 15.6927 12.8922 15.6262 12.6367C15.5597 12.3812 15.5669 12.1127 15.6471 11.861L15.6971 11.7225L16.2404 10.4725C16.3523 10.1955 16.5595 9.96548 16.8264 9.82205C17.0933 9.67863 17.403 9.63086 17.7021 9.68699L17.8304 9.71959L18.5088 9.93145C19.1821 10.1433 19.6988 10.7072 19.8655 11.4145C20.2605 13.0996 19.7855 15.1498 18.4405 17.565C17.0971 19.977 15.6237 21.429 14.022 21.9163C13.7164 22.0092 13.3918 22.0251 13.0782 21.9624C12.7647 21.8997 12.4724 21.7605 12.2286 21.5578L12.0953 21.4372L11.5803 20.932C11.3631 20.7134 11.2227 20.4329 11.1795 20.1311C11.1364 19.8292 11.1927 19.5218 11.3403 19.2534L11.417 19.1328L12.1953 18.0148C12.3231 17.8283 12.4987 17.6778 12.7046 17.5786C12.9106 17.4793 13.1396 17.4348 13.3687 17.4493C13.4224 17.4536 13.4759 17.4612 13.5287 17.4721L13.6653 17.5096V17.5096ZM8.33354 0C9.54915 0 10.715 0.472178 11.5745 1.31266C12.4341 2.15314 12.917 3.29308 12.917 4.4817C12.917 5.67032 12.4341 6.81026 11.5745 7.65074C10.715 8.49122 9.54915 8.9634 8.33354 8.9634C7.11793 8.9634 5.95212 8.49122 5.09255 7.65074C4.23299 6.81026 3.75009 5.67032 3.75009 4.4817C3.75009 3.29308 4.23299 2.15314 5.09255 1.31266C5.95212 0.472178 7.11793 0 8.33354 0V0ZM8.33354 1.62971C7.55997 1.62971 6.81809 1.93019 6.27109 2.46504C5.7241 2.99989 5.4168 3.72531 5.4168 4.4817C5.4168 5.2381 5.7241 5.96351 6.27109 6.49836C6.81809 7.03321 7.55997 7.33369 8.33354 7.33369C9.10711 7.33369 9.84899 7.03321 10.396 6.49836C10.943 5.96351 11.2503 5.2381 11.2503 4.4817C11.2503 3.72531 10.943 2.99989 10.396 2.46504C9.84899 1.93019 9.10711 1.62971 8.33354 1.62971Z" fill="#635D5D"/>
</svg>
