<svg width="22" height="20" viewBox="0 0 22 20" fill="none" xmlns="http://www.w3.org/2000/svg">
<path d="M0 1.11111C0 0.816426 0.115892 0.533811 0.322183 0.325437C0.528472 0.117063 0.808262 0 1.1 0H20.9C21.1917 0 21.4715 0.117063 21.6778 0.325437C21.8841 0.533811 22 0.816426 22 1.11111V7.22222C21.2707 7.22222 20.5712 7.51488 20.0555 8.03582C19.5397 8.55675 19.25 9.26329 19.25 10C19.25 10.7367 19.5397 11.4433 20.0555 11.9642C20.5712 12.4851 21.2707 12.7778 22 12.7778V18.8889C22 19.1836 21.8841 19.4662 21.6778 19.6746C21.4715 19.8829 21.1917 20 20.9 20H1.1C0.808262 20 0.528472 19.8829 0.322183 19.6746C0.115892 19.4662 0 19.1836 0 18.8889V1.11111ZM6.6935 17.7778C6.80688 17.4522 7.01751 17.1703 7.29631 16.9708C7.57512 16.7713 7.90835 16.6642 8.25 16.6642C8.59165 16.6642 8.92488 16.7713 9.20369 16.9708C9.48249 17.1703 9.69312 17.4522 9.8065 17.7778H19.8V14.48C18.9737 14.0663 18.2782 13.4277 17.7919 12.6362C17.3057 11.8446 17.0481 10.9316 17.0481 10C17.0481 9.06844 17.3057 8.15541 17.7919 7.36384C18.2782 6.57228 18.9737 5.93366 19.8 5.52V2.22222H9.8065C9.69312 2.54777 9.48249 2.82974 9.20369 3.02921C8.92488 3.22868 8.59165 3.33581 8.25 3.33581C7.90835 3.33581 7.57512 3.22868 7.29631 3.02921C7.01751 2.82974 6.80688 2.54777 6.6935 2.22222H2.2V17.7778H6.6935ZM8.25 8.88889C7.81239 8.88889 7.39271 8.71329 7.08327 8.40073C6.77384 8.08817 6.6 7.66425 6.6 7.22222C6.6 6.7802 6.77384 6.35627 7.08327 6.04371C7.39271 5.73115 7.81239 5.55556 8.25 5.55556C8.68761 5.55556 9.10729 5.73115 9.41673 6.04371C9.72616 6.35627 9.9 6.7802 9.9 7.22222C9.9 7.66425 9.72616 8.08817 9.41673 8.40073C9.10729 8.71329 8.68761 8.88889 8.25 8.88889ZM8.25 14.4444C7.81239 14.4444 7.39271 14.2689 7.08327 13.9563C6.77384 13.6437 6.6 13.2198 6.6 12.7778C6.6 12.3358 6.77384 11.9118 7.08327 11.5993C7.39271 11.2867 7.81239 11.1111 8.25 11.1111C8.68761 11.1111 9.10729 11.2867 9.41673 11.5993C9.72616 11.9118 9.9 12.3358 9.9 12.7778C9.9 13.2198 9.72616 13.6437 9.41673 13.9563C9.10729 14.2689 8.68761 14.4444 8.25 14.4444Z" fill="#635D5D"/>
</svg>
