<svg width="28" height="23" viewBox="0 0 28 23" fill="none" xmlns="http://www.w3.org/2000/svg">
<path d="M2 10.998H14V12.998H2V10.998ZM0 5.99805H10V7.99805H0V5.99805Z" fill="#635D5D"/>
<path d="M27.9191 11.604L24.9191 4.60405C24.8421 4.42413 24.714 4.27078 24.5506 4.16305C24.3872 4.05531 24.1958 3.99794 24.0001 3.99805H21.0001V1.99805C21.0001 1.73283 20.8947 1.47848 20.7072 1.29094C20.5197 1.1034 20.2653 0.998047 20.0001 0.998047H4.00009V2.99805H19.0001V15.554C18.5444 15.8186 18.1456 16.1708 17.8268 16.5903C17.5079 17.0098 17.2752 17.4882 17.1421 17.998H10.8581C10.6147 17.0554 10.0359 16.2339 9.23008 15.6874C8.4243 15.141 7.4469 14.9073 6.48109 15.0299C5.51528 15.1526 4.62736 15.6233 3.98377 16.3538C3.34018 17.0843 2.98511 18.0245 2.98511 18.998C2.98511 19.9716 3.34018 20.9118 3.98377 21.6423C4.62736 22.3728 5.51528 22.8435 6.48109 22.9662C7.4469 23.0888 8.4243 22.8551 9.23008 22.3086C10.0359 21.7622 10.6147 20.9407 10.8581 19.998H17.1421C17.3596 20.8563 17.8571 21.6175 18.5559 22.1612C19.2546 22.705 20.1147 23.0002 21.0001 23.0002C21.8855 23.0002 22.7456 22.705 23.4443 22.1612C24.1431 21.6175 24.6406 20.8563 24.8581 19.998H27.0001C27.2653 19.998 27.5197 19.8927 27.7072 19.7052C27.8947 19.5176 28.0001 19.2633 28.0001 18.998V11.998C28.0001 11.8626 27.9726 11.7285 27.9191 11.604ZM7.00009 20.998C6.60453 20.998 6.21785 20.8807 5.88895 20.661C5.56005 20.4412 5.30371 20.1289 5.15233 19.7634C5.00096 19.398 4.96135 18.9958 5.03852 18.6079C5.11569 18.2199 5.30617 17.8635 5.58588 17.5838C5.86558 17.3041 6.22195 17.1136 6.60991 17.0365C6.99787 16.9593 7.4 16.9989 7.76546 17.1503C8.13091 17.3017 8.44327 17.558 8.66303 17.8869C8.88279 18.2158 9.00009 18.6025 9.00009 18.998C8.99956 19.5283 8.78868 20.0367 8.41372 20.4117C8.03876 20.7866 7.53036 20.9975 7.00009 20.998ZM21.0001 5.99805H23.3401L25.4841 10.998H21.0001V5.99805ZM21.0001 20.998C20.6045 20.998 20.2178 20.8807 19.889 20.661C19.5601 20.4412 19.3037 20.1289 19.1523 19.7634C19.001 19.398 18.9614 18.9958 19.0385 18.6079C19.1157 18.2199 19.3062 17.8635 19.5859 17.5838C19.8656 17.3041 20.2219 17.1136 20.6099 17.0365C20.9979 16.9593 21.4 16.9989 21.7655 17.1503C22.1309 17.3017 22.4433 17.558 22.663 17.8869C22.8828 18.2158 23.0001 18.6025 23.0001 18.998C22.9996 19.5283 22.7887 20.0367 22.4137 20.4117C22.0388 20.7866 21.5304 20.9975 21.0001 20.998ZM26.0001 17.998H24.8581C24.6378 17.1415 24.1395 16.3822 23.4413 15.8393C22.7431 15.2964 21.8845 15.0005 21.0001 14.998V12.998H26.0001V17.998Z" fill="#635D5D"/>
</svg>
