<svg width="65" height="63" viewBox="0 0 65 63" fill="none" xmlns="http://www.w3.org/2000/svg">
<path d="M50.486 0.0408526L5.99416 9.86061L0.668673 31.0328L40.8655 62.1545L64.2284 17.0045L50.486 0.0408526ZM24.1835 22.51L26.8463 11.9239L32.4395 10.6895L39.3107 19.1713L24.1835 22.51ZM29.972 27.898L34.6574 49.127L12.3024 31.7979L29.972 27.898ZM36.3279 26.4952L53.9975 22.5954L41.0134 47.7242L36.3279 26.4952ZM54.8193 15.7484L46.3976 17.6072L39.5264 9.12532L47.9481 7.26657L54.8193 15.7484ZM11.3377 15.3468L19.7594 13.4881L17.0966 24.0742L8.67494 25.9329L11.3377 15.3468Z" fill="#304FFE"/>
</svg>
