<svg width="20" height="22" viewBox="0 0 23 22" fill="none" xmlns="http://www.w3.org/2000/svg">
<path d="M16.2683 11C16.2683 10.252 16.201 9.526 16.1112 8.8H19.9034C20.0829 9.504 20.1951 10.241 20.1951 11C20.1951 11.407 20.1615 11.803 20.1054 12.188C20.8795 12.298 21.5976 12.54 22.2595 12.892C22.3717 12.276 22.439 11.649 22.439 11C22.439 4.95 17.3902 0 11.2195 0C5.01512 0 0 4.95 0 11C0 17.05 5.04878 22 11.2195 22C11.8815 22 12.521 21.934 13.1493 21.824C12.6164 20.8658 12.3385 19.7914 12.3415 18.7C12.3415 18.381 12.3751 18.073 12.42 17.765C12.061 18.458 11.6683 19.129 11.2195 19.756C10.2883 18.436 9.53659 16.973 9.07659 15.4H13.2502C13.9241 14.252 14.9373 13.3314 16.1561 12.76C16.2234 12.177 16.2683 11.594 16.2683 11ZM11.2195 2.233C12.1507 3.553 12.9024 5.027 13.3624 6.6H9.07659C9.53659 5.027 10.2883 3.553 11.2195 2.233ZM2.53561 13.2C2.3561 12.496 2.2439 11.759 2.2439 11C2.2439 10.241 2.3561 9.504 2.53561 8.8H6.3278C6.23805 9.526 6.17073 10.252 6.17073 11C6.17073 11.748 6.23805 12.474 6.3278 13.2H2.53561ZM3.45561 15.4H6.73171C7.12439 16.775 7.62927 18.095 8.30244 19.316C6.25894 18.6248 4.53812 17.2345 3.45561 15.4ZM6.73171 6.6H3.45561C4.5314 4.75994 6.25465 3.36764 8.30244 2.684C7.62927 3.905 7.12439 5.225 6.73171 6.6ZM13.8449 13.2H8.59415C8.48195 12.474 8.41463 11.748 8.41463 11C8.41463 10.252 8.48195 9.515 8.59415 8.8H13.8449C13.9459 9.515 14.0244 10.252 14.0244 11C14.0244 11.748 13.9459 12.474 13.8449 13.2ZM14.1254 2.684C16.1898 3.377 17.9063 4.774 18.9834 6.6H15.6737C15.3225 5.2376 14.8025 3.92249 14.1254 2.684ZM23 16.775L17.6707 22L14.5854 18.7L15.8868 17.424L17.6707 19.173L21.6985 15.224L23 16.775Z" fill="#635D5D"/>
</svg>
