<svg width="30" height="16" viewBox="0 0 30 16" fill="none" xmlns="http://www.w3.org/2000/svg">
<path d="M11.4728 0H6.42852C4.72357 3.16155e-08 3.08845 0.842835 1.88287 2.34309C0.677289 3.84335 0 5.87813 0 7.99981C0 10.1215 0.677289 12.1563 1.88287 13.6565C3.08845 15.1568 4.72357 15.9996 6.42852 15.9996H12.857C13.8858 16.0003 14.8996 15.6937 15.8134 15.1057C16.7271 14.5176 17.5142 13.6653 18.1083 12.6202C18.7025 11.5752 19.0864 10.3679 19.2279 9.09991C19.3693 7.8319 19.2642 6.54016 18.9213 5.33321H17.1427C16.9584 5.33321 16.7784 5.35987 16.607 5.41587C16.9684 6.22787 17.1532 7.14318 17.1432 8.07131C17.1332 8.99945 16.9287 9.90826 16.55 10.7079C16.1712 11.5076 15.6313 12.1703 14.9837 12.6307C14.336 13.0911 13.6029 13.3332 12.857 13.333H6.42852C5.29189 13.333 4.20181 12.7711 3.39809 11.771C2.59437 10.7708 2.14284 9.41427 2.14284 7.99981C2.14284 6.58536 2.59437 5.22883 3.39809 4.22866C4.20181 3.22849 5.29189 2.6666 6.42852 2.6666H9.71778C10.1849 1.66396 10.7785 0.762649 11.4749 0H11.4728Z" fill="#635D5D"/>
<path d="M17.1428 1.09992e-06C16.1141 -0.000670144 15.1003 0.305895 14.1865 0.893943C13.2727 1.48199 12.4857 2.33435 11.8916 3.37941C11.2974 4.42447 10.9135 5.63171 10.772 6.89971C10.6305 8.16772 10.7357 9.45946 11.0786 10.6664H13.4314C13.0553 9.85568 12.8573 8.93601 12.8573 7.99985C12.8573 7.06368 13.0553 6.14401 13.4314 5.33327C13.8075 4.52252 14.3485 3.84927 15 3.38117C15.6515 2.91307 16.3905 2.66663 17.1428 2.6666H23.5714C24.708 2.6666 25.7981 3.22849 26.6018 4.22866C27.4055 5.22883 27.857 6.58536 27.857 7.99981C27.857 9.41427 27.4055 10.7708 26.6018 11.771C25.7981 12.7711 24.708 13.333 23.5714 13.333H20.2821C19.8159 14.3341 19.2225 15.2346 18.525 15.9996H23.5714C24.4156 15.9996 25.2515 15.7927 26.0314 15.3907C26.8114 14.9886 27.5201 14.3994 28.117 13.6565C28.7139 12.9137 29.1875 12.0318 29.5105 11.0612C29.8336 10.0906 29.9999 9.05036 29.9999 7.99981C29.9999 6.94926 29.8336 5.909 29.5105 4.93842C29.1875 3.96783 28.7139 3.08594 28.117 2.34309C27.5201 1.60024 26.8114 1.01098 26.0314 0.608951C25.2515 0.206923 24.4156 1.08427e-06 23.5714 1.09992e-06H17.1428Z" fill="#635D5D"/>
</svg>
