<svg width="20" height="19" viewBox="0 0 20 19" fill="none" xmlns="http://www.w3.org/2000/svg">
<path d="M17.905 14.3605H16.3036C16.1943 14.3605 16.0918 14.4069 16.0234 14.4886C15.864 14.6764 15.6931 14.8576 15.5132 15.0299C14.7772 15.7444 13.9054 16.3139 12.946 16.7067C11.952 17.1139 10.8837 17.3228 9.8047 17.3209C8.71357 17.3209 7.65662 17.1133 6.66344 16.7067C5.70404 16.3139 4.83223 15.7444 4.09622 15.0299C3.35889 14.3177 2.77096 13.4737 2.36499 12.5444C1.94358 11.5812 1.73173 10.5583 1.73173 9.50002C1.73173 8.44176 1.94586 7.41886 2.36499 6.4556C2.77046 5.52549 3.35361 4.68816 4.09622 3.97014C4.83882 3.25212 5.70216 2.68654 6.66344 2.29329C7.65662 1.88677 8.71357 1.6791 9.8047 1.6791C10.8958 1.6791 11.9528 1.88456 12.946 2.29329C13.9072 2.68654 14.7706 3.25212 15.5132 3.97014C15.6931 4.14468 15.8617 4.32584 16.0234 4.51142C16.0918 4.59316 16.1966 4.63956 16.3036 4.63956H17.905C18.0485 4.63956 18.1374 4.48491 18.0576 4.36782C16.3105 1.73433 13.2535 -0.00880375 9.77964 3.34458e-05C4.32173 0.0132892 -0.0541635 4.31038 0.000506735 9.59723C0.055177 14.8001 4.42424 19 9.8047 19C13.2694 19 16.3127 17.2591 18.0576 14.6322C18.1351 14.5151 18.0485 14.3605 17.905 14.3605ZM19.9301 9.36083L16.6977 6.88642C16.577 6.79363 16.4016 6.87758 16.4016 7.0256V8.70467H9.24889C9.14866 8.70467 9.06665 8.7842 9.06665 8.88141V10.1186C9.06665 10.2158 9.14866 10.2954 9.24889 10.2954H16.4016V11.9744C16.4016 12.1225 16.5793 12.2064 16.6977 12.1136L19.9301 9.6392C19.9519 9.62267 19.9695 9.60154 19.9816 9.57743C19.9937 9.55331 20 9.52684 20 9.50002C20 9.47319 19.9937 9.44672 19.9816 9.4226C19.9695 9.39849 19.9519 9.37736 19.9301 9.36083Z" fill="#635D5D"/>
</svg>
