<svg width="20" height="20" viewBox="0 0 20 20" fill="none" xmlns="http://www.w3.org/2000/svg">
<path d="M2.22222 0C0.988889 0 0 0.988889 0 2.22222V17.7778C0 18.3671 0.234126 18.9324 0.650874 19.3491C1.06762 19.7659 1.63285 20 2.22222 20H17.7778C18.3671 20 18.9324 19.7659 19.3491 19.3491C19.7659 18.9324 20 18.3671 20 17.7778V2.22222C20 1.63285 19.7659 1.06762 19.3491 0.650874C18.9324 0.234126 18.3671 0 17.7778 0H2.22222ZM8.88889 3.33333H11.1111V6.66667H14.4444V8.88889H11.1111V12.2222H8.88889V8.88889H5.55556V6.66667H8.88889V3.33333ZM5.55556 14.4444H14.4444V16.6667H5.55556V14.4444Z" fill="white"/>
</svg>
