<svg width="21" height="21" viewBox="0 0 21 21" fill="none" xmlns="http://www.w3.org/2000/svg">
<path d="M20.6523 2.943L18.0173 0.333195C17.7909 0.119316 17.4899 0 17.177 0C16.8641 0 16.5632 0.119316 16.3367 0.333195L13.9937 2.66086H1.4243C1.04655 2.66086 0.684274 2.80948 0.417166 3.07404C0.150059 3.3386 0 3.69742 0 4.07156V19.5893C0 19.9634 0.150059 20.3223 0.417166 20.5868C0.684274 20.8514 1.04655 21 1.4243 21H17.0915C17.4693 21 17.8316 20.8514 18.0987 20.5868C18.3658 20.3223 18.5158 19.9634 18.5158 19.5893V6.72368L20.6523 4.60763C20.8749 4.38677 21 4.08742 21 3.77531C21 3.4632 20.8749 3.16385 20.6523 2.943ZM10.5612 12.6275L7.57725 13.2835L8.2894 10.3562L15.0904 3.60603L17.3906 5.88431L10.5612 12.6275ZM18.1598 5.08021L15.8595 2.80193L17.177 1.49703L19.4772 3.77531L18.1598 5.08021Z" fill="#635D5D"/>
</svg>
