<svg width="22" height="24" viewBox="0 0 22 24" fill="none" xmlns="http://www.w3.org/2000/svg">
<path d="M18.7407 13.0703V10.9632H17.1111V13.4076C17.1112 13.6237 17.197 13.8309 17.3499 13.9837L19.5556 16.1894V17.4817H1.62963V16.1894L3.83533 13.9837C3.98815 13.8309 4.07403 13.6237 4.07407 13.4076V10.1484C4.0718 9.0034 4.37173 7.87809 4.94355 6.88612C5.51538 5.89415 6.33885 5.07065 7.3308 4.49879C8.32276 3.92693 9.44805 3.62697 10.593 3.6292C11.738 3.63143 12.8621 3.93577 13.8519 4.51149V2.69038C13.0762 2.34696 12.2513 2.12807 11.4074 2.04179V0.370605H9.77778V2.04098C7.76891 2.24544 5.90721 3.18751 4.55267 4.68504C3.19813 6.18256 2.44697 8.12914 2.44444 10.1484V13.0703L0.238741 15.276C0.0859227 15.4288 4.6149e-05 15.636 0 15.8521V18.2965C0 18.5126 0.0858463 18.7199 0.238654 18.8727C0.391461 19.0255 0.598713 19.1113 0.814815 19.1113H6.51852V19.9262C6.51852 21.0067 6.94775 22.0429 7.71179 22.807C8.47582 23.571 9.51208 24.0002 10.5926 24.0002C11.6731 24.0002 12.7094 23.571 13.4734 22.807C14.2374 22.0429 14.6667 21.0067 14.6667 19.9262V19.1113H20.3704C20.5865 19.1113 20.7937 19.0255 20.9465 18.8727C21.0993 18.7199 21.1852 18.5126 21.1852 18.2965V15.8521C21.1851 15.636 21.0993 15.4288 20.9464 15.276L18.7407 13.0703ZM13.037 19.9262C13.037 20.5745 12.7795 21.1962 12.3211 21.6546C11.8627 22.1131 11.2409 22.3706 10.5926 22.3706C9.94429 22.3706 9.32253 22.1131 8.86411 21.6546C8.40569 21.1962 8.14815 20.5745 8.14815 19.9262V19.1113H13.037V19.9262Z" fill="#635D5D"/>
<path d="M18.7407 9.33346C20.5407 9.33346 22 7.87424 22 6.0742C22 4.27416 20.5407 2.81494 18.7407 2.81494C16.9407 2.81494 15.4814 4.27416 15.4814 6.0742C15.4814 7.87424 16.9407 9.33346 18.7407 9.33346Z" fill="#635D5D"/>
</svg>
