<svg width="21" height="26" viewBox="0 0 21 26" fill="none" xmlns="http://www.w3.org/2000/svg">
<path d="M5.39875 1.625H2.625C1.92881 1.625 1.26113 1.88181 0.768844 2.33893C0.276561 2.79605 0 3.41604 0 4.0625V23.5625C0 24.209 0.276561 24.829 0.768844 25.2861C1.26113 25.7432 1.92881 26 2.625 26H18.375C19.0712 26 19.7389 25.7432 20.2312 25.2861C20.7234 24.829 21 24.209 21 23.5625V4.0625C21 3.41604 20.7234 2.79605 20.2312 2.33893C19.7389 1.88181 19.0712 1.625 18.375 1.625H15.6012C15.4202 1.14956 15.0849 0.737959 14.6414 0.446921C14.1979 0.155883 13.6681 -0.00026403 13.125 3.35135e-07H7.875C7.33193 -0.00026403 6.80214 0.155883 6.35864 0.446921C5.91514 0.737959 5.57977 1.14956 5.39875 1.625ZM7.875 1.625H13.125C13.3571 1.625 13.5796 1.7106 13.7437 1.86298C13.9078 2.01535 14 2.22201 14 2.4375C14 2.65299 13.9078 2.85965 13.7437 3.01202C13.5796 3.1644 13.3571 3.25 13.125 3.25H7.875C7.64294 3.25 7.42038 3.1644 7.25628 3.01202C7.09219 2.85965 7 2.65299 7 2.4375C7 2.22201 7.09219 2.01535 7.25628 1.86298C7.42038 1.7106 7.64294 1.625 7.875 1.625ZM8.75 10.5625C8.75 10.347 8.84219 10.1403 9.00628 9.98798C9.17037 9.8356 9.39294 9.75 9.625 9.75H15.75C15.9821 9.75 16.2046 9.8356 16.3687 9.98798C16.5328 10.1403 16.625 10.347 16.625 10.5625C16.625 10.778 16.5328 10.9847 16.3687 11.137C16.2046 11.2894 15.9821 11.375 15.75 11.375H9.625C9.39294 11.375 9.17037 11.2894 9.00628 11.137C8.84219 10.9847 8.75 10.778 8.75 10.5625ZM8.75 15.4375C8.75 15.222 8.84219 15.0153 9.00628 14.863C9.17037 14.7106 9.39294 14.625 9.625 14.625H15.75C15.9821 14.625 16.2046 14.7106 16.3687 14.863C16.5328 15.0153 16.625 15.222 16.625 15.4375C16.625 15.653 16.5328 15.8597 16.3687 16.012C16.2046 16.1644 15.9821 16.25 15.75 16.25H9.625C9.39294 16.25 9.17037 16.1644 9.00628 16.012C8.84219 15.8597 8.75 15.653 8.75 15.4375ZM8.75 20.3125C8.75 20.097 8.84219 19.8903 9.00628 19.738C9.17037 19.5856 9.39294 19.5 9.625 19.5H15.75C15.9821 19.5 16.2046 19.5856 16.3687 19.738C16.5328 19.8903 16.625 20.097 16.625 20.3125C16.625 20.528 16.5328 20.7347 16.3687 20.887C16.2046 21.0394 15.9821 21.125 15.75 21.125H9.625C9.39294 21.125 9.17037 21.0394 9.00628 20.887C8.84219 20.7347 8.75 20.528 8.75 20.3125ZM7 10.5625C7 10.8857 6.86172 11.1957 6.61558 11.4243C6.36944 11.6528 6.0356 11.7812 5.6875 11.7812C5.3394 11.7812 5.00556 11.6528 4.75942 11.4243C4.51328 11.1957 4.375 10.8857 4.375 10.5625C4.375 10.2393 4.51328 9.92927 4.75942 9.70071C5.00556 9.47215 5.3394 9.34375 5.6875 9.34375C6.0356 9.34375 6.36944 9.47215 6.61558 9.70071C6.86172 9.92927 7 10.2393 7 10.5625ZM7 15.4375C7 15.7607 6.86172 16.0707 6.61558 16.2993C6.36944 16.5278 6.0356 16.6562 5.6875 16.6562C5.3394 16.6562 5.00556 16.5278 4.75942 16.2993C4.51328 16.0707 4.375 15.7607 4.375 15.4375C4.375 15.1143 4.51328 14.8043 4.75942 14.5757C5.00556 14.3472 5.3394 14.2188 5.6875 14.2188C6.0356 14.2188 6.36944 14.3472 6.61558 14.5757C6.86172 14.8043 7 15.1143 7 15.4375ZM5.6875 21.5312C5.3394 21.5312 5.00556 21.4028 4.75942 21.1743C4.51328 20.9457 4.375 20.6357 4.375 20.3125C4.375 19.9893 4.51328 19.6793 4.75942 19.4507C5.00556 19.2222 5.3394 19.0938 5.6875 19.0938C6.0356 19.0938 6.36944 19.2222 6.61558 19.4507C6.86172 19.6793 7 19.9893 7 20.3125C7 20.6357 6.86172 20.9457 6.61558 21.1743C6.36944 21.4028 6.0356 21.5312 5.6875 21.5312Z" fill="#635D5D"/>
</svg>
