<svg width="20" height="22" viewBox="0 0 24 24" fill="none" xmlns="http://www.w3.org/2000/svg">
<path d="M18.0654 1.79602H18.0642V0.831216C18.0642 0.721098 18.0205 0.61549 17.9426 0.537625C17.8648 0.45976 17.7591 0.416016 17.649 0.416016H9.76023L3.53223 6.64402V20.7606C3.53223 20.99 3.71799 21.1758 3.94743 21.1758H17.6488C17.7033 21.1758 17.7573 21.165 17.8077 21.1442C17.8581 21.1233 17.9038 21.0927 17.9424 21.0542C17.9809 21.0156 18.0115 20.9698 18.0324 20.9195C18.0532 20.8691 18.064 20.8151 18.064 20.7606V20.1731H18.0652L18.0654 1.79602ZM5.92191 18.7866V7.47442H10.1754C10.2855 7.47442 10.3912 7.43067 10.469 7.35281C10.5469 7.27494 10.5906 7.16933 10.5906 7.05922V2.8057H15.6757V18.7866H5.92191Z" fill="#635D5D"/>
<path d="M20.1046 5.96582H19.2706V22.0245C19.2706 22.2249 19.1081 22.3876 18.9074 22.3876H7.0332V23.2216C7.0332 23.4222 7.19568 23.5847 7.39632 23.5847H20.1046C20.3052 23.5847 20.4677 23.4222 20.4677 23.2216V6.32894C20.4677 6.1283 20.3052 5.96582 20.1046 5.96582Z" fill="#635D5D"/>
</svg>
