<svg width="20" height="21" viewBox="0 0 20 21" fill="none" xmlns="http://www.w3.org/2000/svg">
<path d="M8.42105 0L16.1032 2.394C16.3174 2.46072 16.5047 2.59401 16.6376 2.7744C16.7706 2.9548 16.8422 3.17286 16.8421 3.39675V5.25H18.9474C19.2265 5.25 19.4943 5.36062 19.6917 5.55754C19.8891 5.75445 20 6.02152 20 6.3V14.7C20 14.9785 19.8891 15.2455 19.6917 15.4425C19.4943 15.6394 19.2265 15.75 18.9474 15.75L15.5579 15.751C15.1505 16.2865 14.6558 16.759 14.0842 17.1475L8.42105 21L2.75789 17.1486C1.90792 16.5705 1.21237 15.7941 0.731726 14.8868C0.251082 13.9795 -0.00010655 12.9689 3.39051e-08 11.9427V3.39675C0.000126954 3.17304 0.0718807 2.95521 0.204802 2.77503C0.337724 2.59484 0.524865 2.46172 0.738947 2.39505L8.42105 0ZM8.42105 2.1987L2.10526 4.1685V11.9427C2.10511 12.5855 2.25289 13.2198 2.53723 13.7967C2.82156 14.3736 3.23485 14.8777 3.74526 15.2701L3.94421 15.413L8.42105 18.459L12.4021 15.75H7.36842C7.08925 15.75 6.82151 15.6394 6.6241 15.4425C6.42669 15.2455 6.31579 14.9785 6.31579 14.7V6.3C6.31579 6.02152 6.42669 5.75445 6.6241 5.55754C6.82151 5.36062 7.08925 5.25 7.36842 5.25H14.7368V4.1685L8.42105 2.1987ZM8.42105 10.5V13.65H17.8947V10.5H8.42105ZM8.42105 8.4H17.8947V7.35H8.42105V8.4Z" fill="#635D5D"/>
</svg>
