<svg width="20" height="24" viewBox="0 0 20 24" fill="none" xmlns="http://www.w3.org/2000/svg">
<path fill-rule="evenodd" clip-rule="evenodd" d="M2.23114e-07 23.2495V2.99993C2.23114e-07 2.2043 0.35119 1.44126 0.976311 0.87866C1.60143 0.316063 2.44928 0 3.33333 0L16.6667 0C17.5507 0 18.3986 0.316063 19.0237 0.87866C19.6488 1.44126 20 2.2043 20 2.99993V23.2495C20.0001 23.3797 19.9625 23.5077 19.891 23.6209C19.8194 23.7341 19.7163 23.8286 19.5918 23.895C19.4674 23.9615 19.3258 23.9976 19.1812 23.9999C19.0365 24.0021 18.8936 23.9705 18.7667 23.908L10 19.6031L1.23333 23.908C1.10638 23.9705 0.963531 24.0021 0.818842 23.9999C0.674152 23.9976 0.532612 23.9615 0.408153 23.895C0.283694 23.8286 0.180608 23.7341 0.109041 23.6209C0.0374742 23.5077 -0.000105656 23.3797 2.23114e-07 23.2495ZM10.2667 6.14986C10.2423 6.10488 10.2044 6.06697 10.1572 6.04045C10.1101 6.01393 10.0556 5.99986 10 5.99986C9.9444 5.99986 9.88992 6.01393 9.84277 6.04045C9.79562 6.06697 9.7577 6.10488 9.73333 6.14986L8.67667 8.07732C8.65551 8.11631 8.62412 8.15007 8.58521 8.17568C8.54629 8.20129 8.50103 8.21799 8.45333 8.22431L6.08667 8.53331C6.03218 8.54075 5.98108 8.5617 5.93909 8.59381C5.89709 8.62592 5.86586 8.66792 5.8489 8.71511C5.83195 8.7623 5.82993 8.81281 5.84307 8.86097C5.85622 8.90913 5.88401 8.95305 5.92333 8.98779L7.63333 10.4893C7.70333 10.5508 7.735 10.6393 7.71833 10.7263L7.31667 12.8472C7.30761 12.8962 7.3139 12.9465 7.33484 12.9924C7.35578 13.0383 7.39053 13.0781 7.4352 13.1072C7.47987 13.1364 7.53268 13.1537 7.5877 13.1573C7.64272 13.161 7.69777 13.1507 7.74667 13.1277L9.86333 12.1257C9.90577 12.1057 9.95294 12.0953 10.0008 12.0953C10.0487 12.0953 10.0959 12.1057 10.1383 12.1257L12.255 13.1277C12.3038 13.1503 12.3587 13.1602 12.4134 13.1564C12.4682 13.1526 12.5207 13.1352 12.5651 13.1061C12.6095 13.077 12.644 13.0374 12.6649 12.9917C12.6858 12.946 12.6922 12.896 12.6833 12.8472L12.28 10.7248C12.2715 10.6821 12.2746 10.6383 12.2892 10.597C12.3037 10.5557 12.3291 10.5182 12.3633 10.4878L14.0767 8.98629C14.116 8.95155 14.1438 8.90763 14.1569 8.85947C14.1701 8.81131 14.1681 8.7608 14.1511 8.71361C14.1341 8.66642 14.1029 8.62442 14.0609 8.59231C14.0189 8.5602 13.9678 8.53925 13.9133 8.53181L11.5467 8.22281C11.499 8.21649 11.4537 8.19979 11.4148 8.17418C11.3759 8.14857 11.3445 8.1148 11.3233 8.07582L10.2667 6.14986Z" fill="#635D5D"/>
</svg>
