<svg width="20" height="22" viewBox="0 0 21 21" fill="none" xmlns="http://www.w3.org/2000/svg">
<path d="M9.32041 11.967C8.2937 11.5791 7.32898 11.0783 6.50998 10.4791C6.48877 10.4637 6.46673 10.4485 6.44579 10.4328C6.32788 10.3448 6.21223 10.2537 6.09897 10.1598C6.06949 10.1356 6.04084 10.1108 6.01191 10.0862C5.91531 10.0042 5.8207 9.91974 5.72817 9.83308C5.71109 9.8171 5.69319 9.8014 5.67638 9.78542C5.57363 9.68707 5.47528 9.58597 5.38052 9.48349C5.35545 9.45649 5.33121 9.42922 5.30669 9.40194C5.22327 9.30919 5.1427 9.21392 5.06509 9.11627C5.0538 9.10194 5.04168 9.08817 5.03066 9.07384C4.94737 8.9663 4.86816 8.85566 4.7932 8.74216C4.77391 8.71351 4.75546 8.68431 4.737 8.65538C4.6694 8.55025 4.60572 8.44264 4.54609 8.33279C4.54031 8.32204 4.5337 8.31157 4.52791 8.30055C4.45094 8.1536 4.38197 8.0026 4.3213 7.84821C4.27339 7.72914 4.23083 7.60799 4.19375 7.48512L4.18824 7.46859C4.14242 7.30912 4.10626 7.14702 4.07998 6.98319C4.05794 6.8504 4.04031 6.71652 4.0315 6.57988C4.02037 6.39984 4.01605 6.21946 4.01855 6.0391C4.0191 5.98428 4.02351 5.93111 4.02544 5.87684C4.02984 5.7537 4.03618 5.63111 4.04775 5.51072C4.05354 5.45039 4.0618 5.39088 4.06924 5.3311C4.09062 5.1596 4.11986 4.98918 4.15684 4.82035C4.18191 4.70658 4.21139 4.59446 4.24362 4.48316C4.25822 4.43275 4.27227 4.38233 4.28852 4.33247C4.32929 4.2074 4.37557 4.08453 4.42598 3.96304C4.43948 3.92999 4.45133 3.89638 4.46565 3.86359C4.68532 3.36671 4.98137 2.90725 5.34305 2.50187L1.19159 3.49582C0.79108 3.59163 0.445031 3.84261 0.229552 4.19356C0.0140739 4.5445 -0.0531865 4.96666 0.0425652 5.36719L3.49569 19.8084C3.5915 20.2089 3.84248 20.555 4.19341 20.7704C4.54434 20.9859 4.9665 21.0532 5.36702 20.9574L7.14413 20.5324C6.45433 20.304 5.26179 19.8687 4.11882 19.2588L5.77583 15.5001C5.77583 15.5001 7.72594 17.2367 10.5256 17.2367C13.3259 17.2367 14.5702 13.9502 9.32041 11.967ZM20.9575 15.6329L17.5041 1.19167C17.4567 0.993331 17.3706 0.806279 17.2509 0.641191C17.1312 0.476103 16.9802 0.336214 16.8064 0.229512C16.6326 0.12281 16.4395 0.0513853 16.2382 0.0193177C16.0368 -0.0127499 15.8311 -0.00483256 15.6327 0.0426176L12.6584 0.753644C13.0557 0.81707 13.4495 0.901301 13.838 1.00599L13.9363 1.03271C14.0027 1.05089 14.0708 1.07018 14.1396 1.09029C14.1757 1.10076 14.2115 1.11095 14.2482 1.12197C14.3454 1.15117 14.4449 1.18202 14.5465 1.21536C14.5785 1.22583 14.6118 1.23767 14.6443 1.24842C14.7662 1.28942 14.8875 1.33204 15.0082 1.37624C15.0867 1.40517 15.1666 1.43547 15.2471 1.46687C15.2837 1.4812 15.3195 1.49442 15.3564 1.5093C15.4683 1.55393 15.5818 1.60159 15.6966 1.65117C15.7355 1.66798 15.7752 1.68616 15.8145 1.70352C15.9431 1.76076 16.0707 1.8199 16.1975 1.88093C16.322 1.94126 16.447 2.00324 16.5735 2.06964L15.2782 5.6592C15.2782 5.6592 14.2002 4.45506 11.3099 4.3085C8.5623 4.16966 7.03394 7.14186 12.3928 8.8945C12.5472 8.94533 12.7006 8.99906 12.8529 9.05566C12.8942 9.07081 12.935 9.08651 12.9757 9.10222C13.0914 9.14629 13.2049 9.19147 13.3157 9.23775C13.3496 9.2518 13.384 9.26558 13.4173 9.2799C13.5549 9.33869 13.6912 9.40032 13.8261 9.46475C13.8432 9.47274 13.8592 9.48128 13.876 9.48955C14.0223 9.56079 14.1669 9.63546 14.3096 9.71352C14.414 9.77082 14.5162 9.82922 14.6151 9.88872C14.6327 9.89919 14.6512 9.90966 14.6686 9.92041C14.7854 9.99176 14.898 10.0645 15.0071 10.1386L15.0628 10.1774C15.1529 10.2397 15.2405 10.3031 15.3253 10.3672C15.3484 10.3849 15.3719 10.4022 15.3947 10.4201C15.4931 10.4962 15.5892 10.5733 15.6807 10.6518C17.2319 11.9838 17.7848 13.6411 17.7401 15.2144C17.7049 16.4577 17.2699 17.469 16.7655 18.2318L19.809 17.5042C20.2094 17.4082 20.5552 17.1572 20.7706 16.8063C20.9859 16.4554 21.0532 16.0333 20.9575 15.6329Z" fill="#635D5D"/>
</svg>
