<svg width="25" height="24" viewBox="0 0 25 24" fill="none" xmlns="http://www.w3.org/2000/svg">
<path d="M21.25 0H3.75C1.6825 0 0 1.70021 0 3.78947V7.36547C0 8.69558 0.4775 9.90442 1.25 10.8341V22.7368C1.25 23.0719 1.3817 23.3931 1.61612 23.63C1.85054 23.8669 2.16848 24 2.5 24H12.5C12.8315 24 13.1495 23.8669 13.3839 23.63C13.6183 23.3931 13.75 23.0719 13.75 22.7368V16.4211H18.75V22.7368C18.75 23.0719 18.8817 23.3931 19.1161 23.63C19.3505 23.8669 19.6685 24 20 24H22.5C22.8315 24 23.1495 23.8669 23.3839 23.63C23.6183 23.3931 23.75 23.0719 23.75 22.7368V10.8328C24.5225 9.90442 25 8.69558 25 7.36421V3.78947C25 1.70021 23.3175 0 21.25 0ZM22.5 3.78947V7.36547C22.5 8.80547 21.4387 10.0333 20.1362 10.1027L20 10.1053C18.6213 10.1053 17.5 8.97221 17.5 7.57895V2.52632H21.25C21.94 2.52632 22.5 3.09347 22.5 3.78947ZM10 7.57895V2.52632H15V7.57895C15 8.97221 13.8787 10.1053 12.5 10.1053C11.1213 10.1053 10 8.97221 10 7.57895ZM2.5 3.78947C2.5 3.09347 3.06 2.52632 3.75 2.52632H7.5V7.57895C7.5 8.97221 6.37875 10.1053 5 10.1053L4.86375 10.1015C3.56125 10.0333 2.5 8.80547 2.5 7.36547V3.78947ZM10 17.6842H5V13.8947H10V17.6842Z" fill="white"/>
</svg>
