<svg width="22" height="22" viewBox="0 0 22 22" fill="none" xmlns="http://www.w3.org/2000/svg">
<path d="M11 22C4.9247 22 0 17.0753 0 11C0 4.9247 4.9247 0 11 0C17.0753 0 22 4.9247 22 11C22 17.0753 17.0753 22 11 22ZM7.15 13.2V15.4H9.9V17.6H12.1V15.4H13.2C13.9293 15.4 14.6288 15.1103 15.1445 14.5945C15.6603 14.0788 15.95 13.3793 15.95 12.65C15.95 11.9207 15.6603 11.2212 15.1445 10.7055C14.6288 10.1897 13.9293 9.9 13.2 9.9H8.8C8.65413 9.9 8.51424 9.84205 8.41109 9.73891C8.30795 9.63576 8.25 9.49587 8.25 9.35C8.25 9.20413 8.30795 9.06424 8.41109 8.96109C8.51424 8.85795 8.65413 8.8 8.8 8.8H14.85V6.6H12.1V4.4H9.9V6.6H8.8C8.07065 6.6 7.37118 6.88973 6.85546 7.40546C6.33973 7.92118 6.05 8.62066 6.05 9.35C6.05 10.0793 6.33973 10.7788 6.85546 11.2945C7.37118 11.8103 8.07065 12.1 8.8 12.1H13.2C13.3459 12.1 13.4858 12.1579 13.5889 12.2611C13.6921 12.3642 13.75 12.5041 13.75 12.65C13.75 12.7959 13.6921 12.9358 13.5889 13.0389C13.4858 13.1421 13.3459 13.2 13.2 13.2H7.15Z" fill="#635D5D"/>
</svg>
