<svg width="20" height="22" viewBox="0 0 24 24" fill="none" xmlns="http://www.w3.org/2000/svg">
<path fill-rule="evenodd" clip-rule="evenodd" d="M18.7432 16.6964C20.0186 11.9366 16.9986 7.02043 12.0372 5.69122C6.43446 4.18852 -1.51762 8.09065 0.251407 13.096C0.837827 14.7514 1.96668 15.1387 4.09612 15.1692L4.22928 15.1717C5.35448 15.1851 5.6709 15.2584 5.76619 15.4123C5.92135 15.6665 5.92379 16.0708 5.74909 17.1838C5.66601 17.7091 5.63913 17.8924 5.60737 18.1795C5.41312 19.9278 5.70877 21.2912 6.85351 22.5251C10.4307 26.3772 17.3028 22.0694 18.7432 16.6964ZM2.55555 12.2799C1.66492 9.76316 7.36418 6.96668 11.4044 8.04911C15.0903 9.03747 17.3003 12.6354 16.3828 16.0623C15.359 19.8838 10.5406 22.9038 8.64453 20.8611C8.05811 20.2307 7.91273 19.5564 8.03612 18.4483C8.06178 18.2113 8.08621 18.0476 8.16318 17.5613C8.43073 15.8546 8.42707 15.0751 7.84798 14.1332C7.12229 12.9518 6.25976 12.7527 4.25983 12.727L4.13033 12.7246C2.9526 12.7087 2.67283 12.6122 2.55432 12.2799H2.55555Z" fill="#635D5D"/>
<path d="M6.2576 11.8639C5.85258 11.8639 5.46415 11.703 5.17776 11.4166C4.89136 11.1302 4.73047 10.7418 4.73047 10.3367C4.73047 9.93173 4.89136 9.54329 5.17776 9.2569C5.46415 8.97051 5.85258 8.80961 6.2576 8.80961C6.66262 8.80961 7.05106 8.97051 7.33745 9.2569C7.62384 9.54329 7.78474 9.93173 7.78474 10.3367C7.78474 10.7418 7.62384 11.1302 7.33745 11.4166C7.05106 11.703 6.66262 11.8639 6.2576 11.8639ZM10.839 11.8639C10.434 11.8639 10.0455 11.703 9.75916 11.4166C9.47276 11.1302 9.31187 10.7418 9.31187 10.3367C9.31187 9.93173 9.47276 9.54329 9.75916 9.2569C10.0455 8.97051 10.434 8.80961 10.839 8.80961C11.244 8.80961 11.6325 8.97051 11.9188 9.2569C12.2052 9.54329 12.3661 9.93173 12.3661 10.3367C12.3661 10.7418 12.2052 11.1302 11.9188 11.4166C11.6325 11.703 11.244 11.8639 10.839 11.8639ZM13.8933 15.529C13.4882 15.529 13.0998 15.3681 12.8134 15.0817C12.527 14.7953 12.3661 14.4069 12.3661 14.0019C12.3661 13.5968 12.527 13.2084 12.8134 12.922C13.0998 12.6356 13.4882 12.4747 13.8933 12.4747C14.2983 12.4747 14.6867 12.6356 14.9731 12.922C15.2595 13.2084 15.4204 13.5968 15.4204 14.0019C15.4204 14.4069 15.2595 14.7953 14.9731 15.0817C14.6867 15.3681 14.2983 15.529 13.8933 15.529ZM12.0607 19.805C11.6557 19.805 11.2673 19.6441 10.9809 19.3577C10.6945 19.0713 10.5336 18.6829 10.5336 18.2778C10.5336 17.8728 10.6945 17.4844 10.9809 17.198C11.2673 16.9116 11.6557 16.7507 12.0607 16.7507C12.4657 16.7507 12.8542 16.9116 13.1406 17.198C13.4269 17.4844 13.5878 17.8728 13.5878 18.2778C13.5878 18.6829 13.4269 19.0713 13.1406 19.3577C12.8542 19.6441 12.4657 19.805 12.0607 19.805ZM16.4833 4.05107C16.6281 3.97346 16.7872 3.92587 16.9509 3.91116C17.1145 3.89644 17.2795 3.9149 17.4359 3.96543C17.5923 4.01596 17.7368 4.09752 17.861 4.20523C17.9851 4.31294 18.0862 4.44458 18.1582 4.59228L23.1587 14.8546C23.2422 15.0391 23.2523 15.2484 23.187 15.4401C23.1216 15.6317 22.9858 15.7913 22.807 15.8864C22.6282 15.9814 22.42 16.0048 22.2245 15.9519C22.0291 15.8989 21.8612 15.7734 21.7549 15.6011L16.0032 5.74191C15.9205 5.60008 15.8673 5.44301 15.8468 5.28013C15.8263 5.11724 15.8389 4.9519 15.8838 4.794C15.9288 4.6361 16.0051 4.48891 16.1084 4.36125C16.2116 4.23359 16.3395 4.12808 16.4845 4.05107H16.4833Z" fill="#635D5D"/>
<path fill-rule="evenodd" clip-rule="evenodd" d="M14.2435 3.90288C14.8385 5.02075 15.8391 5.3335 16.8066 4.81916C17.773 4.30605 18.0748 3.30058 17.4798 2.18272C16.8005 0.902372 15.3443 -0.258249 14.3791 0.253646C13.414 0.766763 13.563 2.62254 14.2447 3.90288H14.2435ZM15.3223 3.32868C15.1059 2.89429 14.9733 2.42306 14.9313 1.9396C14.9131 1.73749 14.9205 1.5339 14.9533 1.33363L14.9753 1.34463C15.0364 1.37395 15.2258 1.46191 15.4677 1.65494C15.8366 1.94937 16.2031 2.38308 16.401 2.7557C16.6808 3.28104 16.6014 3.54492 16.2324 3.74162C15.8659 3.93709 15.602 3.85402 15.3223 3.3299V3.32868Z" fill="#635D5D"/>
</svg>
